<?xml version="1.0" encoding="utf-8"?><svg viewBox="0 0 333 372" xmlns="http://www.w3.org/2000/svg" xmlns:xlink="http://www.w3.org/1999/xlink"><style>:root>svg{display:none}:root>svg:target{display:block}</style><svg fill="none" viewBox="0 0 16 16" id="ico-lang" xmlns="http://www.w3.org/2000/svg"><path d="M8 0a8 8 0 100 16A8 8 0 008 0zm6.231 5.143H11.51A10.382 10.382 0 009.48 1.306a6.883 6.883 0 014.751 3.837zM7.97 14.589a9.269 9.269 0 01-2.283-3.732h4.628A9.269 9.269 0 018.03 14.59a.052.052 0 01-.06 0zM5.397 9.714a9.428 9.428 0 010-3.428h5.206a9.43 9.43 0 010 3.428H5.397zM1.143 8c-.001-.578.072-1.154.217-1.714h2.877a10.571 10.571 0 000 3.428H1.36A6.792 6.792 0 011.143 8zM8 1.4a.043.043 0 01.031 0 9.269 9.269 0 012.283 3.743H5.686A9.269 9.269 0 017.97 1.41.043.043 0 018 1.4zm3.763 4.886h2.877a6.874 6.874 0 010 3.428h-2.877a10.575 10.575 0 000-3.428zM6.52 1.306a10.423 10.423 0 00-2.029 3.837H1.77A6.883 6.883 0 016.52 1.306zm-4.751 9.551H4.49a10.38 10.38 0 002.029 3.837 6.883 6.883 0 01-4.751-3.837zm7.714 3.837a10.424 10.424 0 002.026-3.837h2.722a6.884 6.884 0 01-4.751 3.837h.003z" fill="#fff"/></svg><svg fill="none" viewBox="0 0 6 4" id="ico-lang-arrow" xmlns="http://www.w3.org/2000/svg"><path d="M3.049 4a.077.077 0 01-.033-.007.07.07 0 01-.026-.02L.013.1A.059.059 0 01.008.034.067.067 0 01.034.01.077.077 0 01.071 0h5.858c.013 0 .026.003.037.01.01.005.02.014.026.024a.059.059 0 01-.004.065l-2.88 3.873a.07.07 0 01-.026.02.077.077 0 01-.033.008z" fill="#fff"/></svg><svg fill="none" viewBox="0 0 44 29" id="icon-arrow" xmlns="http://www.w3.org/2000/svg"><path fill-rule="evenodd" clip-rule="evenodd" d="M5.698 15.556l38.026.192v-2.944l-37.386-.065L16.773 2.306 14.468 0 0 14.468v.064l2.305 2.24L14.532 29l2.305-2.305-11.14-11.139z" fill="#C0C6D1"/></svg><svg fill="none" viewBox="0 0 11 17" id="icon-btn-top-arrow" xmlns="http://www.w3.org/2000/svg"><path fill-rule="evenodd" clip-rule="evenodd" d="M5.22 2.132L5.15 16.26h1.094l.024-13.89 3.877 3.877.856-.856L5.625.016H5.6l-.833.856L.226 5.415l.856.856L5.22 2.132z" fill="#FDA04B"/></svg><svg fill="none" viewBox="0 0 36 33" id="icon-contacts" xmlns="http://www.w3.org/2000/svg"><path d="M16.13 27.01l-1.732-1.732-.595.595 2.327 2.328 5.467-5.467-.595-.541-4.872 4.817z" fill="#FDA04B"/><path d="M33.397 0H2.003C.866 0 0 .92 0 2.003V21.65c0 1.137.92 2.003 2.003 2.003h8.444c-.108.433-.108.866-.108 1.353 0 4.06 3.301 7.362 7.361 7.362s7.361-3.302 7.361-7.362c0-.487-.054-.92-.108-1.353h8.444c1.137 0 2.003-.92 2.003-2.003V2.003C35.4.866 34.48 0 33.397 0zM22.842 11.908l11.746-9.635v19.541l-11.746-9.906zM2.002.812h31.341c.433 0 .812.216 1.029.595l-15.59 12.775c-.649.487-1.57.487-2.165 0L.974 1.353A1.232 1.232 0 012.003.812zM.813 21.814V2.273l11.746 9.635L.812 21.814zM17.7 31.557a6.538 6.538 0 01-6.55-6.55 6.537 6.537 0 016.55-6.55 6.537 6.537 0 016.55 6.55 6.538 6.538 0 01-6.55 6.55zm7.037-8.66A7.341 7.341 0 0017.7 17.7a7.341 7.341 0 00-7.037 5.196h-8.66c-.325 0-.596-.108-.812-.324L13.207 12.45l2.923 2.381a2.82 2.82 0 001.57.487c.541 0 1.137-.162 1.624-.54l2.923-2.383 11.962 10.177a1.102 1.102 0 01-.812.324h-8.66z" fill="#FDA04B"/><path d="M26.794 3.573H8.606v.811h18.188v-.811zM23.005 6.658h-10.61v.812h10.61v-.812z" fill="#FDA04B"/></svg><svg fill="none" viewBox="0 0 36 25" id="icon-customers" xmlns="http://www.w3.org/2000/svg"><path d="M35.5 20.92c0-2.6-1.68-4.986-4.12-5.853.055-.217.11-.38.11-.596 0-.65-.163-1.138-.597-1.518-.488-.433-1.138-.541-1.68-.541.596-.76.976-1.627 1.03-2.548.38-.325 1.192-1.138 1.192-2.005 0-.705-.38-.976-.759-1.03l.109-1.138c.108-1.626-.705-2.222-1.193-2.44 0-.27-.054-.487-.162-.595-.434-.65-1.626-.976-3.631-.976h-.597c-2.06 0-2.71.976-2.98 1.518-1.79.27-1.735 2.113-1.68 2.926v.76c-.272.053-.705.27-.705 1.029 0 .867.813 1.68 1.192 2.005.054.922.434 1.789.976 2.494-.542 0-1.247.162-1.735.541-.433.38-.596.868-.596 1.518 0 .271.054.542.163.813l-3.74-.867-1.518-2.06c1.03-.921 1.843-2.222 1.951-3.631.38-.325 1.301-1.192 1.247-2.114 0-.759-.434-1.03-.867-1.084l.108-1.246c.109-1.572-.596-2.222-1.138-2.548.488-.704.38-1.138.325-1.246L16.043 0l-.434.38c-.325.216-.65.325-.921.325a.787.787 0 01-.325-.055c-1.03-.487-3.198-.596-3.306-.596-2.223 0-2.927 1.084-3.144 1.626-1.951.271-1.843 2.222-1.789 3.144v.867c-.27.054-.758.27-.758 1.084 0 .921.867 1.788 1.246 2.114.109 1.409.867 2.71 1.897 3.577l-1.463 2.113-4.173.976c-1.464.325-2.548 1.518-2.819 2.98L0 24.066h23.522V22.22H35.5v-1.3zM21.788 9.54l-.163-.108c-.27-.217-1.03-.922-1.03-1.464 0-.162.055-.217.109-.217.217 0 .38-.108.488-.216.108-.109.162-.326.162-.488 0-.163-.054-.325-.054-.488v-.434c-.054-1.355.108-2.06 1.192-2.113h.326l.054-.325c0-.055.27-1.139 2.276-1.139h.596c1.897 0 2.764.326 2.927.597 0 .054.054.108 0 .27l-.217.488.542.054c.109 0 1.03.163.922 1.68l-.163 1.41c0 .162.054.27.108.38a.585.585 0 00.38.162h.216s.055.054.055.217c0 .542-.759 1.246-1.03 1.463l-.163.108v.217c0 1.138-.596 2.114-1.409 2.819h-.108v.054c-.759.65-1.626 1.03-2.276 1.03-.813 0-1.68-.38-2.385-1.03v-.054h-.054c-.76-.705-1.355-1.68-1.355-2.765l.054-.108zm6.124 4.065c-.054.542-.217 1.3-.65 1.843-.38.487-.976.758-1.68.758-.76-.054-1.355-.325-1.735-.758-.488-.542-.65-1.355-.65-1.897.759.542 1.626.867 2.439.867.704 0 1.572-.271 2.276-.813zm-7.154 0c.38-.325 1.084-.38 1.572-.38 0 .65.108 1.843.867 2.765.542.65 1.3 1.03 2.33 1.084.976-.055 1.735-.434 2.331-1.084.759-.922.867-2.114.867-2.765.488 0 1.138 0 1.572.38.217.217.325.488.325.867 0 .596-.325 1.03-.542 1.355a5.159 5.159 0 01-1.788 1.463 5.977 5.977 0 01-2.765.705c-.867 0-1.68-.217-2.438-.542-.488-.867-1.301-1.572-2.277-1.843-.217-.38-.38-.759-.38-1.138 0-.38.11-.65.326-.867zM8.184 2.439h.325l.054-.325c0-.054.271-1.247 2.44-1.247.595.054 2.276.163 2.98.488.054 0 .271.108.65.108.163 0 .326 0 .488-.054-.054.054-.162.163-.216.271l-.597.596.868.055c.054 0 1.138.108 1.03 1.842l-.163 1.301-.488.325c-.163-.162-.325-.27-.488-.27-.27-.055-.596-.055-.975-.055-.65 0-1.301.054-1.301.054-.542.054-.867.271-1.084.596h-.325c-.163-.325-.542-.542-1.084-.596 0 0-.65-.054-1.301-.054-.38 0-.705 0-.976.054-.162.054-.379.109-.487.271l-.597-.27v-.326-.434c-.162-1.246-.054-2.222 1.247-2.33zm6.883 4.39l-.054.271c-.108.705-.163.705-.38.813 0 0-.379.054-.812.054-.434 0-.76-.108-.922-.217-.054-.108-.325-.487-.487-1.03 0-.054-.055-.162 0-.216.054-.054.162-.163.433-.163 0 0 .596-.054 1.192-.054.326 0 .597 0 .813.054.055-.054.271 0 .217.488zm-4.444-.108c-.163.433-.434.867-.488.975-.162.163-.488.217-.921.217-.38 0-.759-.054-.759-.054-.271-.054-.271-.109-.434-.813l-.054-.271c-.054-.38.109-.488.163-.488.217-.054.488-.054.813-.054.596 0 1.192.054 1.192.054.271.054.434.108.434.163.108.108.054.216.054.27zM7.37 8.67v-.216l-.163-.108c-.27-.217-1.138-.976-1.084-1.572 0-.271.055-.271.109-.271a.492.492 0 00.38-.163l.487.217v.434l.054.27c.109.651.217 1.193 1.03 1.464 0 0 .434.108.976.108.704 0 1.246-.162 1.571-.542l.055-.054s.325-.542.542-1.138c0 0 .054-.054.054-.163h.216c0 .055.055.109.055.109.216.65.542 1.138.596 1.138l.054.054c.325.325.813.542 1.572.542.488 0 .921-.108.975-.108.76-.217.868-.759.976-1.464l.054-.27c0-.163.054-.272 0-.434l.488-.163c.054.054.163.054.217.054h.216c.055 0 .109 0 .109.271 0 .597-.813 1.355-1.084 1.572l-.163.109v.216c0 2.385-2.493 4.282-4.119 4.282-1.842 0-4.119-1.951-4.173-4.173zm4.173 4.987c.76 0 1.626-.325 2.385-.813l1.463 2.005-2.168 8.13-.487-5.203.813-1.463a.463.463 0 000-.38c-.055-.108-.217-.216-.326-.216h-3.36c-.162 0-.27.054-.325.216a.463.463 0 000 .38l.813 1.463-.488 5.257-2.168-8.021 1.464-2.06c.758.434 1.571.705 2.384.705zm-.975 2.927h1.95l-.487.758h-1.084l-.38-.758zM.813 23.197l.054-4.607c.217-1.138 1.084-2.005 2.222-2.276l3.903-.922 2.113 7.805H.813zm9.864 0l.488-5.04h.813l.488 5.04h-1.789zm11.978 0h-8.672l2.114-7.913 4.336 1.03c1.138.27 1.951 1.138 2.222 2.276v4.607zm12.032-1.843h-11.22v-2.927c.651.217 1.356.326 2.115.326 1.138 0 2.222-.271 3.143-.813.976-.542 1.626-1.193 2.005-1.68l.326-.488c2.168.758 3.631 2.818 3.631 5.094v.488z" fill="#FDA04B"/></svg><svg fill="none" viewBox="0 0 333 372" id="icon-fox" xmlns="http://www.w3.org/2000/svg"><path d="M289.644 213.543c1.528-2.292 2.139-4.89 3.056-7.487.917-2.445 1.681-1.987 3.056-.306 9.933 12.836 16.962 26.894 20.935 42.48 1.681 6.876 2.75 13.906 3.667 21.087 4.584-4.737 12.378-35.603 12.53-56.691.153-19.865-3.056-38.965-9.932-57.455-21.546-57.914-73.194-91.531-111.09-99.63 1.986 4.584 4.278 8.71 5.653 13.142 8.71 27.505 1.681 47.675-22.156 64.942-16.504 11.919-34.993 19.865-53.941 27.047-3.056 1.223-6.112 2.292-9.169 3.362-2.75 1.069-5.501 1.833-8.404 1.833-3.209 0-6.571.459-8.251 3.515-1.681 3.362.916 5.807 2.903 8.099 15.892 19.101 36.826 29.491 61.275 33.923 8.863 1.681 17.726 2.75 26.741 3.056 3.821.153 4.126.611 3.057 4.278-6.418 22.616-22.005 36.063-44.773 42.175-18.337 4.89-36.673 3.362-54.857-.611-9.474-2.139-18.796-5.043-28.575-5.043-12.53.153-23.99 3.056-33.312 11.766-1.222 1.223-2.14 1.834-3.056-.458-7.64-19.101-11.613-38.507-3.973-58.678 5.043-13.141 14.364-23.226 25.519-31.631 16.656-12.377 35.604-20.629 54.552-28.88 18.031-7.793 36.368-15.128 53.176-25.519 27.2-16.808 35.91-44.16 26.589-73.041-6.113-18.948-17.42-34.382-33.007-47.065-3.056-2.597-3.514-2.445-4.737 1.376-5.042 16.35-16.197 28.116-29.95 38.201-12.224 9.016-26.13 15.434-39.118 23.227-26.13 15.586-49.662 33.923-67.235 58.677C9.55 147.684.993 174.73.076 204.375c-.611 20.934 2.445 41.257 10.085 60.817 16.962 43.397 47.217 74.722 90.92 93.517 8.557 3.668 17.267 6.876 26.435 8.863 32.243 6.723 64.026 7.029 93.976-9.016 18.337-9.932 31.479-24.601 39.119-43.397 12.377-30.408 11.766-60.664-4.584-89.85-3.515-6.112-8.099-11.46-13.142-16.503-2.139-2.292-4.89-2.445-7.64-2.445-12.683-.305-25.213-.917-37.896-2.292-20.476-2.139-40.035-6.723-56.844-18.948-1.986-1.375-5.807-3.056-5.043-4.89.764-2.139 4.279-.305 6.571 0 20.323 2.445 40.494.459 60.817-.458 14.364-.611 28.422-.306 41.716 5.806 1.987.917 3.362.765 3.056-1.833v-1.07c.153-2.139-1.222-5.195.306-6.112 2.139-1.07 4.279 1.375 6.265 2.598 13.753 8.098 25.213 18.489 33.465 31.936.458.764.916 1.375 1.375 1.987 0 .305.153.458.611.458zM122.015 64.251c-.152-.305-.152-.611-.305-.917 3.514-1.986 7.029-3.973 10.543-6.112 14.975-8.863 28.728-19.1 36.674-34.84 1.07-2.139 1.986-1.528 3.209-.153 13.294 15.128 20.934 32.395 18.642 52.566-1.069 10.238-5.806 19.1-13.752 26.13-.611.611-1.223 1.833-2.292 1.222-.917-.458-.459-1.681-.459-2.598 4.584-41.257-41.563-34.228-52.26-35.298zm120.565 70.444c-5.96 13.6-26.283 17.267-34.535 10.849 10.697-5.959 22.005-9.474 34.535-10.849z" fill="#FDA04B"/></svg><svg fill="none" viewBox="0 0 22 28" id="icon-news" xmlns="http://www.w3.org/2000/svg"><path d="M0 0v21.873c0 1.946 1.565 3.512 3.47 3.512L22 27.71V0H0zm5.162 24.962c.973-.508 1.65-1.481 1.819-2.623l11.973 4.4-13.792-1.777zm16.203 1.946l-14.977-5.5v.465a2.88 2.88 0 01-2.876 2.877 2.88 2.88 0 01-2.877-2.877V.635h20.73v26.273z" fill="#FDA04B"/><path d="M13.834 1.777H2.073v6.558h11.761V1.777zM13.2 7.742H2.707v-5.33H13.2v5.33zM20.223 1.777H14.85v6.558h5.373V1.777zm-.634 5.965h-4.104v-5.33h4.104v5.33zM13.539 10.111H2.412v.635h11.127v-.635zM19.884 10.111h-4.738v.635h4.738v-.635zM19.884 12.48h-4.738v.635h4.738v-.634zM19.884 14.85h-4.738v.635h4.738v-.635zM19.884 17.22h-4.738v.634h4.738v-.635zM19.884 19.588h-4.738v.635h4.738v-.634zM13.539 12.48H2.412v.635h11.127v-.634zM13.539 14.85H2.412v.635h11.127v-.635zM13.539 17.22H2.412v.634h11.127v-.635zM13.539 19.588H2.412v.635h11.127v-.634z" fill="#FDA04B"/></svg><svg fill="none" viewBox="0 0 33 33" id="icon-projects" xmlns="http://www.w3.org/2000/svg"><path d="M17.549 17.34l.679-1.515v-1.2h-3.709v1.2l.68 1.515h2.35zm-2.246-1.88h2.141v.261l-.418.888H15.67l-.418-.888v-.261h.052z" fill="#FDA04B"/><path d="M20.108 7.887h-7.416v1.88H6.686v13.057h19.429V9.767h-6.006v-1.88zm-6.633.783h5.902v1.097h-5.902V8.67zm11.856 1.828v3.656l-1.723 1.306a1.445 1.445 0 01-.836.261H18.96v.784h3.813c.47 0 .94-.157 1.306-.418l1.253-.94v6.842H7.47v-6.842l1.253.94c.366.26.836.418 1.306.418h3.813v-.784h-3.813c-.313 0-.574-.104-.835-.261l-1.724-1.306v-3.656H25.331zM16.766 1.828h-.784v.783h.784v-.783zM16.766 0h-.784v.783h.784V0zM8.928 2.667l-.392-.678-.678.392.391.678.679-.392zM9.165 4.68l.679-.392-.392-.678-.679.392.392.678zM3.61 9.453l.678.391.391-.678-.678-.392-.392.679zM1.999 8.553l.678.392.392-.679-.678-.391-.392.678zM2.612 16.034h-.784v.784h.784v-.784zM.783 16.034H0v.784h.783v-.784zM3.584 23.37l.392.678.679-.392-.392-.678-.679.392zM2.016 24.256l.392.679.678-.392-.392-.679-.678.392zM8.775 28.798l.678.392.392-.678-.679-.392-.391.678zM7.875 30.409l.679.391.392-.678-.679-.392-.392.679zM16.766 32.017h-.784v.783h.784v-.783zM16.766 30.189h-.784v.783h.784v-.784zM23.867 30.105l.391.68.679-.393-.392-.678-.678.392zM23.631 28.17l-.678.39.391.68.679-.392-.392-.679zM28.12 23.635l.678.392.392-.679-.678-.391-.392.678zM29.731 24.532l.679.392.392-.678-.679-.392-.392.678zM32.8 16.034h-.783v.784h.783v-.784zM30.972 16.034h-.784v.784h.784v-.784zM28.144 9.142l.392.679.679-.392-.392-.678-.679.391zM30.813 8.537l-.392-.678-.679.391.392.679.679-.392zM24.024 3.952l-.678-.392-.392.679.678.392.392-.679zM24.952 2.396l-.678-.391-.392.678.679.392.391-.679z" fill="#FDA04B"/></svg><svg fill="none" viewBox="0 0 36 36" id="icon-testimonials" xmlns="http://www.w3.org/2000/svg"><path d="M34.732 31.259c-.217-1.14-1.086-2.008-2.225-2.28l-3.42-.814-1.03-1.41c.76-.706 1.356-1.629 1.41-2.714.326-.271.978-.923.978-1.628 0-.597-.326-.814-.652-.923l.109-.814c.054-1.085-.38-1.682-.814-1.953.325-.489.217-.869.217-.923l-.163-.488-.434.325c-.543.38-.814.217-.868.217-.814-.38-2.442-.434-2.551-.434-1.628 0-2.225.76-2.442 1.248-1.465.217-1.411 1.791-1.411 2.442v.543c-.271.109-.543.326-.543.868 0 .706.651 1.357.977 1.628.054 1.086.651 2.008 1.411 2.66l-1.031 1.465-2.713.651c-.38-.271-.76-.488-1.249-.597l-3.853-.922-1.194-1.628c.869-.76 1.52-1.791 1.574-3.04.326-.27 1.086-1.03 1.086-1.79 0-.652-.326-.923-.706-.977l.109-.977c.054-1.194-.434-1.845-.923-2.17.38-.544.271-.923.217-1.032l-.163-.488-.434.325c-.597.435-.977.217-.977.217-.868-.38-2.713-.488-2.822-.488-1.845 0-2.496.868-2.713 1.357-1.628.271-1.574 1.953-1.52 2.713v.651c-.325.109-.596.38-.65.923 0 .814.705 1.52 1.085 1.845.108 1.194.705 2.225 1.573 2.985l-1.193 1.682-3.474.814c-1.248.271-2.17 1.303-2.442 2.55L0 35.6h35.6l-.868-4.341zM22.63 23.932v-.217l-.163-.108c-.271-.217-.814-.76-.76-1.086v-.108a.494.494 0 00.434-.217c.109-.109.163-.272.109-.434 0-.163-.054-.272 0-.38v-.326c-.054-1.085.054-1.628.923-1.628h.325l.054-.326c0-.054.218-.868 1.737-.868.434 0 1.682.109 2.225.38.054 0 .326.109.651.109l-.597.597.869.054c.054 0 .76.054.65 1.302l-.108 1.14c0 .163.055.271.109.38a.493.493 0 00.38.163l.108-.055v.163c0 .38-.543.923-.76 1.085l-.162.109v.217c0 1.737-1.846 3.148-2.985 3.148-1.357-.055-2.985-1.466-3.04-3.094zm3.039 3.853c.597 0 1.194-.217 1.79-.542l1.032 1.41-1.465 5.536-.326-3.31.76-1.411a.464.464 0 000-.38c-.055-.109-.217-.217-.326-.217h-2.768c-.162 0-.27.054-.325.217a.463.463 0 000 .38l.76 1.41-.326 3.311-1.574-5.481 1.031-1.411c.543.326 1.14.488 1.737.488zm-.706 1.9h1.411l-.38.705h-.65l-.38-.705zM7.11 22.575v-.216l-.163-.109c-.325-.217-.868-.814-.868-1.248 0-.109 0-.163.054-.163.163 0 .38-.054.489-.217.108-.108.163-.271.108-.434 0-.163-.054-.326-.054-.434v-.38c-.054-1.194.109-1.845 1.031-1.9h.326l.054-.325c0-.054.217-1.031 2.008-1.031.488 0 1.9.163 2.496.434.055 0 .272.108.597.108h.217l-.054.055-.597.597.814.108c.109 0 .868.163.814 1.52l-.163 1.302c0 .163.055.271.109.38a.493.493 0 00.38.163h.163s.054.054.054.217c0 .434-.543 1.031-.923 1.302l-.163.109v.217c0 1.954-2.062 3.527-3.418 3.527-1.357-.108-3.257-1.682-3.31-3.581zm3.42 4.288c.596 0 1.302-.217 1.953-.651l1.194 1.628-1.737 6.458-.38-4.016.868-1.574a.463.463 0 000-.38c-.054-.108-.217-.217-.325-.217H9.009c-.163 0-.272.054-.326.217a.464.464 0 000 .38l.868 1.574-.38 4.016-1.736-6.404 1.194-1.682c.597.434 1.302.65 1.9.65zm-.87 2.116h1.737l-.434.869h-.814l-.488-.869zM.924 34.786l.705-3.799a2.385 2.385 0 011.79-1.9l3.257-.759 1.737 6.404H.922v.054zm8.954 0l.38-4.124h.542l.38 4.124H9.877zm2.822 0l1.736-6.512 3.582.868a2.386 2.386 0 011.79 1.9l.706 3.798H12.7v-.054zm8.683 0l-.76-3.962c-.109-.434-.271-.868-.543-1.248l2.008-.488 1.52 5.644h-2.225v.054zm3.744 0l.326-3.582h.434l.326 3.582h-1.086zm2.497 0l1.52-5.752 3.2.76c.815.162 1.412.813 1.575 1.627l.65 3.31h-6.945v.055zM10.365 12.59l3.528-3.202h.542v2.605h9.66l3.04 2.714v-2.714h1.79V2.225h-4.559V0H8.086v9.388h2.17l.11 3.202zM28.22 3.04v8.14h-1.791v1.737l-1.9-1.737h-9.225V9.39h9.171v-6.35h3.744zM9.008.869h14.653v7.705H13.62l-2.442 2.171v-2.17H9.01V.867z" fill="#FDA04B"/><path d="M21.273 2.985h-9.877v.814h9.877v-.814zM19.59 5.59H13.08v.814h6.512V5.59z" fill="#FDA04B"/></svg><svg fill="none" viewBox="0 0 30 33" id="icon-who-we-are" xmlns="http://www.w3.org/2000/svg"><path d="M4.686 6.461a13.815 13.815 0 018.089-4.044c.197.79.937 1.43 1.825 1.43a1.926 1.926 0 001.923-1.923A1.895 1.895 0 0014.6 0c-.987 0-1.776.74-1.874 1.677a14.327 14.327 0 00-8.583 4.291l.543.493zM14.6.74a1.2 1.2 0 011.184 1.184c0 .64-.543 1.134-1.184 1.134a1.2 1.2 0 01-1.184-1.184c0-.592.543-1.134 1.184-1.134zM.592 20.272l.69-.197C.888 18.793.74 17.51.74 16.178c0-1.825.345-3.65 1.036-5.327.148.05.345.05.493.05.69 0 1.332-.346 1.677-.938.247-.443.345-.937.197-1.43a2.122 2.122 0 00-.888-1.184c-.296-.148-.64-.246-.937-.246-.69 0-1.332.345-1.677.937-.246.394-.296.937-.197 1.43.099.395.345.79.69 1.036A14.679 14.679 0 000 16.129c0 1.381.197 2.811.592 4.143zm.69-11.887a1.202 1.202 0 011.036-.592c.198 0 .395.05.592.148.247.148.444.395.543.74.049.296.049.592-.148.888-.296.542-1.085.74-1.628.444a1.276 1.276 0 01-.543-.69c-.049-.346 0-.691.148-.938zM3.6 24.514a1.81 1.81 0 00.494-.838c.148-.494.05-.987-.197-1.43-.346-.593-.987-.987-1.677-.987-.346 0-.642.098-.937.246-.444.247-.74.642-.888 1.135-.148.493-.05.986.197 1.43.345.592.987.987 1.677.987.247 0 .493-.05.74-.148 1.924 2.515 4.587 4.39 7.596 5.228l.197-.69c-2.86-.79-5.426-2.565-7.201-4.933zm-2.367-.789c-.197-.247-.197-.592-.148-.888.099-.296.296-.542.543-.69.197-.099.394-.148.592-.148.444 0 .838.246 1.036.591.148.297.197.592.098.888a1.276 1.276 0 01-.542.69c-.543.297-1.283.1-1.579-.443zM24.416 25.895a13.852 13.852 0 01-7.991 3.946c-.197-.789-.937-1.38-1.825-1.43-1.036 0-1.924.838-1.924 1.874s.839 1.924 1.875 1.924c.986 0 1.775-.74 1.874-1.677 3.206-.395 6.165-1.875 8.434-4.143l-.444-.494zM14.6 31.518v.345-.345a1.2 1.2 0 01-1.184-1.184 1.2 1.2 0 011.184-1.183 1.2 1.2 0 011.184 1.183c0 .691-.543 1.184-1.184 1.184zM25.698 7.843a1.81 1.81 0 00-.493.838c-.148.493-.099.987.148 1.48.345.592.986.986 1.677.986.345 0 .641-.098.937-.246.937-.493 1.233-1.677.74-2.614-.346-.592-.987-.987-1.677-.987-.247 0-.494.05-.69.148-2.023-2.713-4.884-4.686-8.189-5.475l-.197.74c3.107.74 5.82 2.565 7.744 5.13zm2.368.838c.296.543.098 1.283-.444 1.579-.543.296-1.283.098-1.579-.444-.148-.296-.197-.592-.098-.888.098-.296.296-.543.542-.69.198-.1.395-.149.592-.149.395-.05.79.198.987.592zM28.016 21.9a14.386 14.386 0 001.184-5.77c0-1.234-.148-2.467-.493-3.7l-.69.197a13.715 13.715 0 01-.69 8.928c-.15-.05-.346-.05-.544-.05-.69 0-1.282.346-1.627.938-.543.887-.247 2.071.64 2.614.297.197.642.247.987.247.69 0 1.283-.346 1.628-.938.543-.789.345-1.874-.395-2.466zm-.197 2.121c-.296.543-1.085.74-1.628.395a1.188 1.188 0 01-.394-1.628c.197-.345.592-.592.986-.592.198 0 .395.05.592.148.592.395.79 1.085.444 1.677zM25.698 16.376l.247-.247-.247-.247c-.148-.147-3.354-3.354-7.843-4.587a14.938 14.938 0 00-2.86-.444h-.79c-.937.05-1.874.198-2.86.444-4.489 1.233-7.695 4.44-7.843 4.588l-.247.246.247.247c.05.05 1.776 1.775 4.39 3.206 2.269 1.233 4.488 1.825 6.659 1.825h.099c2.17 0 4.39-.641 6.658-1.825 2.614-1.43 4.34-3.108 4.39-3.206zm-11.049 4.291s-.049 0 0 0h-.098c-2.516-.05-4.538-2.072-4.538-4.538 0-2.367 1.825-4.34 4.143-4.538h.79c2.318.198 4.143 2.17 4.143 4.538a4.443 4.443 0 01-4.44 4.538zm-6.412-1.726a20.212 20.212 0 01-3.946-2.812c.839-.74 3.453-3.009 6.856-4.045-1.134.987-1.874 2.417-1.874 3.996 0 1.628.74 3.058 1.874 4.044a12.901 12.901 0 01-2.91-1.183zm9.816 1.233c1.134-.987 1.874-2.417 1.874-4.045 0-1.628-.74-3.058-1.874-3.995 3.403 1.036 6.017 3.255 6.856 4.044a20.22 20.22 0 01-3.946 2.812c-.987.493-1.973.888-2.91 1.184z" fill="#FDA04B"/><path d="M14.6 14.55a1.59 1.59 0 00-1.579 1.579c0 .888.74 1.578 1.579 1.578a1.59 1.59 0 001.578-1.578c0-.888-.69-1.578-1.578-1.578zm0 2.418a.831.831 0 01-.839-.839c0-.493.395-.839.839-.839.493 0 .838.395.838.839 0 .493-.345.839-.838.839zM14.994 6.461h-.74v3.01h.74V6.46zM10.11 7.567l-.64.37 1.504 2.605.64-.37-1.504-2.605zM9.4 24.194l.641.37 1.505-2.606-.641-.37L9.4 24.194zM14.896 22.64h-.74v3.009h.74v-3.01zM19.025 24.584l.641-.37-1.504-2.605-.641.37 1.504 2.605zM19.749 7.946l-.641-.37-1.505 2.606.641.37 1.505-2.606z" fill="#FDA04B"/></svg><svg fill="none" viewBox="0 0 130 55" id="logo" xmlns="http://www.w3.org/2000/svg"><path d="M12.967 9.817H5.534v3.114h7.28v4.727h-7.28v6.554h-5.3V8.316a3.227 3.227 0 013.227-3.227h9.495v4.728h.01zM54.827 24.212h-5.922l-3.257-5.084-3.257 5.084H36.44l6.248-9.75-6.013-9.373h5.952l3.022 4.728 3.022-4.728h5.953l-6.014 9.393 6.218 9.73zM70.836 5.09v4.727h-5.125v14.395h-5.299V9.817h-5.125V5.089h15.55zM78.064 19.618h8.025v4.594H72.765V5.09h13.17v4.564h-7.87v2.655H85.2v4.502h-7.137v2.808zM101.537 24.212l-.888-2.756h-6.902l-.888 2.756H87.11L93.951 5.09h6.453l6.84 19.123h-5.707zm-6.422-6.973h4.176l-2.103-6.493-2.073 6.493zM129.9 7.815v16.397h-5.268V13.911l-5.034 7.678h-.531l-5.002-7.648v10.271h-5.299V5.09h5.299l5.268 8.168 5.299-8.168h2.542a2.725 2.725 0 012.726 2.726z" fill="#102027"/><path d="M47.67 38.813c-.776 0-1.42.244-1.93.735-.51.49-.755 1.112-.755 1.868 0 .766.255 1.399.755 1.889s1.154.735 1.93.735 1.42-.245 1.93-.735c.5-.49.755-1.123.755-1.889 0-.755-.255-1.378-.755-1.868-.51-.49-1.154-.736-1.93-.736zM8.678 38.864c-.765 0-1.409.255-1.909.755-.51.51-.755 1.154-.755 1.95s.255 1.44.755 1.95 1.144.756 1.91.756c.765 0 1.398-.255 1.899-.756.5-.5.745-1.154.745-1.95s-.245-1.44-.745-1.95c-.5-.5-1.134-.755-1.9-.755zM104.631 38.864c-.766 0-1.399.255-1.899.755-.501.51-.746 1.154-.746 1.95s.245 1.44.746 1.95c.5.51 1.133.756 1.899.756.765 0 1.409-.255 1.909-.756.5-.5.755-1.154.755-1.95s-.255-1.44-.755-1.95c-.5-.5-1.144-.755-1.909-.755z" fill="#FF6F00"/><path d="M0 28.317v21.788a4.04 4.04 0 004.043 4.043h121.232a4.04 4.04 0 004.043-4.044V28.318H0zm13.804 18.06h-2.481v-1.132c-.725.939-1.767 1.398-3.114 1.398-1.297 0-2.4-.49-3.308-1.47-.92-.98-1.368-2.175-1.368-3.604 0-1.42.46-2.624 1.368-3.604.919-.98 2.021-1.47 3.308-1.47 1.347 0 2.379.47 3.114 1.399V32.92h2.48v13.457zm15.835 0h-2.48v-9.596h2.48v9.597zm-.163-11.21c-.296.297-.664.45-1.082.45a1.46 1.46 0 01-1.062-.45 1.46 1.46 0 01-.45-1.061 1.5 1.5 0 01.45-1.072 1.43 1.43 0 011.062-.46c.418 0 .786.153 1.082.46a1.5 1.5 0 01.45 1.072c.01.408-.144.765-.45 1.061zM52.775 45.92c0 1.48-.49 2.613-1.47 3.4-.98.775-2.165 1.173-3.543 1.173-1.042 0-1.95-.194-2.736-.592a4.225 4.225 0 01-1.818-1.746l2.114-1.204c.49.898 1.327 1.347 2.511 1.347.776 0 1.399-.204 1.848-.612.45-.409.674-.99.674-1.746v-1.041c-.725.97-1.756 1.46-3.073 1.46-1.358 0-2.491-.48-3.41-1.43-.92-.95-1.368-2.113-1.368-3.481 0-1.358.46-2.512 1.378-3.472.919-.96 2.052-1.44 3.4-1.44 1.317 0 2.338.49 3.073 1.46v-1.194h2.42v9.117zm15.825.459h-2.48V36.78h2.48v9.597zm-.163-11.21c-.296.296-.664.449-1.082.449a1.46 1.46 0 01-1.062-.45 1.46 1.46 0 01-.45-1.061 1.5 1.5 0 01.45-1.072 1.43 1.43 0 011.061-.46c.42 0 .787.153 1.083.46a1.5 1.5 0 01.449 1.072c0 .408-.153.765-.45 1.061zm19.01 3.992h-2.174v3.992c0 .337.082.571.245.724.163.154.408.235.725.256.316.02.714.02 1.194-.01v2.246c-1.705.194-2.9.03-3.604-.48-.694-.51-1.041-1.43-1.041-2.747V39.15h-1.675V36.77h1.685v-1.94l2.481-.745v2.685h2.175v2.39h-.01zm22.329 7.218h-2.47v-1.133c-.746.939-1.787 1.398-3.125 1.398-1.276 0-2.378-.49-3.297-1.47-.92-.98-1.368-2.175-1.368-3.604 0-1.42.459-2.624 1.368-3.604.919-.98 2.011-1.47 3.297-1.47 1.348 0 2.39.47 3.125 1.399V36.76h2.481v9.618h-.011zm15.346 0h-2.481V32.36h2.481v14.018z" fill="#FF6F00"/><path d="M33.784 14.268c.102-.153.143-.327.205-.5.06-.164.112-.133.204-.02a7.697 7.697 0 011.399 2.838c.112.46.183.929.245 1.409.306-.317.827-2.38.837-3.788a10.665 10.665 0 00-.664-3.84c-1.44-3.869-4.89-6.115-7.422-6.656.132.306.285.582.377.878.582 1.838.113 3.186-1.48 4.34-1.103.796-2.338 1.326-3.604 1.806-.204.082-.409.154-.613.225a1.541 1.541 0 01-.561.122c-.215 0-.44.031-.552.235-.112.225.062.388.194.541 1.062 1.277 2.46 1.971 4.095 2.267.592.112 1.184.184 1.786.204.255.01.276.041.204.286-.428 1.511-1.47 2.41-2.991 2.818-1.225.327-2.45.225-3.665-.04-.633-.144-1.256-.338-1.91-.338-.837.01-1.603.204-2.225.787-.082.081-.143.122-.205-.031-.51-1.276-.775-2.573-.265-3.92.337-.879.96-1.553 1.705-2.114 1.113-.827 2.379-1.378 3.645-1.93 1.205-.52 2.43-1.01 3.553-1.705 1.817-1.123 2.4-2.95 1.776-4.88C27.444 1.996 26.69.965 25.648.117c-.204-.173-.235-.163-.316.092-.337 1.093-1.083 1.879-2.002 2.553-.816.602-1.745 1.03-2.613 1.551-1.746 1.042-3.318 2.267-4.493 3.921-1.153 1.634-1.725 3.44-1.786 5.421-.041 1.4.163 2.757.674 4.064 1.133 2.9 3.154 4.993 6.074 6.248.572.245 1.154.46 1.767.593 2.154.449 4.278.47 6.279-.603 1.225-.663 2.103-1.644 2.613-2.9.828-2.031.787-4.053-.306-6.003-.235-.408-.54-.766-.878-1.103-.143-.153-.326-.163-.51-.163a30.113 30.113 0 01-2.532-.153c-1.368-.143-2.675-.45-3.798-1.266-.133-.092-.388-.204-.337-.327.05-.143.285-.02.439 0 1.358.164 2.705.03 4.063-.03.96-.041 1.9-.02 2.788.388.132.06.224.05.204-.123v-.071c.01-.143-.082-.348.02-.409.143-.071.286.092.419.174.919.54 1.684 1.235 2.236 2.134.03.05.06.092.092.132 0 .02.01.031.04.031zm-11.2-9.975c-.01-.02-.01-.04-.02-.061.235-.133.47-.266.704-.409 1-.592 1.92-1.276 2.45-2.328.072-.142.133-.102.215-.01.888 1.011 1.399 2.165 1.246 3.512-.072.685-.388 1.277-.92 1.746-.04.041-.08.123-.152.082-.062-.03-.031-.112-.031-.174.306-2.756-2.777-2.287-3.492-2.358zM30.64 9c-.398.908-1.756 1.153-2.308.725A5.99 5.99 0 0130.64 9z" fill="#102027"/></svg><svg fill="none" viewBox="0 0 198 83" id="logo-header" xmlns="http://www.w3.org/2000/svg"><path d="M19.672 14.893H8.395v4.724H19.44v7.172H8.395v9.944H.356V12.616c0-2.71 2.2-4.895 4.895-4.895h14.405v7.172h.016zM83.178 36.733h-8.984l-4.94-7.714-4.942 7.714h-9.03l9.48-14.792-9.124-14.22h9.03l4.585 7.172 4.585-7.172h9.03l-9.123 14.25 9.433 14.762zM107.466 7.721v7.172H99.69v21.84h-8.039v-21.84h-7.775V7.72h23.59zM118.432 29.763h12.175v6.97h-20.214V7.72h19.981v6.924h-11.942v4.027h10.827v6.831h-10.827v4.26zM154.042 36.733l-1.347-4.182h-10.471l-1.348 4.182h-8.72L142.534 7.72h9.789l10.378 29.012h-8.659zm-9.743-10.58h6.336l-3.191-9.85-3.145 9.85zM197.071 11.857v24.876h-7.992V21.104l-7.636 11.648h-.806l-7.59-11.602v15.583h-8.039V7.72h8.039l7.993 12.392 8.039-12.392h3.857a4.134 4.134 0 014.135 4.136z" fill="#0D201C"/><path d="M72.32 58.883c-1.176 0-2.152.371-2.927 1.115-.774.743-1.146 1.688-1.146 2.835 0 1.161.387 2.121 1.146 2.865.76.744 1.75 1.115 2.928 1.115 1.177 0 2.153-.371 2.927-1.115.76-.743 1.146-1.704 1.146-2.865 0-1.147-.387-2.092-1.146-2.835-.774-.744-1.75-1.115-2.927-1.115zM13.166 58.96c-1.161 0-2.137.387-2.896 1.146-.775.775-1.146 1.75-1.146 2.959 0 1.208.387 2.184 1.146 2.958.759.775 1.735 1.147 2.896 1.147 1.162 0 2.122-.388 2.881-1.147.76-.759 1.131-1.75 1.131-2.958 0-1.208-.372-2.184-1.13-2.959-.76-.759-1.72-1.146-2.882-1.146zM158.736 58.96c-1.162 0-2.122.387-2.881 1.146-.759.775-1.131 1.75-1.131 2.959 0 1.208.372 2.184 1.131 2.958.759.775 1.719 1.147 2.881 1.147 1.162 0 2.137-.388 2.896-1.147.759-.759 1.147-1.75 1.147-2.958 0-1.208-.388-2.184-1.147-2.959-.759-.759-1.734-1.146-2.896-1.146z" fill="#FF6F00"/><path d="M0 42.96v33.054a6.128 6.128 0 006.134 6.134h183.921a6.128 6.128 0 006.134-6.134V42.96H0zm20.942 27.4h-3.764v-1.72c-1.1 1.426-2.68 2.123-4.725 2.123-1.967 0-3.64-.744-5.018-2.23-1.394-1.487-2.076-3.3-2.076-5.468 0-2.153.697-3.981 2.076-5.468 1.394-1.487 3.067-2.23 5.019-2.23 2.044 0 3.608.712 4.724 2.122v-7.544h3.764V70.36zm24.024 0h-3.764V55.8h3.764v14.56zm-.248-17.007c-.45.45-1.007.681-1.642.681-.62 0-1.162-.232-1.61-.681-.45-.45-.682-.991-.682-1.611s.232-1.162.681-1.626c.45-.465.991-.697 1.611-.697.635 0 1.193.232 1.642.697.45.464.681 1.006.681 1.626.016.62-.216 1.162-.681 1.61zm35.347 16.31c0 2.246-.744 3.966-2.23 5.158-1.488 1.177-3.284 1.782-5.375 1.782-1.58 0-2.959-.295-4.152-.899a6.41 6.41 0 01-2.757-2.649l3.207-1.827c.743 1.363 2.013 2.044 3.81 2.044 1.177 0 2.122-.31 2.804-.93.681-.619 1.022-1.501 1.022-2.648v-1.58c-1.1 1.472-2.664 2.215-4.662 2.215-2.06 0-3.78-.728-5.174-2.168-1.394-1.44-2.076-3.207-2.076-5.282 0-2.06.698-3.81 2.092-5.267 1.394-1.456 3.113-2.184 5.158-2.184 1.998 0 3.547.744 4.662 2.216V55.83h3.67v13.832zm24.009.697h-3.764V55.8h3.764v14.56zm-.248-17.007a2.26 2.26 0 01-1.642.681c-.62 0-1.162-.232-1.611-.681-.449-.45-.682-.991-.682-1.611s.233-1.162.682-1.626c.449-.465.991-.697 1.611-.697.635 0 1.192.232 1.642.697.449.464.681 1.006.681 1.626 0 .62-.232 1.162-.681 1.61zm28.841 6.056h-3.299v6.057c0 .51.124.867.371 1.1.248.232.62.356 1.1.387.48.03 1.085.03 1.813-.016v3.408c-2.587.294-4.399.046-5.468-.728-1.054-.775-1.58-2.169-1.58-4.167v-6.056h-2.54v-3.61h2.555v-2.942l3.764-1.131v4.074h3.299v3.624h-.015zm33.875 10.951h-3.748v-1.72c-1.131 1.426-2.711 2.123-4.74 2.123-1.936 0-3.609-.744-5.003-2.23-1.394-1.487-2.075-3.3-2.075-5.468 0-2.153.697-3.981 2.075-5.468 1.394-1.487 3.052-2.23 5.003-2.23 2.045 0 3.625.712 4.74 2.122v-1.72h3.764V70.36h-.016zm23.281 0h-3.764V49.093h3.764V70.36z" fill="#FF6F00"/><path d="M51.254 21.646c.155-.232.217-.496.31-.759.093-.248.17-.201.31-.03a11.674 11.674 0 012.122 4.305c.17.697.279 1.41.372 2.138.464-.48 1.254-3.61 1.27-5.747.015-2.014-.31-3.95-1.007-5.824-2.184-5.87-7.42-9.278-11.26-10.099.2.465.433.883.572 1.332.883 2.788.17 4.833-2.246 6.583-1.673 1.208-3.547 2.014-5.468 2.742-.31.124-.62.232-.929.34-.279.109-.557.186-.852.186-.325 0-.666.047-.836.357-.17.34.093.588.294.82 1.61 1.937 3.733 2.99 6.211 3.44.899.17 1.797.278 2.711.309.387.015.418.062.31.434-.65 2.292-2.23 3.655-4.539 4.275-1.858.495-3.717.34-5.56-.062-.96-.217-1.906-.511-2.897-.511-1.27.015-2.432.31-3.377 1.192-.123.124-.216.186-.31-.046-.774-1.936-1.177-3.903-.402-5.948.511-1.332 1.456-2.354 2.587-3.206 1.688-1.255 3.609-2.091 5.53-2.928 1.827-.79 3.686-1.533 5.39-2.587 2.757-1.703 3.64-4.476 2.695-7.404-.62-1.92-1.766-3.485-3.346-4.77-.31-.264-.356-.248-.48.14-.511 1.657-1.642 2.85-3.036 3.871-1.24.914-2.649 1.565-3.965 2.355-2.649 1.58-5.034 3.439-6.816 5.948-1.75 2.478-2.617 5.22-2.71 8.225-.062 2.122.248 4.182 1.022 6.165 1.72 4.398 4.786 7.574 9.216 9.479.868.372 1.75.697 2.68.898 3.268.682 6.49.713 9.526-.913 1.859-1.007 3.19-2.494 3.965-4.4 1.255-3.082 1.193-6.149-.465-9.107-.356-.62-.82-1.162-1.332-1.673-.216-.232-.495-.248-.774-.248a45.643 45.643 0 01-3.841-.232c-2.076-.217-4.059-.682-5.763-1.92-.2-.14-.588-.31-.51-.497.077-.216.433-.03.665 0 2.06.248 4.105.047 6.165-.046 1.456-.062 2.881-.031 4.229.588.201.093.34.078.31-.185v-.109c.015-.217-.124-.526.03-.62.217-.108.434.14.636.264 1.394.82 2.555 1.874 3.392 3.237.046.078.093.14.14.202 0 .03.015.046.061.046zM34.262 6.513c-.015-.031-.015-.062-.03-.093.356-.201.712-.403 1.068-.62 1.518-.898 2.912-1.936 3.718-3.531.108-.217.2-.155.325-.016 1.347 1.534 2.122 3.284 1.89 5.329-.109 1.037-.589 1.936-1.394 2.648-.063.062-.124.186-.233.124-.093-.046-.046-.17-.046-.263.464-4.182-4.213-3.47-5.298-3.578zm12.221 7.14c-.604 1.38-2.664 1.75-3.5 1.1a9.085 9.085 0 013.5-1.1z" fill="#0D201C"/></svg></svg>