<svg width="333" height="372" viewBox="0 0 333 372" fill="none" xmlns="http://www.w3.org/2000/svg">
<path d="M289.644 213.543C291.172 211.251 291.783 208.653 292.7 206.056C293.617 203.611 294.381 204.069 295.756 205.75C305.689 218.586 312.718 232.644 316.691 248.23C318.372 255.106 319.441 262.136 320.358 269.317C324.942 264.58 332.736 233.714 332.888 212.626C333.041 192.761 329.832 173.661 322.956 155.171C301.41 97.2574 249.762 63.64 211.866 55.5412C213.852 60.1254 216.144 64.2512 217.519 68.6826C226.229 96.1877 219.2 116.358 195.363 133.625C178.859 145.544 160.37 153.49 141.422 160.672C138.366 161.895 135.31 162.964 132.253 164.034C129.503 165.103 126.752 165.867 123.849 165.867C120.64 165.867 117.278 166.326 115.598 169.382C113.917 172.744 116.514 175.189 118.501 177.481C134.393 196.582 155.327 206.972 179.776 211.404C188.639 213.085 197.502 214.154 206.517 214.46C210.338 214.613 210.643 215.071 209.574 218.738C203.156 241.354 187.569 254.801 164.801 260.913C146.464 265.803 128.128 264.275 109.944 260.302C100.47 258.163 91.1485 255.259 81.3689 255.259C68.8388 255.412 57.3783 258.315 48.0571 267.025C46.8347 268.248 45.9178 268.859 45.001 266.567C37.3607 247.466 33.3877 228.06 41.028 207.889C46.0706 194.748 55.3918 184.663 66.5467 176.258C83.2026 163.881 102.151 155.629 121.099 147.378C139.13 139.585 157.467 132.25 174.275 121.859C201.475 105.051 210.185 77.6982 200.864 48.8178C194.751 29.8698 183.444 14.4363 167.857 1.75338C164.801 -0.844333 164.343 -0.691526 163.12 3.12863C158.078 19.4789 146.923 31.245 133.17 41.3302C120.946 50.3458 107.04 56.7637 94.0518 64.5568C67.9219 80.1431 44.3897 98.4799 26.817 123.234C9.54988 147.684 0.992719 174.73 0.0758806 204.375C-0.535345 225.309 2.52079 245.632 10.1611 265.192C27.1226 308.589 57.3783 339.914 101.081 358.709C109.638 362.377 118.348 365.585 127.516 367.572C159.759 374.295 191.542 374.601 221.492 358.556C239.829 348.624 252.971 333.955 260.611 315.159C272.988 284.751 272.377 254.495 256.027 225.309C252.512 219.197 247.928 213.849 242.885 208.806C240.746 206.514 237.995 206.361 235.245 206.361C222.562 206.056 210.032 205.444 197.349 204.069C176.873 201.93 157.314 197.346 140.505 185.121C138.519 183.746 134.698 182.065 135.462 180.231C136.226 178.092 139.741 179.926 142.033 180.231C162.356 182.676 182.527 180.69 202.85 179.773C217.214 179.162 231.272 179.467 244.566 185.579C246.553 186.496 247.928 186.344 247.622 183.746C247.622 183.44 247.622 182.982 247.622 182.676C247.775 180.537 246.4 177.481 247.928 176.564C250.067 175.494 252.207 177.939 254.193 179.162C267.946 187.26 279.406 197.651 287.658 211.098C288.116 211.862 288.574 212.473 289.033 213.085C289.033 213.39 289.186 213.543 289.644 213.543ZM122.015 64.2512C121.863 63.9456 121.863 63.64 121.71 63.3344C125.224 61.3479 128.739 59.3614 132.253 57.2221C147.228 48.3593 160.981 38.1213 168.927 22.3822C169.997 20.243 170.913 20.8542 172.136 22.2294C185.43 37.3573 193.07 54.6244 190.778 74.7948C189.709 85.0329 184.972 93.8957 177.026 100.925C176.415 101.536 175.803 102.758 174.734 102.147C173.817 101.689 174.275 100.466 174.275 99.5495C178.859 58.2918 132.712 65.3208 122.015 64.2512ZM242.58 134.695C236.62 148.295 216.297 151.962 208.045 145.544C218.742 139.585 230.05 136.07 242.58 134.695Z" fill="#FDA04B"/>
</svg>
