<svg width="309" height="325" viewBox="0 0 309 325" fill="none" xmlns="http://www.w3.org/2000/svg">
<path d="M269.339 186.689C270.905 184.72 271.427 182.258 271.949 180.289C272.992 178.32 273.514 178.32 274.558 179.797C283.951 191.12 290.213 203.428 293.866 217.213C295.432 223.121 296.476 229.521 297.519 235.429C301.694 231.491 309 204.413 309 185.705C309 168.473 306.391 151.734 299.607 135.488C279.776 84.7786 231.766 55.2393 196.802 48.3467C198.368 52.2853 200.977 55.7316 202.021 59.6702C209.848 83.794 203.586 101.518 181.668 116.287C166.535 126.626 149.314 133.519 131.571 139.919C128.961 140.903 125.83 141.888 123.221 142.873C120.612 143.857 118.003 144.35 115.393 144.35C112.262 144.35 109.131 144.842 107.566 147.304C106 150.257 108.609 152.227 110.175 154.688C124.787 171.427 144.617 180.289 167.057 184.228C175.406 185.705 183.756 186.689 192.105 186.689C195.758 186.689 195.758 187.182 194.715 190.628C188.974 210.321 174.362 222.137 152.967 227.552C135.746 231.983 119.046 230.506 101.825 227.06C92.9538 225.09 84.6042 222.629 75.2108 222.629C64.252 223.613 53.815 226.075 44.9435 233.46C43.8998 234.445 42.8561 234.937 42.3343 232.968C35.0283 216.229 31.3754 198.997 38.6813 181.766C43.378 170.443 51.7276 161.581 62.1646 154.196C77.8201 143.365 95.0412 135.98 112.784 129.088C129.483 122.195 146.704 115.795 162.36 106.933C187.409 92.1634 195.758 68.532 186.887 42.9312C181.147 26.1922 170.71 12.8995 156.098 1.57611C152.967 -0.885497 152.967 -0.393171 151.923 2.56076C147.226 16.8381 136.789 27.1769 124.265 36.0387C112.784 43.9158 100.26 49.8237 87.7353 56.2239C63.2083 70.0089 41.8124 85.7632 25.1132 107.425C8.93581 128.595 1.10805 152.719 0.0643526 178.32C-0.457498 196.536 2.15175 214.259 9.45766 231.491C25.1132 269.399 53.2931 296.97 93.9975 313.216C101.825 316.662 110.175 319.124 118.524 321.093C148.27 327.001 178.015 327.493 205.674 313.216C222.895 304.354 234.897 291.554 242.203 275.307C253.684 248.722 253.162 222.137 238.028 196.536C234.897 191.12 230.201 186.689 226.026 182.258C223.938 180.289 221.329 180.289 218.72 180.289C207.239 179.797 195.237 179.304 183.756 178.32C164.969 176.351 146.704 172.412 131.049 161.581C128.961 160.104 125.83 159.119 126.352 157.15C126.874 155.181 130.527 156.658 132.614 157.15C151.401 159.119 170.188 157.642 188.974 156.658C202.021 156.165 215.589 156.165 227.591 161.581C229.679 162.566 230.722 162.073 230.201 160.104C230.201 159.612 230.201 159.612 230.201 159.119C230.201 157.15 229.157 154.688 230.201 153.704C232.288 152.719 234.375 155.181 235.941 156.165C248.465 163.058 259.424 172.412 267.252 184.228C267.774 184.72 268.296 185.212 268.296 186.197C268.817 186.689 269.339 186.689 269.339 186.689ZM113.828 56.2239C113.828 55.7316 113.828 55.7316 113.306 55.2393C116.437 53.27 120.09 51.793 123.221 49.8237C137.311 41.9466 149.835 33.0847 157.141 19.2997C158.185 17.3304 159.229 17.8228 160.273 19.2997C172.797 32.5924 179.581 47.3621 177.494 65.578C176.45 74.4398 172.275 82.317 164.447 88.7172C163.925 89.2095 163.404 90.1941 162.36 89.7018C161.316 89.2095 161.838 88.2248 161.838 87.2402C166.535 50.8083 123.743 57.2085 113.828 56.2239ZM226.026 117.764C220.285 129.58 201.499 133.026 193.671 127.118C203.586 122.195 214.023 118.749 226.026 117.764Z" fill="#FFF5ED"/>
</svg>
