<svg width="337" height="417" viewBox="0 0 337 417" fill="none" xmlns="http://www.w3.org/2000/svg">
<path d="M325.996 239.548C327.891 237.021 328.523 233.862 329.155 231.335C330.418 228.809 331.049 228.809 332.313 230.704C343.682 245.233 351.262 261.026 355.683 278.714C357.578 286.295 358.841 294.507 360.104 302.088C365.157 297.034 374 262.289 374 238.284C374 216.174 370.842 194.696 362.631 173.849C338.629 108.782 280.519 70.8794 238.201 62.0354C240.095 67.0891 243.254 71.5112 244.517 76.5649C253.991 107.519 246.412 130.261 219.883 149.212C201.566 162.478 180.723 171.322 159.247 179.535C156.089 180.798 152.3 182.062 149.141 183.325C145.983 184.588 142.825 185.22 139.667 185.22C135.877 185.22 132.088 185.852 130.193 189.01C128.298 192.801 131.456 195.328 133.351 198.486C151.036 219.964 175.038 231.335 202.198 236.389C212.304 238.284 222.41 239.548 232.516 239.548C236.937 239.548 236.937 240.179 235.674 244.601C228.726 269.87 211.041 285.031 185.144 291.98C164.3 297.666 144.088 295.77 123.245 291.348C112.507 288.822 102.401 285.663 91.0319 285.663C77.7678 286.926 65.1353 290.085 54.3976 299.561C53.1344 300.824 51.8711 301.456 51.2395 298.929C42.3968 277.451 37.9754 255.341 46.8181 233.231C52.5028 218.701 62.6088 207.33 75.2413 197.854C94.19 183.957 115.034 174.481 136.509 165.637C156.721 156.793 177.565 148.581 196.513 137.21C226.831 118.258 236.937 87.9358 226.2 55.0865C219.252 33.6082 206.619 16.5518 188.934 2.02237C185.144 -1.13621 185.144 -0.504492 183.881 3.28581C178.196 21.6056 165.564 34.8716 150.405 46.2425C136.509 56.35 121.35 63.9306 106.191 72.1429C76.5045 89.8309 50.6079 110.046 30.3959 137.841C10.8155 165.005 1.34114 195.959 0.0778896 228.809C-0.553736 252.182 2.60439 274.924 11.4471 297.034C30.3959 345.676 64.5037 381.052 113.77 401.899C123.245 406.321 133.351 409.479 143.457 412.006C179.459 419.587 215.462 420.219 248.938 401.899C269.782 390.528 284.309 374.103 293.152 353.257C307.048 319.144 306.416 285.031 288.099 252.182C284.309 245.233 278.625 239.548 273.572 233.862C271.045 231.335 267.887 231.335 264.729 231.335C250.833 230.704 236.306 230.072 222.41 228.809C199.671 226.282 177.565 221.228 158.616 207.33C156.089 205.435 152.3 204.172 152.931 201.645C153.563 199.118 157.984 201.013 160.511 201.645C183.249 204.172 205.988 202.276 228.726 201.013C244.517 200.381 260.939 200.381 275.466 207.33C277.993 208.594 279.256 207.962 278.625 205.435C278.625 204.803 278.625 204.803 278.625 204.172C278.625 201.645 277.361 198.486 278.625 197.223C281.151 195.959 283.678 199.118 285.572 200.381C300.731 209.225 313.996 221.228 323.47 236.389C324.102 237.021 324.733 237.653 324.733 238.916C325.365 239.548 325.996 239.548 325.996 239.548ZM137.772 72.1429C137.772 71.5112 137.772 71.5112 137.141 70.8794C140.93 68.3526 145.352 66.4574 149.141 63.9306C166.195 53.8231 181.354 42.4522 190.197 24.7642C191.46 22.2373 192.724 22.869 193.987 24.7642C209.146 41.8205 217.357 60.772 214.83 84.1455C213.567 95.5164 208.514 105.624 199.04 113.836C198.408 114.468 197.777 115.731 196.513 115.1C195.25 114.468 195.882 113.204 195.882 111.941C201.566 65.194 149.773 73.4063 137.772 72.1429ZM273.572 151.107C266.624 166.269 243.885 170.691 234.411 163.11C246.412 156.793 259.044 152.371 273.572 151.107Z" fill="#FFF5ED"/>
</svg>
