<svg  preserveAspectRatio="none" viewBox="0 0 1440 439" fill="none" xmlns="http://www.w3.org/2000/svg">
<mask id="mask0" mask-type="alpha" maskUnits="userSpaceOnUse" x="0" y="0" width="1440" height="439">
<path d="M0 0C473.172 114.501 966.828 114.501 1440 0V439C967.159 321.759 472.841 321.759 0 439V0Z" fill="#002987"/>
</mask>
<g mask="url(#mask0)">
<path d="M0 0C470.08 115.376 961.003 116.089 1431.42 2.0804L1440 0V439L1431.42 436.906C961.107 322.064 469.979 322.782 0 439V0Z" fill="#FDA04B"/>
<g opacity="0.15">
<path d="M843.644 247.543C845.172 245.251 845.783 242.653 846.7 240.056C847.617 237.611 848.381 238.069 849.756 239.75C859.689 252.586 866.718 266.644 870.691 282.23C872.372 289.106 873.441 296.136 874.358 303.317C878.942 298.58 886.736 267.714 886.888 246.626C887.041 226.761 883.832 207.661 876.956 189.171C855.41 131.257 803.762 97.64 765.866 89.5412C767.852 94.1254 770.144 98.2512 771.519 102.683C780.229 130.188 773.2 150.358 749.363 167.625C732.859 179.544 714.37 187.49 695.422 194.672C692.366 195.895 689.31 196.964 686.253 198.034C683.503 199.103 680.752 199.867 677.849 199.867C674.64 199.867 671.278 200.326 669.598 203.382C667.917 206.744 670.514 209.189 672.501 211.481C688.393 230.582 709.327 240.972 733.776 245.404C742.639 247.085 751.502 248.154 760.517 248.46C764.338 248.613 764.643 249.071 763.574 252.738C757.156 275.354 741.569 288.801 718.801 294.913C700.464 299.803 682.128 298.275 663.944 294.302C654.47 292.163 645.149 289.259 635.369 289.259C622.839 289.412 611.378 292.315 602.057 301.025C600.835 302.248 599.918 302.859 599.001 300.567C591.361 281.466 587.388 262.06 595.028 241.889C600.071 228.748 609.392 218.663 620.547 210.258C637.203 197.881 656.151 189.629 675.099 181.378C693.13 173.585 711.467 166.25 728.275 155.859C755.475 139.051 764.185 111.698 754.864 82.8178C748.751 63.8698 737.444 48.4363 721.857 35.7534C718.801 33.1557 718.343 33.3085 717.12 37.1286C712.078 53.4789 700.923 65.245 687.17 75.3302C674.946 84.3458 661.04 90.7637 648.052 98.5568C621.922 114.143 598.39 132.48 580.817 157.234C563.55 181.684 554.993 208.73 554.076 238.375C553.465 259.309 556.521 279.632 564.161 299.192C581.123 342.589 611.378 373.914 655.081 392.709C663.638 396.377 672.348 399.585 681.516 401.572C713.759 408.295 745.542 408.601 775.492 392.556C793.829 382.624 806.971 367.955 814.611 349.159C826.988 318.751 826.377 288.495 810.027 259.309C806.512 253.197 801.928 247.849 796.885 242.806C794.746 240.514 791.995 240.361 789.245 240.361C776.562 240.056 764.032 239.444 751.349 238.069C730.873 235.93 711.314 231.346 694.505 219.121C692.519 217.746 688.698 216.065 689.462 214.231C690.226 212.092 693.741 213.926 696.033 214.231C716.356 216.676 736.527 214.69 756.85 213.773C771.214 213.162 785.272 213.467 798.566 219.579C800.553 220.496 801.928 220.344 801.622 217.746C801.622 217.44 801.622 216.982 801.622 216.676C801.775 214.537 800.4 211.481 801.928 210.564C804.067 209.494 806.207 211.939 808.193 213.162C821.946 221.26 833.406 231.651 841.658 245.098C842.116 245.862 842.574 246.473 843.033 247.085C843.033 247.39 843.186 247.543 843.644 247.543ZM676.015 98.2512C675.863 97.9456 675.863 97.64 675.71 97.3344C679.224 95.3479 682.739 93.3614 686.253 91.2221C701.228 82.3593 714.981 72.1213 722.927 56.3822C723.997 54.243 724.913 54.8542 726.136 56.2294C739.43 71.3573 747.07 88.6244 744.778 108.795C743.709 119.033 738.972 127.896 731.026 134.925C730.415 135.536 729.803 136.758 728.734 136.147C727.817 135.689 728.275 134.466 728.275 133.549C732.859 92.2918 686.712 99.3208 676.015 98.2512ZM796.58 168.695C790.62 182.295 770.297 185.962 762.045 179.544C772.742 173.585 784.05 170.07 796.58 168.695Z" fill="white"/>
</g>
</g>
</svg>