<svg id="Слой_1" data-name="Слой 1" xmlns="http://www.w3.org/2000/svg" viewBox="0 0 1440 439"><title>bg_desk_opt2</title><path d="M0,0A3020.42,3020.42,0,0,0,1431.42,2.08L1440,0V439l-8.58-2.09A2999.09,2999.09,0,0,0,0,439Z" transform="translate(0 0)" fill="#fda04b"/><g opacity="0.15"><path d="M849.64,254.54c1.53-2.29,2.14-4.89,3.06-7.48s1.68-2,3.06-.31a115.15,115.15,0,0,1,20.93,42.48,191,191,0,0,1,3.67,21.09c4.58-4.74,12.38-35.61,12.53-56.69A159.81,159.81,0,0,0,883,196.17c-21.55-57.91-73.2-91.53-111.09-99.63,2,4.59,4.27,8.71,5.65,13.14,8.71,27.51,1.68,47.68-22.16,64.95-16.5,11.91-35,19.86-53.94,27-3,1.23-6.11,2.29-9.17,3.36a23.08,23.08,0,0,1-8.4,1.84c-3.21,0-6.57.46-8.25,3.51-1.68,3.36.91,5.81,2.9,8.1,15.89,19.1,36.83,29.49,61.28,33.92a174.07,174.07,0,0,0,26.74,3.06c3.82.15,4.12.61,3.05,4.28-6.41,22.61-22,36.06-44.77,42.17-18.34,4.89-36.67,3.36-54.86-.61-9.47-2.14-18.79-5-28.57-5-12.53.15-24,3.06-33.31,11.76-1.22,1.23-2.14,1.84-3.06-.45-7.64-19.1-11.61-38.51-4-58.68,5-13.14,14.36-23.23,25.52-31.63,16.65-12.38,35.6-20.63,54.55-28.88,18-7.79,36.37-15.13,53.18-25.52,27.19-16.81,35.9-44.16,26.58-73-6.11-18.95-17.42-34.38-33-47.07-3.06-2.59-3.52-2.44-4.74,1.38-5,16.35-16.2,28.12-30,38.2-12.22,9-26.13,15.43-39.12,23.23-26.13,15.58-49.66,33.92-67.23,58.67-17.27,24.45-25.83,51.5-26.74,81.15-.61,20.93,2.44,41.25,10.08,60.81,17,43.4,47.22,74.72,90.92,93.52a145.4,145.4,0,0,0,26.44,8.86c32.24,6.73,64,7,94-9,18.34-9.94,31.48-24.61,39.12-43.4,12.38-30.41,11.77-60.67-4.58-89.85a80.27,80.27,0,0,0-13.14-16.5c-2.14-2.3-4.9-2.45-7.65-2.45-12.68-.3-25.21-.92-37.89-2.29-20.48-2.14-40-6.72-56.84-18.95-2-1.37-5.81-3.05-5-4.89.77-2.14,4.28-.3,6.57,0,20.33,2.45,40.5.46,60.82-.46,14.36-.61,28.42-.3,41.72,5.81,2,.92,3.36.76,3-1.83v-1.07c.16-2.14-1.22-5.2.31-6.12,2.14-1.07,4.28,1.38,6.26,2.6,13.76,8.1,25.22,18.49,33.47,31.94.46.76.91,1.37,1.37,2C849,254.39,849.19,254.54,849.64,254.54ZM682,105.25c-.16-.3-.16-.61-.31-.92,3.51-2,7-4,10.54-6.11,15-8.86,28.73-19.1,36.68-34.84,1.07-2.14,2-1.53,3.21-.15,13.29,15.13,20.93,32.39,18.64,52.56A39.81,39.81,0,0,1,737,141.93c-.62.61-1.23,1.83-2.3,1.22-.91-.46-.45-1.68-.45-2.6C738.86,99.29,692.71,106.32,682,105.25ZM802.58,175.7c-6,13.59-26.28,17.26-34.54,10.84A89.74,89.74,0,0,1,802.58,175.7Z" transform="translate(0 0)" fill="#fff"/></g></svg>