<?xml version="1.0" encoding="utf-8"?>
<!-- Generator: Adobe Illustrator 23.0.2, SVG Export Plug-In . SVG Version: 6.00 Build 0)  -->
<svg version="1.1" id="Слой_1" xmlns="http://www.w3.org/2000/svg" xmlns:xlink="http://www.w3.org/1999/xlink" x="0px" y="0px"
	 viewBox="0 0 1440 439" style="enable-background:new 0 0 1440 439;" xml:space="preserve">
<style type="text/css">
	.st0{fill:#FDA04B;}
	.st1{opacity:0.15;}
	.st2{fill:#FFFFFF;}
</style>
<path class="st0" d="M0,0c470.1,115.4,961,116.1,1431.4,2.1L1440,0v439l-8.6-2.1C961.1,322.1,470,322.8,0,439V0z"/>
<g class="st1">
	<path class="st2" d="M849.6,254.5c1.5-2.3,2.1-4.9,3.1-7.5c0.9-2.4,1.7-2,3.1-0.3c9.9,12.8,17,26.9,20.9,42.5
		c1.7,6.9,2.8,13.9,3.7,21.1c4.6-4.7,12.4-35.6,12.5-56.7c0.2-19.9-3.1-39-9.9-57.5c-21.5-57.9-73.2-91.5-111.1-99.6
		c2,4.6,4.3,8.7,5.7,13.1c8.7,27.5,1.7,47.7-22.2,64.9c-16.5,11.9-35,19.9-53.9,27c-3.1,1.2-6.1,2.3-9.2,3.4
		c-2.8,1.1-5.5,1.8-8.4,1.8c-3.2,0-6.6,0.5-8.3,3.5c-1.7,3.4,0.9,5.8,2.9,8.1c15.9,19.1,36.8,29.5,61.3,33.9
		c8.9,1.7,17.7,2.8,26.7,3.1c3.8,0.2,4.1,0.6,3.1,4.3c-6.4,22.6-22,36.1-44.8,42.2c-18.3,4.9-36.7,3.4-54.9-0.6
		c-9.5-2.1-18.8-5-28.6-5c-12.5,0.2-24,3.1-33.3,11.8c-1.2,1.2-2.1,1.8-3.1-0.5c-7.6-19.1-11.6-38.5-4-58.7
		c5-13.1,14.4-23.2,25.5-31.6c16.7-12.4,35.6-20.6,54.6-28.9c18-7.8,36.4-15.1,53.2-25.5c27.2-16.8,35.9-44.2,26.6-73
		c-6.1-18.9-17.4-34.4-33-47.1c-3.1-2.6-3.5-2.4-4.7,1.4c-5,16.4-16.2,28.1-30,38.2c-12.2,9-26.1,15.4-39.1,23.2
		c-26.1,15.6-49.7,33.9-67.2,58.7c-17.3,24.5-25.8,51.5-26.7,81.1c-0.6,20.9,2.4,41.3,10.1,60.8c17,43.4,47.2,74.7,90.9,93.5
		c8.6,3.7,17.3,6.9,26.4,8.9c32.2,6.7,64,7,94-9c18.3-9.9,31.5-24.6,39.1-43.4c12.4-30.4,11.8-60.7-4.6-89.9
		c-3.5-6.1-8.1-11.5-13.1-16.5c-2.1-2.3-4.9-2.4-7.6-2.4c-12.7-0.3-25.2-0.9-37.9-2.3c-20.5-2.1-40-6.7-56.8-18.9
		c-2-1.4-5.8-3.1-5-4.9c0.8-2.1,4.3-0.3,6.6,0c20.3,2.4,40.5,0.5,60.8-0.5c14.4-0.6,28.4-0.3,41.7,5.8c2,0.9,3.4,0.8,3.1-1.8
		c0-0.3,0-0.8,0-1.1c0.2-2.1-1.2-5.2,0.3-6.1c2.1-1.1,4.3,1.4,6.3,2.6c13.8,8.1,25.2,18.5,33.5,31.9c0.5,0.8,0.9,1.4,1.4,2
		C849,254.4,849.2,254.5,849.6,254.5z M682,105.3c-0.2-0.3-0.2-0.6-0.3-0.9c3.5-2,7-4,10.5-6.1c15-8.9,28.7-19.1,36.7-34.8
		c1.1-2.1,2-1.5,3.2-0.2c13.3,15.1,20.9,32.4,18.6,52.6c-1.1,10.2-5.8,19.1-13.8,26.1c-0.6,0.6-1.2,1.8-2.3,1.2
		c-0.9-0.5-0.5-1.7-0.5-2.6C738.9,99.3,692.7,106.3,682,105.3z M802.6,175.7c-6,13.6-26.3,17.3-34.5,10.8
		C778.7,180.6,790,177.1,802.6,175.7z"/>
</g>
</svg>
