<?xml version="1.0" encoding="utf-8"?>
<!-- Generator: Adobe Illustrator 23.0.2, SVG Export Plug-In . SVG Version: 6.00 Build 0)  -->
<svg version="1.1" id="Слой_1" xmlns="http://www.w3.org/2000/svg" xmlns:xlink="http://www.w3.org/1999/xlink" x="0px" y="0px"
	 viewBox="0 0 750 433" style="enable-background:new 0 0 750 433;" xml:space="preserve">
<style type="text/css">
	.st0{fill:#FDA04B;}
	.st1{opacity:0.15;}
	.st2{fill:#FFFFFF;}
</style>
<g>
	<path class="st0" d="M0,0c236.4,109.9,509.1,110.5,746.1,1.8L750,0v433l-3.9-1.8C509.3,321.7,236.3,322.4,0,433V0z"/>
	<g id="Group" class="st1">
		<path id="Vector" class="st2" d="M439.4,230.9c0.8-1.2,1.1-2.5,1.6-3.9c0.5-1.3,0.9-1,1.6-0.2c5.2,6.7,8.8,14,10.9,22.1
			c0.9,3.6,1.4,7.2,1.9,11c2.4-2.5,6.4-18.5,6.5-29.5c0.1-10.3-1.6-20.3-5.2-29.9c-11.2-30.2-38.1-47.7-57.9-51.9
			c1,2.4,2.2,4.5,2.9,6.8c4.5,14.3,0.9,24.8-11.5,33.8c-8.6,6.2-18.2,10.3-28.1,14.1c-1.6,0.6-3.2,1.2-4.8,1.8c-1.4,0.6-2.9,1-4.4,1
			c-1.7,0-3.4,0.2-4.3,1.8c-0.9,1.8,0.5,3,1.5,4.2c8.3,9.9,19.2,15.4,31.9,17.7c4.6,0.9,9.2,1.4,13.9,1.6c2,0.1,2.1,0.3,1.6,2.2
			c-3.3,11.8-11.5,18.8-23.3,22c-9.6,2.5-19.1,1.8-28.6-0.3c-4.9-1.1-9.8-2.6-14.9-2.6c-6.5,0.1-12.5,1.6-17.4,6.1
			c-0.6,0.6-1.1,1-1.6-0.2c-4-9.9-6-20.1-2.1-30.6c2.6-6.8,7.5-12.1,13.3-16.5c8.7-6.4,18.5-10.7,28.4-15
			c9.4-4.1,18.9-7.9,27.7-13.3c14.2-8.8,18.7-23,13.8-38c-3.2-9.9-9.1-17.9-17.2-24.5c-1.6-1.4-1.8-1.3-2.5,0.7
			c-2.6,8.5-8.4,14.6-15.6,19.9c-6.4,4.7-13.6,8-20.4,12.1c-13.6,8.1-25.9,17.7-35,30.6c-9,12.7-13.5,26.8-13.9,42.3
			c-0.3,10.9,1.3,21.5,5.3,31.7c8.8,22.6,24.6,38.9,47.4,48.7c4.5,1.9,9,3.6,13.8,4.6c16.8,3.5,33.3,3.7,48.9-4.7
			c9.6-5.2,16.4-12.8,20.4-22.6c6.4-15.8,6.1-31.6-2.4-46.8c-1.8-3.2-4.2-6-6.8-8.6c-1.1-1.2-2.5-1.3-4-1.3
			c-6.6-0.2-13.1-0.5-19.7-1.2c-10.7-1.1-20.9-3.5-29.6-9.9c-1-0.7-3-1.6-2.6-2.5c0.4-1.1,2.2-0.2,3.4,0c10.6,1.3,21.1,0.2,31.7-0.2
			c7.5-0.3,14.8-0.2,21.7,3c1,0.5,1.8,0.4,1.6-1c0-0.2,0-0.4,0-0.6c0.1-1.1-0.6-2.7,0.2-3.2c1.1-0.6,2.2,0.7,3.3,1.4
			c7.2,4.2,13.1,9.6,17.4,16.6c0.2,0.4,0.5,0.7,0.7,1C439.1,230.8,439.2,230.9,439.4,230.9z M352.1,153.2c-0.1-0.2-0.1-0.3-0.2-0.5
			c1.8-1,3.7-2.1,5.5-3.2c7.8-4.6,15-9.9,19.1-18.1c0.6-1.1,1-0.8,1.7-0.1c6.9,7.9,10.9,16.9,9.7,27.4c-0.6,5.3-3,9.9-7.2,13.6
			c-0.3,0.3-0.6,1-1.2,0.6c-0.5-0.2-0.2-0.9-0.2-1.4C381.7,150.1,357.7,153.7,352.1,153.2z M414.9,189.9c-3.1,7.1-13.7,9-18,5.7
			C402.5,192.4,408.4,190.6,414.9,189.9z"/>
	</g>
</g>
</svg>
