<svg id="Слой_1" data-name="Слой 1" xmlns="http://www.w3.org/2000/svg" viewBox="0 0 750 433"><title>bg_mob_opt</title><path d="M0,0A889.65,889.65,0,0,0,746.09,1.79L750,0V433l-3.9-1.8A884.17,884.17,0,0,0,0,433Z" fill="#fda04b"/><g id="Group" opacity="0.15"><path id="Vector" d="M439.4,230.93A16.64,16.64,0,0,0,441,227c.48-1.27.88-1,1.59-.16A59.9,59.9,0,0,1,453.49,249a101.25,101.25,0,0,1,1.91,11c2.38-2.47,6.44-18.55,6.52-29.53a83.11,83.11,0,0,0-5.17-29.92c-11.22-30.17-38.12-47.68-57.86-51.89a69.39,69.39,0,0,1,2.94,6.84c4.54,14.33.88,24.83-11.54,33.82-8.59,6.21-18.22,10.35-28.09,14.09-1.59.64-3.18,1.2-4.78,1.75a11.93,11.93,0,0,1-4.37,1c-1.67,0-3.42.24-4.3,1.83-.87,1.75.48,3,1.51,4.22,8.28,9.94,19.18,15.36,31.92,17.66a90.47,90.47,0,0,0,13.92,1.6c2,.08,2.15.31,1.6,2.22-3.35,11.78-11.47,18.79-23.32,22-9.55,2.55-19.1,1.75-28.58-.32-4.93-1.11-9.78-2.62-14.88-2.62-6.52.08-12.49,1.59-17.35,6.12-.63.64-1.11,1-1.59-.23-4-10-6.05-20.06-2.07-30.57,2.63-6.84,7.48-12.09,13.29-16.47,8.68-6.45,18.55-10.75,28.41-15,9.4-4.06,18.95-7.88,27.7-13.29,14.17-8.76,18.7-23,13.85-38.05A51.6,51.6,0,0,0,376,120.62c-1.59-1.35-1.83-1.27-2.47.72-2.62,8.51-8.43,14.64-15.6,19.89-6.36,4.7-13.61,8-20.37,12.1-13.61,8.12-25.87,17.67-35,30.56a75.6,75.6,0,0,0-13.93,42.26,79.83,79.83,0,0,0,5.25,31.68c8.84,22.6,24.6,38.92,47.36,48.71A75.26,75.26,0,0,0,355,311.15c16.79,3.5,33.34,3.66,48.94-4.69a44.11,44.11,0,0,0,20.38-22.61c6.44-15.83,6.13-31.59-2.39-46.79a41.81,41.81,0,0,0-6.84-8.6c-1.12-1.19-2.55-1.27-4-1.27-6.61-.16-13.14-.48-19.74-1.2-10.67-1.11-20.85-3.5-29.61-9.86-1-.72-3-1.6-2.62-2.55.39-1.12,2.23-.16,3.42,0,10.58,1.27,21.09.24,31.67-.24,7.48-.32,14.81-.16,21.73,3,1,.48,1.75.4,1.59-1v-.56c.08-1.11-.63-2.7.16-3.18,1.12-.56,2.23.71,3.26,1.35a49.12,49.12,0,0,1,17.43,16.63,11.7,11.7,0,0,0,.72,1C439.08,230.85,439.16,230.93,439.4,230.93Zm-87.31-77.76c-.08-.16-.08-.32-.16-.47,1.83-1,3.66-2.07,5.49-3.19,7.8-4.61,15-9.95,19.11-18.14.55-1.12,1-.8,1.67-.08,6.92,7.87,10.9,16.87,9.71,27.37a20.71,20.71,0,0,1-7.17,13.61c-.31.32-.63,1-1.19.64s-.24-.88-.24-1.35C381.7,150.07,357.66,153.73,352.09,153.17Zm62.8,36.69c-3.11,7.09-13.69,9-18,5.65A46.8,46.8,0,0,1,414.89,189.86Z" fill="#fff"/></g></svg>