<svg viewBox="0 0 750 433" fill="none" xmlns="http://www.w3.org/2000/svg">
<g id="Mask Group">
<mask id="mask0" mask-type="alpha" maskUnits="userSpaceOnUse" x="0" y="0" width="750" height="433">
<path id="Rectangle 5" d="M0 0C238.095 109.111 511.905 109.111 750 0V433C512.443 321.453 237.557 321.453 0 433V0Z" fill="#002987"/>
</mask>
<g mask="url(#mask0)">
<path id="Rectangle 6" d="M0 0C236.422 109.889 509.146 110.544 746.093 1.793L750 0V433L746.103 431.198C509.315 321.703 236.257 322.362 0 433V0Z" fill="#FDA04B"/>
<g id="Group" opacity="0.15">
<path id="Vector" d="M439.399 230.929C440.195 229.735 440.513 228.382 440.991 227.029C441.469 225.755 441.866 225.994 442.583 226.87C447.756 233.555 451.417 240.877 453.486 248.995C454.362 252.576 454.919 256.237 455.396 259.978C457.784 257.511 461.843 241.434 461.922 230.451C462.002 220.105 460.331 210.156 456.749 200.526C445.527 170.363 418.627 152.854 398.89 148.636C399.924 151.024 401.118 153.172 401.834 155.48C406.371 169.806 402.71 180.311 390.294 189.305C381.699 195.513 372.069 199.651 362.2 203.392C360.608 204.028 359.017 204.585 357.425 205.143C355.992 205.7 354.56 206.098 353.048 206.098C351.376 206.098 349.625 206.336 348.75 207.928C347.875 209.679 349.228 210.952 350.262 212.146C358.539 222.094 369.443 227.506 382.176 229.814C386.792 230.69 391.408 231.247 396.104 231.406C398.094 231.486 398.253 231.724 397.696 233.635C394.353 245.413 386.235 252.417 374.377 255.6C364.827 258.147 355.276 257.351 345.805 255.282C340.871 254.168 336.016 252.656 330.923 252.656C324.397 252.735 318.428 254.247 313.573 258.784C312.936 259.421 312.459 259.739 311.981 258.545C308.002 248.597 305.932 238.489 309.912 227.984C312.538 221.139 317.393 215.887 323.203 211.509C331.878 205.063 341.746 200.765 351.615 196.468C361.006 192.409 370.557 188.588 379.311 183.177C393.478 174.422 398.014 160.176 393.159 145.134C389.976 135.265 384.087 127.227 375.969 120.621C374.377 119.268 374.138 119.348 373.502 121.338C370.875 129.854 365.065 135.982 357.903 141.234C351.536 145.93 344.293 149.273 337.528 153.332C323.919 161.449 311.663 171 302.51 183.893C293.517 196.627 289.06 210.714 288.582 226.153C288.264 237.057 289.856 247.642 293.835 257.829C302.669 280.432 318.428 296.747 341.189 306.536C345.646 308.446 350.183 310.117 354.958 311.152C371.751 314.654 388.305 314.813 403.904 306.456C413.454 301.283 420.298 293.643 424.278 283.854C430.724 268.016 430.406 252.258 421.89 237.057C420.06 233.873 417.672 231.088 415.046 228.461C413.932 227.268 412.499 227.188 411.066 227.188C404.461 227.029 397.935 226.711 391.329 225.994C380.664 224.88 370.477 222.492 361.723 216.125C360.688 215.409 358.698 214.534 359.096 213.579C359.494 212.464 361.325 213.42 362.519 213.579C373.104 214.852 383.609 213.817 394.194 213.34C401.675 213.022 408.997 213.181 415.921 216.364C416.956 216.842 417.672 216.762 417.513 215.409C417.513 215.25 417.513 215.011 417.513 214.852C417.593 213.738 416.876 212.146 417.672 211.669C418.786 211.112 419.901 212.385 420.935 213.022C428.098 217.24 434.067 222.652 438.365 229.655C438.603 230.053 438.842 230.371 439.081 230.69C439.081 230.849 439.161 230.929 439.399 230.929ZM352.093 153.172C352.013 153.013 352.013 152.854 351.934 152.695C353.764 151.66 355.594 150.626 357.425 149.511C365.224 144.895 372.387 139.563 376.526 131.366C377.083 130.251 377.56 130.57 378.197 131.286C385.121 139.165 389.1 148.158 387.907 158.664C387.35 163.996 384.882 168.612 380.744 172.273C380.426 172.592 380.107 173.228 379.55 172.91C379.073 172.671 379.311 172.034 379.311 171.557C381.699 150.069 357.664 153.73 352.093 153.172ZM414.887 189.862C411.783 196.945 401.198 198.855 396.9 195.513C402.471 192.409 408.36 190.578 414.887 189.862Z" fill="white"/>
</g>
</g>
</g>
</svg>
