<?xml version="1.0" encoding="utf-8"?>
<!-- Generator: Adobe Illustrator 23.0.2, SVG Export Plug-In . SVG Version: 6.00 Build 0)  -->
<svg version="1.1" id="Слой_1" xmlns="http://www.w3.org/2000/svg" xmlns:xlink="http://www.w3.org/1999/xlink" x="0px" y="0px"
	 viewBox="0 0 30 30" style="enable-background:new 0 0 30 30;" xml:space="preserve">
<style type="text/css">
	.st0{fill:#FDA04B;}
	.st1{fill:#FFFFFF;}
</style>
<g>
	<path class="st0" d="M4,0h22c2.2,0,4,1.8,4,4v22c0,2.2-1.8,4-4,4H4c-2.2,0-4-1.8-4-4V4C0,1.8,1.8,0,4,0z"/>
	<path class="st1" d="M20.5,11h-3.4v0.8h3.4c0.5,0,0.9,0.4,0.9,0.9v10.4c0,0.5-0.4,0.9-0.9,0.9H9C8.5,24,8,23.6,8,23.1V12.7
		c0-0.5,0.4-0.9,0.9-0.9h3.2V11H9c-1,0-1.7,0.8-1.7,1.7v10.4c0,1,0.8,1.7,1.7,1.7h11.6c1,0,1.7-0.8,1.7-1.7V12.7
		C22.2,11.8,21.5,11,20.5,11z M14.3,6.7v11.2h0.8V6.7l1.7,1.7l0.6-0.6l-2.7-2.7L12,7.9l0.6,0.6L14.3,6.7z"/>
</g>
</svg>
