<svg width="208" height="89" viewBox="0 0 208 89" fill="none" xmlns="http://www.w3.org/2000/svg">
<path d="M208 45L0 45L3.49691e-06 5C3.73832e-06 2.23858 2.23859 1.08525e-06 5 1.32666e-06L203 1.86364e-05C205.761 1.88778e-05 208 2.23859 208 5.00002L208 45Z" fill="white"/>
<path d="M25.6718 20.8928H14.3955V25.6171H25.4394V32.7887H14.3955V42.7329H6.35645V18.6159C6.35645 15.9052 8.55595 13.7212 11.2511 13.7212H25.6563V20.8928H25.6718Z" fill="#0D201C"/>
<path d="M89.1782 42.7329H80.1943L75.2532 35.0192L70.3121 42.7329H61.2817L70.7613 27.9405L61.638 13.7212H70.6683L75.2532 20.8928L79.8381 13.7212H88.8684L79.7451 27.9715L89.1782 42.7329Z" fill="#0D201C"/>
<path d="M113.466 13.7212V20.8928H105.69V42.7329H97.6512V20.8928H89.8755V13.7212H113.466Z" fill="#0D201C"/>
<path d="M124.432 35.7627H136.607V42.7329H116.393V13.7212H136.374V20.645H124.432V24.6722H135.259V31.5031H124.432V35.7627Z" fill="#0D201C"/>
<path d="M160.042 42.7329L158.695 38.5507H148.224L146.876 42.7329H138.156L148.534 13.7212H158.323L168.701 42.7329H160.042ZM150.299 32.1536H156.635L153.444 22.3023L150.299 32.1536Z" fill="#0D201C"/>
<path d="M203.071 17.8569V42.7329H195.079V27.1041L187.443 38.7521H186.637L179.047 27.1505V42.7329H171.008V13.7212H179.047L187.04 26.1127L195.079 13.7212H198.936C201.213 13.7212 203.071 15.5644 203.071 17.8569Z" fill="#0D201C"/>
<path d="M78.3208 64.8827C77.1436 64.8827 76.1678 65.2544 75.3933 65.9979C74.6188 66.7414 74.2471 67.6863 74.2471 68.8325C74.2471 69.9942 74.6343 70.9545 75.3933 71.698C76.1523 72.4415 77.1436 72.8133 78.3208 72.8133C79.498 72.8133 80.4738 72.4415 81.2483 71.698C82.0073 70.9545 82.3945 69.9942 82.3945 68.8325C82.3945 67.6863 82.0073 66.7414 81.2483 65.9979C80.4738 65.2544 79.498 64.8827 78.3208 64.8827Z" fill="#FF6F00"/>
<path d="M19.1663 64.9602C18.0046 64.9602 17.0287 65.3474 16.2698 66.1064C15.4953 66.8809 15.1235 67.8567 15.1235 69.0649C15.1235 70.2731 15.5108 71.2489 16.2698 72.0234C17.0287 72.7979 18.0046 73.1696 19.1663 73.1696C20.328 73.1696 21.2883 72.7824 22.0473 72.0234C22.8063 71.2644 23.178 70.2731 23.178 69.0649C23.178 67.8567 22.8063 66.8809 22.0473 66.1064C21.2883 65.3474 20.328 64.9602 19.1663 64.9602Z" fill="#FF6F00"/>
<path d="M164.736 64.9602C163.574 64.9602 162.614 65.3474 161.855 66.1064C161.096 66.8809 160.724 67.8567 160.724 69.0649C160.724 70.2731 161.096 71.2489 161.855 72.0234C162.614 72.7979 163.574 73.1696 164.736 73.1696C165.898 73.1696 166.873 72.7824 167.632 72.0234C168.391 71.2644 168.779 70.2731 168.779 69.0649C168.779 67.8567 168.391 66.8809 167.632 66.1064C166.873 65.3474 165.898 64.9602 164.736 64.9602Z" fill="#FF6F00"/>
<path d="M6 48.9595V82.0139C6 85.4061 8.74163 88.1477 12.1338 88.1477H196.055C199.448 88.1477 202.189 85.4061 202.189 82.0139V48.9595H6ZM26.9417 76.3603H23.1778V74.6409C22.078 76.066 20.4981 76.763 18.4535 76.763C16.4863 76.763 14.8135 76.0195 13.4349 74.5325C12.0409 73.0455 11.3593 71.2333 11.3593 69.0648C11.3593 66.9117 12.0564 65.084 13.4349 63.597C14.829 62.11 16.5018 61.3665 18.4535 61.3665C20.4981 61.3665 22.0625 62.079 23.1778 63.4886V55.9452H26.9417V76.3603ZM50.9658 76.3603H47.2019V61.8002H50.9658V76.3603ZM50.718 59.3529C50.2688 59.8021 49.7112 60.0344 49.0761 60.0344C48.4565 60.0344 47.9144 59.8021 47.4652 59.3529C47.016 58.9037 46.7837 58.3616 46.7837 57.742C46.7837 57.1224 47.016 56.5803 47.4652 56.1156C47.9144 55.6509 48.4565 55.4186 49.0761 55.4186C49.7112 55.4186 50.2688 55.6509 50.718 56.1156C51.1672 56.5803 51.3995 57.1224 51.3995 57.742C51.415 58.3616 51.1827 58.9037 50.718 59.3529ZM86.0649 75.6633C86.0649 77.9092 85.3214 79.6285 83.8344 80.8212C82.3474 81.9984 80.5506 82.6025 78.4596 82.6025C76.8796 82.6025 75.5011 82.3082 74.3084 81.7041C73.1157 81.1 72.2018 80.2171 71.5513 79.0554L74.7576 77.2277C75.5011 78.5908 76.7712 79.2723 78.568 79.2723C79.7452 79.2723 80.69 78.9625 81.3716 78.3429C82.0531 77.7233 82.3939 76.8405 82.3939 75.6942V74.1143C81.2941 75.5858 79.7297 76.3293 77.7316 76.3293C75.6715 76.3293 73.9521 75.6013 72.5581 74.1608C71.164 72.7203 70.4825 70.9545 70.4825 68.8789C70.4825 66.8188 71.1795 65.0685 72.5736 63.6125C73.9676 62.1565 75.687 61.4285 77.7316 61.4285C79.7297 61.4285 81.2786 62.172 82.3939 63.6435V61.8312H86.0649V75.6633ZM110.074 76.3603H106.31V61.8002H110.074V76.3603ZM109.826 59.3529C109.376 59.8021 108.819 60.0344 108.184 60.0344C107.564 60.0344 107.022 59.8021 106.573 59.3529C106.124 58.9037 105.891 58.3616 105.891 57.742C105.891 57.1224 106.124 56.5803 106.573 56.1156C107.022 55.6509 107.564 55.4186 108.184 55.4186C108.819 55.4186 109.376 55.6509 109.826 56.1156C110.275 56.5803 110.507 57.1224 110.507 57.742C110.507 58.3616 110.275 58.9037 109.826 59.3529ZM138.667 65.4092H135.368V71.4656C135.368 71.9768 135.492 72.333 135.739 72.5654C135.987 72.7977 136.359 72.9216 136.839 72.9526C137.319 72.9836 137.924 72.9836 138.652 72.9371V76.3448C136.065 76.6391 134.253 76.3913 133.184 75.6168C132.13 74.8423 131.604 73.4483 131.604 71.4501V65.3938H129.064V61.7847H131.619V58.8417L135.383 57.711V61.7847H138.682V65.4092H138.667ZM172.542 76.3603H168.794V74.6409C167.663 76.066 166.083 76.763 164.054 76.763C162.118 76.763 160.445 76.0195 159.051 74.5325C157.657 73.0455 156.976 71.2333 156.976 69.0648C156.976 66.9117 157.673 65.084 159.051 63.597C160.445 62.11 162.103 61.3665 164.054 61.3665C166.099 61.3665 167.679 62.079 168.794 63.4886V61.7692H172.558V76.3603H172.542ZM195.823 76.3603H192.059V55.0933H195.823V76.3603Z" fill="#FF6F00"/>
<path d="M57.2542 27.6461C57.4091 27.4137 57.4711 27.1504 57.564 26.8871C57.6569 26.6393 57.7344 26.6857 57.8738 26.8561C58.8806 28.1572 59.5931 29.5823 59.9958 31.1622C60.1662 31.8592 60.2747 32.5717 60.3676 33.2997C60.8323 32.8196 61.6222 29.6907 61.6377 27.5532C61.6532 25.5395 61.3279 23.6033 60.6309 21.7291C58.4469 15.8586 53.2115 12.451 49.3701 11.63C49.5715 12.0947 49.8038 12.5129 49.9432 12.9621C50.8261 15.7502 50.1136 17.7948 47.6972 19.5451C46.0244 20.7533 44.1502 21.5587 42.2295 22.2867C41.9197 22.4107 41.6099 22.5191 41.3001 22.6275C41.0213 22.7359 40.7425 22.8134 40.4482 22.8134C40.1229 22.8134 39.7821 22.8599 39.6117 23.1696C39.4414 23.5104 39.7047 23.7582 39.906 23.9906C41.5169 25.9268 43.639 26.98 46.1173 27.4292C47.0157 27.5996 47.9141 27.708 48.828 27.739C49.2152 27.7545 49.2462 27.801 49.1377 28.1727C48.4872 30.4652 46.9073 31.8282 44.5993 32.4478C42.7406 32.9435 40.8819 32.7886 39.0386 32.3859C38.0783 32.169 37.1334 31.8747 36.1421 31.8747C34.872 31.8902 33.7103 32.1845 32.7654 33.0674C32.6415 33.1913 32.5486 33.2533 32.4556 33.0209C31.6812 31.0847 31.2784 29.1176 32.0529 27.073C32.5641 25.7409 33.5089 24.7186 34.6396 23.8667C36.328 22.612 38.2487 21.7756 40.1694 20.9392C41.9971 20.1492 43.8559 19.4057 45.5597 18.3524C48.3168 16.6486 49.1997 13.876 48.2548 10.9485C47.6353 9.02779 46.4891 7.46336 44.9091 6.17773C44.5993 5.91441 44.5529 5.9299 44.429 6.31714C43.9178 7.97451 42.7871 9.16719 41.393 10.1895C40.1539 11.1034 38.7443 11.7539 37.4277 12.5439C34.779 14.1238 32.3937 15.9825 30.6124 18.4918C28.8621 20.9701 27.9947 23.7118 27.9017 26.7167C27.8398 28.8388 28.1496 30.8989 28.924 32.8815C30.6434 37.2805 33.7103 40.4558 38.1403 42.361C39.0077 42.7328 39.8906 43.0581 40.8199 43.2594C44.0882 43.941 47.31 43.9719 50.3459 42.3456C52.2047 41.3387 53.5367 39.8518 54.3112 37.9466C55.5659 34.8642 55.5039 31.7973 53.8465 28.8388C53.4903 28.2192 53.0256 27.6771 52.5144 27.1659C52.2976 26.9336 52.0188 26.9181 51.74 26.9181C50.4543 26.8871 49.1842 26.8251 47.8986 26.6857C45.823 26.4689 43.8404 26.0042 42.1365 24.7651C41.9352 24.6256 41.5479 24.4553 41.6254 24.2694C41.7028 24.0525 42.0591 24.2384 42.2914 24.2694C44.3515 24.5172 46.3961 24.3159 48.4562 24.2229C49.9122 24.161 51.3372 24.1919 52.6848 24.8115C52.8862 24.9045 53.0256 24.889 52.9946 24.6256C52.9946 24.5947 52.9946 24.5482 52.9946 24.5172C53.0101 24.3004 52.8707 23.9906 53.0256 23.8976C53.2424 23.7892 53.4593 24.037 53.6607 24.161C55.0547 24.9819 56.2164 26.0352 57.0529 27.3983C57.0993 27.4757 57.1458 27.5377 57.1923 27.5996C57.1923 27.6306 57.2077 27.6461 57.2542 27.6461ZM40.2623 12.5129C40.2468 12.4819 40.2468 12.451 40.2313 12.42C40.5876 12.2186 40.9438 12.0172 41.3001 11.8004C42.8181 10.902 44.2121 9.86422 45.0176 8.26881C45.126 8.05195 45.2189 8.11391 45.3428 8.25332C46.6904 9.78677 47.4649 11.5371 47.2326 13.5817C47.1241 14.6195 46.644 15.5179 45.8385 16.2304C45.7765 16.2923 45.7146 16.4162 45.6062 16.3543C45.5132 16.3078 45.5597 16.1839 45.5597 16.091C46.0244 11.9088 41.3466 12.6213 40.2623 12.5129ZM52.4835 19.6535C51.8794 21.0321 49.8193 21.4038 48.9829 20.7533C50.0671 20.1492 51.2133 19.7929 52.4835 19.6535Z" fill="#0D201C"/>
</svg>
