<svg width="260" height="110" viewBox="0 0 260 110" fill="none" xmlns="http://www.w3.org/2000/svg">
<path d="M259.608 56.0803L0.392731 56.0803L0.392735 5C0.392735 2.23858 2.63129 8.05193e-06 5.39272 8.29334e-06L254.608 3.00805e-05C257.37 3.03219e-05 259.608 2.23861 259.608 5.00003L259.608 56.0803Z" fill="white"/>
<path d="M32.3858 26.0373H18.3329V31.9249H32.0962V40.8623H18.3329V53.2551H8.31445V23.1997C8.31445 19.8216 11.0555 17.0999 14.4143 17.0999H32.3665V26.0373H32.3858Z" fill="#0D201C"/>
<path d="M111.528 53.2551H100.332L94.1744 43.642L88.0166 53.2551H76.7627L88.5764 34.8204L77.2067 17.0999H88.4605L94.1744 26.0373L99.8882 17.0999H111.142L99.7723 34.859L111.528 53.2551Z" fill="#0D201C"/>
<path d="M141.797 17.0999V26.0373H132.107V53.2551H122.089V26.0373H112.398V17.0999H141.797Z" fill="#0D201C"/>
<path d="M155.463 44.5686H170.635V53.2551H145.444V17.0999H170.346V25.7285H155.463V30.7473H168.956V39.2601H155.463V44.5686Z" fill="#0D201C"/>
<path d="M199.841 53.2551L198.162 48.0432H185.113L183.433 53.2551H172.565L185.499 17.0999H197.698L210.632 53.2551H199.841ZM187.699 40.0709H195.594L191.618 27.7939L187.699 40.0709Z" fill="#0D201C"/>
<path d="M253.467 22.2539V53.2551H243.506V33.778L233.99 48.2941H232.986L223.527 33.8359V53.2551H213.509V17.0999H223.527L233.488 32.5426L243.506 17.0999H248.313C251.15 17.0999 253.467 19.397 253.467 22.2539Z" fill="#0D201C"/>
<path d="M97.9987 80.8589C96.5316 80.8589 95.3155 81.3222 94.3503 82.2487C93.3852 83.1753 92.9219 84.3528 92.9219 85.7812C92.9219 87.229 93.4045 88.4258 94.3503 89.3524C95.2962 90.2789 96.5316 90.7422 97.9987 90.7422C99.4657 90.7422 100.682 90.2789 101.647 89.3524C102.593 88.4258 103.075 87.229 103.075 85.7812C103.075 84.3528 102.593 83.1753 101.647 82.2487C100.682 81.3222 99.4657 80.8589 97.9987 80.8589Z" fill="white"/>
<path d="M24.2784 80.9553C22.8307 80.9553 21.6146 81.4379 20.6687 82.3838C19.7035 83.3489 19.2402 84.5651 19.2402 86.0707C19.2402 87.5764 19.7228 88.7925 20.6687 89.7577C21.6146 90.7228 22.8307 91.1861 24.2784 91.1861C25.7262 91.1861 26.923 90.7035 27.8688 89.7577C28.8147 88.8118 29.278 87.5764 29.278 86.0707C29.278 84.5651 28.8147 83.3489 27.8688 82.3838C26.923 81.4379 25.7262 80.9553 24.2784 80.9553Z" fill="white"/>
<path d="M205.691 80.9553C204.243 80.9553 203.046 81.4379 202.101 82.3838C201.155 83.3489 200.691 84.5651 200.691 86.0707C200.691 87.5764 201.155 88.7925 202.101 89.7577C203.046 90.7228 204.243 91.1861 205.691 91.1861C207.139 91.1861 208.355 90.7035 209.301 89.7577C210.247 88.8118 210.729 87.5764 210.729 86.0707C210.729 84.5651 210.247 83.3489 209.301 82.3838C208.355 81.4379 207.139 80.9553 205.691 80.9553Z" fill="white"/>
<path d="M7.87012 61.0146V102.208C7.87012 106.436 11.2868 109.852 15.5143 109.852H244.723C248.95 109.852 252.367 106.436 252.367 102.208V61.0146H7.87012ZM33.9683 95.1623H29.2776V93.0197C27.907 94.7956 25.9381 95.6642 23.39 95.6642C20.9385 95.6642 18.8537 94.7377 17.1357 92.8845C15.3984 91.0314 14.5491 88.7729 14.5491 86.0704C14.5491 83.3873 15.4177 81.1095 17.1357 79.2563C18.873 77.4032 20.9578 76.4767 23.39 76.4767C25.9381 76.4767 27.8877 77.3646 29.2776 79.1212V69.7205H33.9683V95.1623ZM63.9078 95.1623H59.2171V77.0172H63.9078V95.1623ZM63.599 73.9672C63.0392 74.527 62.3443 74.8166 61.5528 74.8166C60.7807 74.8166 60.1051 74.527 59.5453 73.9672C58.9855 73.4074 58.6959 72.7318 58.6959 71.9597C58.6959 71.1875 58.9855 70.5119 59.5453 69.9328C60.1051 69.3537 60.7807 69.0642 61.5528 69.0642C62.3443 69.0642 63.0392 69.3537 63.599 69.9328C64.1588 70.5119 64.4483 71.1875 64.4483 71.9597C64.4676 72.7318 64.1781 73.4074 63.599 73.9672ZM107.649 94.2937C107.649 97.0927 106.723 99.2353 104.87 100.722C103.017 102.189 100.777 102.942 98.1713 102.942C96.2024 102.942 94.4844 102.575 92.998 101.822C91.5117 101.069 90.3728 99.9689 89.562 98.5211L93.5578 96.2433C94.4844 97.942 96.0673 98.7914 98.3065 98.7914C99.7735 98.7914 100.951 98.4053 101.8 97.6332C102.65 96.861 103.074 95.7607 103.074 94.3323V92.3633C101.704 94.1972 99.7542 95.1237 97.2641 95.1237C94.6967 95.1237 92.5541 94.2165 90.8168 92.4212C89.0795 90.626 88.2301 88.4255 88.2301 85.8388C88.2301 83.2715 89.0988 81.0902 90.8361 79.2757C92.5734 77.4611 94.716 76.5539 97.2641 76.5539C99.7542 76.5539 101.685 77.4804 103.074 79.3143V77.0558H107.649V94.2937ZM137.57 95.1623H132.879V77.0172H137.57V95.1623ZM137.261 73.9672C136.701 74.527 136.006 74.8166 135.215 74.8166C134.442 74.8166 133.767 74.527 133.207 73.9672C132.647 73.4074 132.358 72.7318 132.358 71.9597C132.358 71.1875 132.647 70.5119 133.207 69.9328C133.767 69.3537 134.442 69.0642 135.215 69.0642C136.006 69.0642 136.701 69.3537 137.261 69.9328C137.82 70.5119 138.11 71.1875 138.11 71.9597C138.11 72.7318 137.82 73.4074 137.261 73.9672ZM173.204 81.5148H169.092V89.0625C169.092 89.6995 169.246 90.1435 169.555 90.433C169.864 90.7226 170.327 90.877 170.926 90.9156C171.524 90.9542 172.277 90.9542 173.184 90.8963V95.143C169.961 95.5098 167.702 95.2009 166.37 94.2358C165.058 93.2706 164.401 91.5333 164.401 89.0432V81.4955H161.236V76.9978H164.421V73.3302L169.111 71.9211V76.9978H173.223V81.5148H173.204ZM215.42 95.1623H210.749V93.0197C209.34 94.7956 207.371 95.6642 204.842 95.6642C202.429 95.6642 200.344 94.7377 198.607 92.8845C196.87 91.0314 196.02 88.7729 196.02 86.0704C196.02 83.3873 196.889 81.1095 198.607 79.2563C200.344 77.4032 202.41 76.4767 204.842 76.4767C207.39 76.4767 209.359 77.3646 210.749 79.1212V76.9785H215.439V95.1623H215.42ZM244.433 95.1623H239.742V68.6588H244.433V95.1623Z" fill="white"/>
<path d="M71.7438 34.4533C71.9368 34.1637 72.014 33.8356 72.1299 33.5074C72.2457 33.1986 72.3422 33.2565 72.5159 33.4688C73.7706 35.0903 74.6586 36.8662 75.1605 38.8351C75.3728 39.7038 75.508 40.5918 75.6238 41.499C76.2029 40.9006 77.1874 37.0013 77.2067 34.3375C77.226 31.828 76.8206 29.4151 75.9519 27.0794C73.2302 19.7634 66.7056 15.5167 61.9184 14.4936C62.1693 15.0727 62.4589 15.5939 62.6326 16.1537C63.7329 19.6283 62.8449 22.1763 59.8336 24.3576C57.7488 25.8633 55.4131 26.8671 53.0195 27.7743C52.6334 27.9287 52.2474 28.0639 51.8613 28.199C51.5138 28.3341 51.1664 28.4306 50.7996 28.4306C50.3943 28.4306 49.9696 28.4885 49.7572 28.8746C49.5449 29.2993 49.8731 29.6081 50.124 29.8977C52.1316 32.3106 54.7761 33.6232 57.8647 34.183C58.9843 34.3954 60.1039 34.5305 61.2428 34.5691C61.7253 34.5884 61.7639 34.6463 61.6288 35.1096C60.8181 37.9665 58.8491 39.6652 55.9729 40.4373C53.6565 41.055 51.3401 40.862 49.043 40.3601C47.8462 40.0899 46.6687 39.7231 45.4333 39.7231C43.8504 39.7424 42.4027 40.1092 41.2251 41.2095C41.0707 41.3639 40.9549 41.4411 40.8391 41.1516C39.8739 38.7386 39.372 36.2871 40.3372 33.7391C40.9742 32.079 42.1517 30.8049 43.5609 29.7433C45.6649 28.1797 48.0585 27.1373 50.4522 26.0949C52.73 25.1104 55.0464 24.1839 57.1697 22.8713C60.6057 20.7479 61.706 17.2926 60.5285 13.6442C59.7564 11.2506 58.3279 9.30097 56.359 7.69879C55.9729 7.37063 55.915 7.38994 55.7606 7.87252C55.1236 9.93798 53.7144 11.4243 51.9771 12.6984C50.4329 13.8373 48.6763 14.648 47.0355 15.6325C43.7346 17.6014 40.7619 19.9178 38.542 23.045C36.3607 26.1335 35.2797 29.5502 35.1639 33.2951C35.0867 35.9396 35.4727 38.507 36.4379 40.9778C38.5806 46.46 42.4027 50.4172 47.9234 52.7915C49.0044 53.2548 50.1047 53.6601 51.2629 53.9111C55.3359 54.7604 59.351 54.799 63.1345 52.7722C65.4509 51.5175 67.111 49.6643 68.0762 47.29C69.6397 43.4487 69.5625 39.6266 67.4971 35.9396C67.0531 35.1675 66.474 34.4919 65.837 33.8549C65.5667 33.5653 65.2192 33.546 64.8718 33.546C63.2696 33.5074 61.6867 33.4302 60.0846 33.2565C57.4979 32.9862 55.0271 32.4071 52.9037 30.8629C52.6528 30.6891 52.1702 30.4768 52.2667 30.2451C52.3632 29.9749 52.8072 30.2065 53.0967 30.2451C55.6641 30.554 58.2121 30.3031 60.7795 30.1872C62.594 30.11 64.3699 30.1486 66.0493 30.9208C66.3002 31.0366 66.474 31.0173 66.4354 30.6891C66.4354 30.6505 66.4354 30.5926 66.4354 30.554C66.4547 30.2838 66.2809 29.8977 66.474 29.7819C66.7442 29.6467 67.0145 29.9556 67.2654 30.11C69.0027 31.1331 70.4505 32.4457 71.4929 34.1444C71.5508 34.2409 71.6087 34.3182 71.6666 34.3954C71.6666 34.434 71.6859 34.4533 71.7438 34.4533ZM50.568 15.5939C50.5487 15.5553 50.5487 15.5167 50.5294 15.4781C50.9734 15.2271 51.4173 14.9762 51.8613 14.7059C53.753 13.5863 55.4903 12.293 56.4941 10.3047C56.6292 10.0345 56.7451 10.1117 56.8995 10.2854C58.5789 12.1965 59.5441 14.3778 59.2545 16.9258C59.1194 18.2191 58.521 19.3387 57.5172 20.2267C57.44 20.3039 57.3628 20.4583 57.2277 20.3811C57.1118 20.3232 57.1697 20.1688 57.1697 20.053C57.7488 14.841 51.9192 15.729 50.568 15.5939ZM65.7984 24.4927C65.0455 26.2107 62.4782 26.674 61.4358 25.8633C62.787 25.1104 64.2155 24.6665 65.7984 24.4927Z" fill="#0D201C"/>
</svg>
