<svg width="36" height="36" viewBox="0 0 36 36" fill="none" xmlns="http://www.w3.org/2000/svg">
<path d="M18 36C27.9411 36 36 27.9411 36 18C36 8.05888 27.9411 0 18 0C8.05888 0 0 8.05888 0 18C0 27.9411 8.05888 36 18 36Z" fill="#FF6F00"/>
<path d="M26.2908 18.3636C26.3999 18.2182 26.4363 18.0363 26.4726 17.8909C26.5454 17.7454 26.5817 17.7454 26.6545 17.8545C27.309 18.6909 27.7454 19.6 27.9999 20.6182C28.109 21.0545 28.1817 21.5272 28.2545 21.9636C28.5454 21.6727 29.0545 19.6727 29.0545 18.2909C29.0545 17.0182 28.8726 15.7818 28.3999 14.5818C27.0181 10.8363 23.6726 8.65451 21.2363 8.14542C21.3454 8.43633 21.5272 8.69088 21.5999 8.98179C22.1454 10.7636 21.709 12.0727 20.1817 13.1636C19.1272 13.9272 17.9272 14.4363 16.6908 14.9091C16.509 14.9818 16.2908 15.0545 16.109 15.1272C15.9272 15.2 15.7454 15.2363 15.5636 15.2363C15.3454 15.2363 15.1272 15.2727 15.0181 15.4545C14.909 15.6727 15.0908 15.8182 15.1999 16C16.2181 17.2363 17.5999 17.8909 19.1636 18.1818C19.7454 18.2909 20.3272 18.3636 20.909 18.3636C21.1636 18.3636 21.1636 18.4 21.0908 18.6545C20.6908 20.1091 19.6726 20.9818 18.1817 21.3818C16.9817 21.7091 15.8181 21.6 14.6181 21.3454C13.9999 21.2 13.4181 21.0182 12.7636 21.0182C11.9999 21.0909 11.2726 21.2727 10.6545 21.8181C10.5817 21.8909 10.509 21.9272 10.4726 21.7818C9.96355 20.5454 9.70901 19.2727 10.2181 18C10.5454 17.1636 11.1272 16.5091 11.8545 15.9636C12.9454 15.1636 14.1454 14.6181 15.3817 14.1091C16.5454 13.6 17.7454 13.1272 18.8363 12.4727C20.5817 11.3818 21.1636 9.63633 20.5454 7.74542C20.1454 6.50906 19.4181 5.52724 18.3999 4.69088C18.1817 4.50906 18.1817 4.54542 18.109 4.7636C17.7817 5.81815 17.0545 6.58179 16.1817 7.23633C15.3817 7.81815 14.509 8.25451 13.6363 8.72724C11.9272 9.74542 10.4363 10.9091 9.27264 12.5091C8.14537 14.0727 7.59992 15.8545 7.52719 17.7454C7.49083 19.0909 7.67264 20.4 8.18173 21.6727C9.27264 24.4727 11.2363 26.5091 14.0726 27.7091C14.6181 27.9636 15.1999 28.1454 15.7817 28.2909C17.8545 28.7272 19.9272 28.7636 21.8545 27.7091C23.0545 27.0545 23.8908 26.1091 24.3999 24.9091C25.1999 22.9454 25.1636 20.9818 24.109 19.0909C23.8908 18.6909 23.5636 18.3636 23.2726 18.0363C23.1272 17.8909 22.9454 17.8909 22.7636 17.8909C21.9636 17.8545 21.1272 17.8181 20.3272 17.7454C19.0181 17.6 17.7454 17.3091 16.6545 16.5091C16.509 16.4 16.2908 16.3272 16.3272 16.1818C16.3636 16.0363 16.6181 16.1454 16.7636 16.1818C18.0726 16.3272 19.3817 16.2182 20.6908 16.1454C21.5999 16.1091 22.5454 16.1091 23.3817 16.5091C23.5272 16.5818 23.5999 16.5454 23.5636 16.4C23.5636 16.3636 23.5636 16.3636 23.5636 16.3272C23.5636 16.1818 23.4908 16 23.5636 15.9272C23.709 15.8545 23.8545 16.0363 23.9636 16.1091C24.8363 16.6181 25.5999 17.3091 26.1454 18.1818C26.1817 18.2182 26.2181 18.2545 26.2181 18.3272C26.2545 18.3636 26.2908 18.3636 26.2908 18.3636ZM15.4545 8.72724C15.4545 8.69088 15.4545 8.69088 15.4181 8.65451C15.6363 8.50906 15.8908 8.39997 16.109 8.25451C17.0908 7.6727 17.9636 7.01815 18.4726 5.99997C18.5454 5.85451 18.6181 5.89088 18.6908 5.99997C19.5636 6.98179 20.0363 8.0727 19.8908 9.41815C19.8181 10.0727 19.5272 10.6545 18.9817 11.1272C18.9454 11.1636 18.909 11.2363 18.8363 11.2C18.7636 11.1636 18.7999 11.0909 18.7999 11.0181C19.1272 8.32724 16.1454 8.79997 15.4545 8.72724ZM23.2726 13.2727C22.8726 14.1454 21.5636 14.4 21.0181 13.9636C21.709 13.6 22.4363 13.3454 23.2726 13.2727Z" fill="white"/>
</svg>
