<svg width="15" height="20" viewBox="0 0 15 20" fill="none" xmlns="http://www.w3.org/2000/svg">
<path d="M13.254 5.82011H9.81481V6.61376H13.254C13.7566 6.61376 14.1799 7.03704 14.1799 7.53968V17.9101C14.1799 18.4127 13.7566 18.836 13.254 18.836H1.71958C1.21693 18.836 0.793651 18.4127 0.793651 17.9101V7.53968C0.793651 7.03704 1.21693 6.61376 1.71958 6.61376H4.89418V5.82011H1.71958C0.767196 5.82011 0 6.5873 0 7.53968V17.9101C0 18.8624 0.767196 19.6296 1.71958 19.6296H13.2804C14.2328 19.6296 15 18.8624 15 17.9101V7.53968C14.9735 6.5873 14.2064 5.82011 13.254 5.82011ZM7.08995 1.50794V12.7249H7.8836V1.50794L9.62963 3.25397L10.1852 2.69841L7.48677 0L4.7619 2.69841L5.31746 3.25397L7.08995 1.50794Z" fill="white"/>
</svg>
