<svg width="464" height="496" fill="none" xmlns="http://www.w3.org/2000/svg"><g clip-path="url(#clip0)"><path d="M463.574 293.528c0 118.08-116.762 201.627-235.197 201.627C109.943 495.155.426 411.886.426 293.528S71.208 47.343 189.642 47.343c118.435 0 273.932 128.105 273.932 246.185z" fill="url(#paint0_linear)"/><path opacity=".02" d="M380.53 185.196c-15.327-8.912-40.407-8.912-55.734 0-15.326 8.911-15.326 23.393 0 32.026 15.327 8.912 40.407 8.912 55.734 0 15.327-8.633 15.327-23.115 0-32.026z" fill="#FBFBFD"/><path opacity=".039" d="M380.252 185.474c-15.048-8.633-39.849-8.633-54.898 0-15.048 8.633-15.048 22.836 0 31.748 15.049 8.633 39.85 8.633 54.898 0 15.048-8.912 15.048-23.115 0-31.748z" fill="#F7F8FB"/><path opacity=".059" d="M352.664 223.349c21.085 0 38.178-9.85 38.178-22.001 0-12.151-17.093-22.001-38.178-22.001-21.085 0-38.178 9.85-38.178 22.001 0 12.151 17.093 22.001 38.178 22.001z" fill="#F2F4FA"/><path opacity=".078" d="M379.137 186.031c-14.491-8.355-38.456-8.355-52.947 0s-14.491 22.279 0 30.634 38.456 8.355 52.947 0c14.769-8.633 14.769-22.279 0-30.634z" fill="#EEF0F8"/><path opacity=".098" d="M352.664 222.513c20.315 0 36.784-9.476 36.784-21.165 0-11.689-16.469-21.165-36.784-21.165-20.316 0-36.785 9.476-36.785 21.165 0 11.689 16.469 21.165 36.785 21.165z" fill="#EAECF6"/><path opacity=".118" d="M378.301 186.588c-14.212-8.076-37.063-8.076-51.275 0-14.212 8.076-14.212 21.444 0 29.52s37.063 8.076 51.275 0c14.212-8.076 14.212-21.444 0-29.52z" fill="#E6E9F4"/><path opacity=".137" d="M378.022 186.866c-13.933-8.076-36.506-8.076-50.439 0-13.934 8.077-13.934 21.166 0 28.963 13.933 8.077 36.506 8.077 50.439 0 13.655-8.076 13.655-21.165 0-28.963z" fill="#E1E5F2"/><path opacity=".157" d="M352.663 221.399c19.238 0 34.834-8.977 34.834-20.051 0-11.074-15.596-20.051-34.834-20.051-19.238 0-34.833 8.977-34.833 20.051 0 11.074 15.595 20.051 34.833 20.051z" fill="#DDE1F0"/><path opacity=".176" d="M376.908 187.145c-13.376-7.798-35.113-7.798-48.489 0-13.376 7.798-13.376 20.33 0 28.127 13.376 7.798 35.113 7.798 48.489 0 13.376-7.797 13.376-20.329 0-28.127z" fill="#D9DEEF"/><path opacity=".196" d="M376.629 187.423c-13.098-7.519-34.555-7.519-47.653 0-13.097 7.52-13.097 20.052 0 27.571 13.098 7.519 34.555 7.519 47.653 0 13.097-7.519 13.097-19.773 0-27.571z" fill="#D5DAED"/><path opacity=".216" d="M376.072 187.702c-12.819-7.519-33.998-7.519-46.816 0-12.819 7.519-12.819 19.494 0 27.013 12.818 7.52 33.997 7.52 46.816 0 12.819-7.519 12.819-19.494 0-27.013z" fill="#D1D6EB"/><path opacity=".235" d="M375.515 187.98c-12.54-7.24-33.162-7.24-45.702 0-12.54 7.241-12.54 19.216 0 26.457s33.162 7.241 45.702 0c12.818-7.241 12.818-19.216 0-26.457z" fill="#CCD3E9"/><path opacity=".255" d="M375.236 188.259c-12.262-7.241-32.605-7.241-44.866 0-12.262 7.241-12.262 18.937 0 25.899 12.261 7.241 32.604 7.241 44.866 0 12.261-6.962 12.261-18.658 0-25.899z" fill="#C8CFE7"/><path opacity=".275" d="M374.678 188.537c-11.983-6.962-32.047-6.962-44.03 0-11.983 6.963-11.983 18.381 0 25.343s32.047 6.962 44.03 0c12.261-6.962 12.261-18.38 0-25.343z" fill="#C4CBE5"/><path opacity=".294" d="M374.4 188.816c-11.983-6.962-31.211-6.962-43.194 0-11.982 6.962-11.982 18.102 0 24.785 11.983 6.963 31.211 6.963 43.194 0 11.704-6.683 11.704-17.823 0-24.785z" fill="#C0C7E4"/><path opacity=".314" d="M373.842 189.094c-11.704-6.683-30.653-6.683-42.357 0-11.704 6.684-11.704 17.545 0 24.508 11.704 6.683 30.653 6.683 42.357 0 11.704-6.963 11.704-17.824 0-24.508z" fill="#BCC4E2"/><path opacity=".333" d="M352.663 218.336c16.16 0 29.26-7.606 29.26-16.988s-13.1-16.988-29.26-16.988c-16.16 0-29.26 7.606-29.26 16.988s13.1 16.988 29.26 16.988z" fill="#B7C0E0"/><path opacity=".353" d="M373.007 189.651c-11.147-6.405-29.26-6.405-40.407 0-11.147 6.406-11.147 16.988 0 23.394 11.147 6.405 29.26 6.405 40.407 0 11.147-6.406 11.147-16.988 0-23.394z" fill="#B3BCDE"/><path opacity=".372" d="M372.449 189.93c-10.868-6.405-28.703-6.405-39.571 0-10.868 6.405-10.868 16.431 0 22.836 10.868 6.405 28.703 6.405 39.571 0 10.868-6.405 10.868-16.709 0-22.836z" fill="#AFB9DC"/><path opacity=".392" d="M352.664 217.222c15.082 0 27.309-7.107 27.309-15.874s-12.227-15.874-27.309-15.874c-15.083 0-27.31 7.107-27.31 15.874s12.227 15.874 27.31 15.874z" fill="#ABB5DB"/><path opacity=".412" d="M371.614 190.487c-10.311-6.127-27.31-6.127-37.621 0-10.31 6.127-10.31 15.874 0 21.722 10.311 6.127 27.31 6.127 37.621 0 10.31-6.127 10.31-15.874 0-21.722z" fill="#A6B1D9"/><path opacity=".431" d="M371.056 190.765c-10.032-5.848-26.752-5.848-36.784 0-10.032 5.849-10.032 15.317 0 21.166 10.032 5.848 26.752 5.848 36.784 0 10.311-5.849 10.311-15.317 0-21.166z" fill="#A2ADD7"/><path opacity=".451" d="M352.664 216.108c14.005 0 25.359-6.608 25.359-14.76 0-8.152-11.354-14.76-25.359-14.76-14.005 0-25.359 6.608-25.359 14.76 0 8.152 11.354 14.76 25.359 14.76z" fill="#9EAAD5"/><path opacity=".471" d="M370.22 191.044c-9.754-5.57-25.359-5.57-35.112 0-9.754 5.57-9.754 14.76 0 20.33 9.753 5.569 25.358 5.569 35.112 0 9.753-5.57 9.753-14.76 0-20.33z" fill="#9AA6D3"/><path opacity=".49" d="M369.941 191.322c-9.475-5.291-24.802-5.291-34.276 0-9.475 5.292-9.475 14.203 0 19.773 9.474 5.291 24.801 5.291 34.276 0 9.196-5.291 9.196-14.203 0-19.773z" fill="#96A2D1"/><path opacity=".51" d="M369.383 191.601c-9.196-5.291-24.244-5.291-33.161 0-9.196 5.291-9.196 13.924 0 19.216 9.196 5.291 24.244 5.291 33.161 0 9.196-5.292 9.196-13.925 0-19.216z" fill="#919FD0"/><path opacity=".529" d="M368.827 191.879c-8.918-5.012-23.409-5.012-32.326 0-8.917 5.013-8.917 13.646 0 18.659 8.917 5.013 23.408 5.013 32.326 0 8.917-5.013 8.917-13.367 0-18.659z" fill="#8D9BCE"/><path opacity=".549" d="M368.548 192.158c-8.639-5.013-22.851-5.013-31.49 0s-8.639 13.089 0 18.102c8.639 5.012 22.851 5.012 31.49 0 8.639-5.013 8.639-13.089 0-18.102z" fill="#8997CC"/><path opacity=".569" d="M367.99 192.436c-8.36-4.734-22.293-4.734-30.654 0-8.36 4.735-8.36 12.811 0 17.545 8.361 4.734 22.294 4.734 30.654 0s8.36-12.81 0-17.545z" fill="#8594CA"/><path opacity=".588" d="M367.712 192.715c-8.081-4.735-21.457-4.735-29.817 0-8.082 4.734-8.082 12.532 0 16.988 8.081 4.734 21.457 4.734 29.817 0 8.082-4.456 8.082-12.254 0-16.988z" fill="#8190C8"/><path opacity=".608" d="M367.155 192.993c-7.803-4.456-20.901-4.456-28.703 0-7.803 4.456-7.803 11.975 0 16.71 7.802 4.456 20.9 4.456 28.703 0 7.802-4.735 7.802-12.254 0-16.71z" fill="#7C8CC6"/><path opacity=".627" d="M366.597 193.272c-7.802-4.456-20.342-4.456-27.867 0-7.802 4.456-7.802 11.696 0 16.152 7.803 4.456 20.343 4.456 27.867 0 7.803-4.456 7.803-11.696 0-16.152z" fill="#7888C5"/><path opacity=".647" d="M366.319 193.55c-7.525-4.177-19.507-4.177-27.031 0-7.524 4.178-7.524 11.418 0 15.596 7.524 4.177 19.506 4.177 27.031 0 7.245-4.456 7.245-11.418 0-15.596z" fill="#7485C3"/><path opacity=".667" d="M365.761 193.829c-7.246-4.178-18.95-4.178-26.195 0-7.246 4.177-7.246 10.861 0 15.038 7.245 4.178 18.949 4.178 26.195 0 7.245-4.177 7.245-10.861 0-15.038z" fill="#7081C1"/><path opacity=".686" d="M365.204 194.107c-6.967-3.899-18.392-3.899-25.081 0-6.966 3.899-6.966 10.583 0 14.482 6.967 3.899 18.393 3.899 25.081 0 6.966-4.178 6.966-10.583 0-14.482z" fill="#6B7DBF"/><path opacity=".706" d="M364.925 194.386c-6.688-3.899-17.556-3.899-24.244 0-6.688 3.899-6.688 10.025 0 13.924 6.688 3.899 17.556 3.899 24.244 0 6.688-3.899 6.688-10.304 0-13.924z" fill="#677ABD"/><path opacity=".726" d="M364.368 194.386c-6.41-3.621-16.999-3.621-23.409 0-6.409 3.62-6.409 9.747 0 13.367 6.41 3.621 16.999 3.621 23.409 0 6.409-3.342 6.409-9.468 0-13.367z" fill="#6376BC"/><path opacity=".745" d="M352.664 210.538c8.773 0 15.884-4.114 15.884-9.19s-7.111-9.19-15.884-9.19-15.884 4.114-15.884 9.19 7.111 9.19 15.884 9.19z" fill="#5F72BA"/><path opacity=".765" d="M363.532 194.943c-5.852-3.342-15.605-3.342-21.736 0-5.852 3.342-5.852 8.911 0 12.532 5.852 3.342 15.605 3.342 21.736 0 5.852-3.342 5.852-8.912 0-12.532z" fill="#5B6EB8"/><path opacity=".784" d="M352.664 209.703c8.157 0 14.769-3.741 14.769-8.355 0-4.614-6.612-8.355-14.769-8.355s-14.77 3.741-14.77 8.355c0 4.614 6.613 8.355 14.77 8.355z" fill="#566BB6"/><path opacity=".804" d="M362.696 195.5c-5.574-3.064-14.491-3.064-19.786 0-5.573 3.063-5.573 8.354 0 11.418 5.573 3.063 14.491 3.063 19.786 0 5.294-3.064 5.294-8.355 0-11.418z" fill="#5267B4"/><path opacity=".824" d="M362.139 195.778c-5.295-3.063-13.655-3.063-18.95 0-5.294 3.064-5.294 7.798 0 10.861 5.295 3.064 13.655 3.064 18.95 0 5.294-2.785 5.294-7.797 0-10.861z" fill="#4E63B2"/><path opacity=".843" d="M352.664 208.589c7.08 0 12.819-3.242 12.819-7.241 0-3.999-5.739-7.241-12.819-7.241-7.08 0-12.819 3.242-12.819 7.241 0 3.999 5.739 7.241 12.819 7.241z" fill="#4A60B1"/><path opacity=".863" d="M361.302 196.335c-4.737-2.785-12.54-2.785-16.998 0-4.738 2.785-4.738 7.241 0 9.747 4.737 2.785 12.54 2.785 16.998 0 4.738-2.506 4.738-6.962 0-9.747z" fill="#465CAF"/><path opacity=".882" d="M360.746 196.614c-4.459-2.507-11.704-2.507-16.163 0-4.459 2.506-4.459 6.683 0 9.468 4.459 2.507 11.704 2.507 16.163 0 4.458-2.785 4.458-6.962 0-9.468z" fill="#4158AD"/><path opacity=".902" d="M360.467 196.892c-4.18-2.506-11.147-2.506-15.327 0-4.18 2.507-4.18 6.405 0 8.912 4.18 2.506 11.147 2.506 15.327 0 4.18-2.507 4.18-6.405 0-8.912z" fill="#3D55AB"/><path opacity=".922" d="M359.909 197.171c-3.901-2.228-10.589-2.228-14.491 0-3.901 2.228-3.901 6.126 0 8.354 3.902 2.228 10.59 2.228 14.491 0 3.901-2.506 3.901-6.126 0-8.354z" fill="#3951A9"/><path opacity=".941" d="M359.63 197.449c-3.623-2.228-9.753-2.228-13.655 0-3.622 2.228-3.622 5.57 0 7.798 3.623 2.228 9.754 2.228 13.655 0 3.623-2.228 3.623-5.848 0-7.798z" fill="#354DA7"/><path opacity=".961" d="M359.073 197.728c-3.344-1.95-9.196-1.95-12.54 0-3.344 1.949-3.344 5.291 0 7.24 3.344 1.95 9.196 1.95 12.54 0 3.345-1.949 3.345-5.291 0-7.24z" fill="#3049A6"/><path opacity=".98" d="M358.515 198.006c-3.344-1.949-8.638-1.949-11.704 0-3.344 1.95-3.344 5.013 0 6.684 3.344 1.949 8.639 1.949 11.704 0 3.344-1.95 3.344-5.013 0-6.684z" fill="#2C46A4"/><path d="M358.237 198.006c-3.065-1.671-7.802-1.671-10.868 0-3.065 1.671-3.065 4.456 0 6.127 3.066 1.671 7.803 1.671 10.868 0 2.787-1.393 2.787-4.177 0-6.127z" fill="#2842A2"/><path d="M380.53 193.829h-2.508c-1.114-1.393-2.786-2.785-4.737-3.899-9.754-5.57-25.638-5.57-35.391 0-1.951 1.114-3.623 2.506-4.737 3.899h-2.509v5.291c-.557 3.899 1.951 8.076 7.246 11.14 9.753 5.569 25.637 5.569 35.391 0 5.295-3.064 7.803-7.241 7.245-11.14v-5.291z" fill="#FFC107"/><path d="M342.91 187.702l-2.508.835v23.115l2.508.836v-24.786zM335.385 191.601v17.266c.836.557 1.394 1.114 2.23 1.671V189.93c-.836.557-1.394 1.114-2.23 1.671zM347.925 186.31c-.836.278-1.672.278-2.508.557v26.456c.836.279 1.672.279 2.508.557v-27.57zM374.957 191.044v18.102c.836-.557 1.672-1.393 2.508-2.228v-13.925c-.836-.557-1.672-1.114-2.508-1.949zM379.972 203.297c.557-1.392.557-2.784.557-3.898v-5.292h-.557v9.19zM367.432 187.424c-.836-.279-1.672-.557-2.508-.557v26.735c.836-.279 1.672-.557 2.508-.557v-25.621zM332.878 206.361V193.55h-2.508v5.292c0 2.784.557 5.291 2.508 7.519zM372.449 189.651c-.836-.557-1.672-.835-2.508-1.114v23.394c.836-.279 1.672-.836 2.508-1.114v-21.166zM352.663 185.753c-.836 0-1.672 0-2.508.278v28.128c.836 0 1.672.278 2.508.278v-28.684zM357.679 214.437v-28.684h-2.508v28.962c.836 0 1.672 0 2.508-.278zM362.696 186.31c-.836 0-1.672-.279-2.508-.279v28.406c.836 0 1.672-.278 2.508-.278V186.31z" fill="#FFAD33"/><path d="M355.45 207.475c13.851 0 25.08-6.484 25.08-14.482 0-7.998-11.229-14.481-25.08-14.481-13.852 0-25.08 6.483-25.08 14.481s11.228 14.482 25.08 14.482z" fill="#FFCD39"/><path d="M371.334 183.246c-8.639-5.013-23.129-5.013-32.047 0-8.639 5.013-8.639 13.368 0 18.38 8.639 5.013 23.13 5.013 32.047 0 8.918-5.012 8.918-13.367 0-18.38z" fill="#FFAD33"/><path d="M369.383 184.36c-7.803-4.456-20.343-4.456-27.867 0-7.803 4.456-7.803 11.418 0 15.874 7.803 4.456 20.343 4.456 27.867 0 7.803-4.456 7.803-11.418 0-15.874z" fill="#FFCD39"/><path d="M357.401 198.006h-6.967c-1.672 0-2.787-.835-2.787-1.671v-.835h4.18v.278h5.853c1.114 0 1.95-.557 1.95-1.114s-.557-.835-1.393-.835h-5.016c-3.066 0-5.574-1.393-5.574-3.064v-.557c0-1.949 2.787-3.62 6.131-3.62h6.967c1.672 0 2.787.835 2.787 1.671v1.114h-4.18v-.279H353.5c-1.115 0-1.951.557-1.951 1.114v.557c0 .557.557.836 1.393.836h5.016c3.066 0 5.574 1.392 5.574 3.063 0 1.671-2.787 3.342-6.131 3.342z" fill="#FF9800"/><path d="M357.68 185.196h-4.18v14.203h4.18v-14.203z" fill="#FF9800"/><path d="M380.53 183.246h-2.508c-1.114-1.392-2.786-2.785-4.737-3.899-9.754-5.569-25.638-5.569-35.391 0-1.951 1.114-3.623 2.507-4.737 3.899h-2.509v5.291c-.557 3.899 1.951 8.077 7.246 11.14 9.753 5.57 25.637 5.57 35.391 0 5.295-3.063 7.803-7.241 7.245-11.14v-5.291z" fill="#FFC107"/><path d="M342.91 177.119l-2.508.836v23.114l2.508.836v-24.786zM335.385 181.018v17.267c.836.557 1.394 1.114 2.23 1.671v-20.609c-.836.557-1.394 1.114-2.23 1.671zM347.925 176.005c-.836.279-1.672.279-2.508.557v26.457c.836.278 1.672.278 2.508.557v-27.571zM374.957 180.461v18.102c.836-.557 1.672-1.392 2.508-2.228v-13.924c-.836-.279-1.672-1.114-2.508-1.95zM379.972 192.715c.557-1.393.557-2.785.557-3.899v-5.291h-.557v9.19zM367.432 177.119c-.836-.278-1.672-.557-2.508-.557v26.735c.836-.278 1.672-.557 2.508-.557v-25.621zM332.878 196.057v-12.811h-2.508v5.291c0 2.507.557 5.013 2.508 7.52zM372.449 179.069c-.836-.557-1.672-.836-2.508-1.114v23.393c.836-.279 1.672-.836 2.508-1.114v-21.165zM352.663 175.448c-.836 0-1.672 0-2.508.279v28.127c.836 0 1.672.279 2.508.279v-28.685zM357.679 204.133V175.17h-2.508v28.963h2.508zM362.696 175.727c-.836 0-1.672-.279-2.508-.279v28.406c.836 0 1.672-.278 2.508-.278v-27.849z" fill="#FFAD33"/><path d="M355.45 196.892c13.851 0 25.08-6.483 25.08-14.481s-11.229-14.482-25.08-14.482c-13.852 0-25.08 6.484-25.08 14.482 0 7.998 11.228 14.481 25.08 14.481z" fill="#FFCD39"/><path d="M371.334 172.942c-8.639-5.013-23.129-5.013-32.047 0-8.639 5.013-8.639 13.368 0 18.38 8.639 5.013 23.13 5.013 32.047 0 8.918-5.012 8.918-13.367 0-18.38z" fill="#FFAD33"/><path d="M369.383 173.778c-7.803-4.456-20.343-4.456-27.867 0-7.803 4.455-7.803 11.418 0 15.873 7.803 4.456 20.343 4.456 27.867 0 7.803-4.177 7.803-11.418 0-15.873z" fill="#FFCD39"/><path d="M357.401 187.424h-6.967c-1.672 0-2.787-.836-2.787-1.671v-.836h4.18v.279h5.853c1.114 0 1.95-.557 1.95-1.114s-.557-.836-1.393-.836h-5.016c-3.066 0-5.574-1.392-5.574-3.063v-.557c0-1.95 2.787-3.621 6.131-3.621h6.967c1.672 0 2.787.836 2.787 1.671v1.114h-4.18v-.557H353.5c-1.115 0-1.951.557-1.951 1.114v.557c0 .557.557.836 1.393.836h5.016c3.066 0 5.574 1.392 5.574 3.063 0 1.95-2.787 3.621-6.131 3.621z" fill="#FF9800"/><path d="M357.68 174.891h-4.18v14.203h4.18v-14.203z" fill="#FF9800"/><path d="M380.53 172.664h-2.508c-1.114-1.393-2.786-2.785-4.737-3.899-9.754-5.57-25.638-5.57-35.391 0-1.951 1.114-3.623 2.506-4.737 3.899h-2.509v5.569c-.557 3.899 1.951 8.077 7.246 11.14 9.753 5.57 25.637 5.57 35.391 0 5.295-3.063 7.803-7.241 7.245-11.14v-5.569z" fill="#FFC107"/><path d="M342.91 166.815l-2.508.836v23.114l2.508.836v-24.786zM335.385 170.436v17.266c.836.557 1.394 1.114 2.23 1.671v-20.608c-.836.557-1.394 1.114-2.23 1.671zM347.925 165.423c-.836.278-1.672.278-2.508.557v26.456c.836.279 1.672.279 2.508.557v-27.57zM374.957 170.157v18.102c.836-.557 1.672-1.392 2.508-2.228v-13.924c-.836-.557-1.672-1.393-2.508-1.95zM379.972 182.132c.557-1.392.557-2.785.557-3.899v-5.569h-.557v9.468zM367.432 166.537c-.836-.279-1.672-.557-2.508-.557v26.735c.836-.279 1.672-.557 2.508-.557v-25.621zM332.878 185.474v-12.81h-2.508v5.569c0 2.507.557 5.013 2.508 7.241zM372.449 168.486c-.836-.557-1.672-.835-2.508-1.114v23.393c.836-.278 1.672-.835 2.508-1.114v-21.165zM352.663 164.866c-.836 0-1.672 0-2.508.278v28.128c.836 0 1.672.278 2.508.278v-28.684zM357.679 193.55v-28.684h-2.508v28.963c.836-.279 1.672-.279 2.508-.279zM362.696 165.423c-.836 0-1.672-.279-2.508-.279v28.406c.836 0 1.672-.278 2.508-.278v-27.849z" fill="#FFAD33"/><path d="M355.45 186.588c13.851 0 25.08-6.484 25.08-14.481 0-7.998-11.229-14.482-25.08-14.482-13.852 0-25.08 6.484-25.08 14.482 0 7.997 11.228 14.481 25.08 14.481z" fill="#FFCD39"/><path d="M371.334 162.359c-8.639-5.012-23.129-5.012-32.047 0-8.639 5.013-8.639 13.368 0 18.381s23.13 5.013 32.047 0c8.918-5.013 8.918-13.368 0-18.381z" fill="#FFAD33"/><path d="M369.383 163.473c-7.803-4.455-20.343-4.455-27.867 0-7.803 4.456-7.803 11.418 0 15.874 7.803 4.456 20.343 4.456 27.867 0 7.803-4.456 7.803-11.696 0-15.874z" fill="#FFCD39"/><path d="M357.401 176.841h-6.967c-1.672 0-2.787-.836-2.787-1.671v-.836h4.18v.279h5.853c1.114 0 1.95-.557 1.95-1.114s-.557-.835-1.393-.835h-5.016c-3.066 0-5.574-1.393-5.574-3.064v-.557c0-1.949 2.787-3.62 6.131-3.62h6.967c1.672 0 2.787.835 2.787 1.671v1.114h-4.18v-.279H353.5c-1.115 0-1.951.557-1.951 1.114v.557c0 .279.557.836 1.393.836h5.016c3.066 0 5.574 1.392 5.574 3.063 0 1.949-2.787 3.342-6.131 3.342z" fill="#FF9800"/><path d="M357.68 164.309h-4.18v14.203h4.18v-14.203z" fill="#FF9800"/><path opacity=".02" d="M420.937 226.969c-15.326-8.912-40.407-8.912-55.733 0-15.327 8.912-15.327 23.393 0 32.026 15.326 8.912 40.407 8.912 55.733 0 15.327-8.911 15.327-23.393 0-32.026z" fill="#FBFBFD"/><path opacity=".039" d="M420.381 226.969c-15.048-8.633-39.85-8.633-54.898 0-15.048 8.633-15.048 22.836 0 31.748 15.048 8.912 39.85 8.633 54.898 0 15.048-8.633 15.048-22.836 0-31.748z" fill="#F7F8FB"/><path opacity=".059" d="M393.071 264.844c21.085 0 38.178-9.85 38.178-22.001 0-12.151-17.093-22.001-38.178-22.001-21.085 0-38.177 9.85-38.177 22.001 0 12.151 17.092 22.001 38.177 22.001z" fill="#F2F4FA"/><path opacity=".078" d="M419.544 227.526c-14.491-8.355-38.456-8.355-52.947 0s-14.491 22.279 0 30.634 38.456 8.355 52.947 0 14.491-22.001 0-30.634z" fill="#EEF0F8"/><path opacity=".098" d="M418.987 227.804c-14.213-8.354-37.899-8.354-52.112 0-14.212 8.355-14.212 21.723 0 30.077 14.213 8.355 37.899 8.355 52.112 0 14.49-8.076 14.49-21.722 0-30.077z" fill="#EAECF6"/><path opacity=".118" d="M418.708 228.083c-14.212-8.076-37.063-8.076-51.275 0-14.212 8.076-14.212 21.444 0 29.52s37.063 8.076 51.275 0c13.934-8.076 13.934-21.444 0-29.52z" fill="#E6E9F4"/><path opacity=".137" d="M418.15 228.361c-13.933-8.076-36.505-8.076-50.439 0-13.933 8.077-13.933 21.166 0 28.963 13.934 8.077 36.506 8.077 50.439 0 13.934-7.797 13.934-20.886 0-28.963z" fill="#E1E5F2"/><path opacity=".157" d="M417.872 228.64c-13.655-7.798-35.948-7.798-49.324 0-13.655 7.798-13.655 20.608 0 28.406 13.655 7.798 35.948 7.798 49.324 0 13.376-7.798 13.376-20.608 0-28.406z" fill="#DDE1F0"/><path opacity=".176" d="M393.071 262.616c18.93 0 34.277-8.853 34.277-19.773s-15.347-19.773-34.277-19.773-34.276 8.853-34.276 19.773 15.346 19.773 34.276 19.773z" fill="#D9DEEF"/><path opacity=".196" d="M393.071 262.337c18.622 0 33.719-8.728 33.719-19.494s-15.097-19.494-33.719-19.494c-18.623 0-33.719 8.728-33.719 19.494s15.096 19.494 33.719 19.494z" fill="#D5DAED"/><path opacity=".216" d="M393.071 261.78c18.314 0 33.161-8.478 33.161-18.937 0-10.459-14.847-18.937-33.161-18.937-18.315 0-33.162 8.478-33.162 18.937 0 10.459 14.847 18.937 33.162 18.937z" fill="#D1D6EB"/><path opacity=".235" d="M393.07 261.502c17.853 0 32.326-8.354 32.326-18.659s-14.473-18.659-32.326-18.659-32.325 8.354-32.325 18.659 14.472 18.659 32.325 18.659z" fill="#CCD3E9"/><path opacity=".255" d="M415.643 230.032c-12.261-7.24-32.604-7.24-44.865 0-12.262 7.241-12.262 18.938 0 25.9 12.261 7.241 32.604 7.241 44.865 0 12.262-7.241 12.262-18.937 0-25.9z" fill="#C8CFE7"/><path opacity=".275" d="M415.086 230.311c-11.983-6.962-32.047-6.962-44.03 0-11.983 6.962-11.983 18.38 0 25.342 11.983 6.963 32.047 6.963 44.03 0 11.982-6.962 11.982-18.38 0-25.342z" fill="#C4CBE5"/><path opacity=".294" d="M414.528 230.589c-11.982-6.962-31.21-6.962-43.193 0-11.983 6.963-11.983 18.102 0 24.786 11.983 6.962 31.211 6.962 43.193 0 11.983-6.962 11.983-18.102 0-24.786z" fill="#C0C7E4"/><path opacity=".314" d="M414.25 230.589c-11.705-6.683-30.654-6.683-42.358 0-11.704 6.684-11.704 17.545 0 24.507 11.704 6.684 30.653 6.684 42.358 0 11.425-6.683 11.425-17.544 0-24.507z" fill="#BCC4E2"/><path opacity=".333" d="M393.071 259.831c16.16 0 29.26-7.606 29.26-16.988s-13.1-16.988-29.26-16.988c-16.16 0-29.26 7.606-29.26 16.988s13.1 16.988 29.26 16.988z" fill="#B7C0E0"/><path opacity=".353" d="M393.071 259.274c15.852 0 28.703-7.357 28.703-16.431 0-9.075-12.851-16.431-28.703-16.431-15.852 0-28.703 7.356-28.703 16.431 0 9.074 12.851 16.431 28.703 16.431z" fill="#B3BCDE"/><path opacity=".372" d="M412.856 231.425c-10.868-6.405-28.703-6.405-39.571 0-10.868 6.405-10.868 16.431 0 22.836 10.868 6.405 28.703 6.405 39.571 0 10.868-6.127 10.868-16.431 0-22.836z" fill="#AFB9DC"/><path opacity=".392" d="M412.299 231.703c-10.59-6.126-28.146-6.126-38.735 0-10.59 6.127-10.59 16.153 0 22.279 10.589 6.127 28.145 6.127 38.735 0 10.589-6.126 10.589-16.152 0-22.279z" fill="#ABB5DB"/><path opacity=".412" d="M412.021 231.982c-10.311-6.127-27.31-6.127-37.899 0-10.311 6.127-10.311 15.874 0 21.722 10.311 6.127 27.309 6.127 37.899 0 10.311-5.848 10.311-15.595 0-21.722z" fill="#A6B1D9"/><path opacity=".431" d="M393.071 257.881c14.467 0 26.195-6.733 26.195-15.038 0-8.306-11.728-15.038-26.195-15.038s-26.195 6.732-26.195 15.038c0 8.305 11.728 15.038 26.195 15.038z" fill="#A2ADD7"/><path opacity=".451" d="M410.906 232.539c-9.754-5.57-26.195-5.57-35.949 0-9.753 5.57-9.753 15.038 0 20.887 9.754 5.569 26.195 5.569 35.949 0 10.032-5.849 10.032-15.317 0-20.887z" fill="#9EAAD5"/><path opacity=".471" d="M410.627 232.817c-9.753-5.569-25.359-5.569-35.112 0-9.754 5.57-9.754 14.76 0 20.33 9.753 5.57 25.359 5.57 35.112 0 9.475-5.57 9.475-14.76 0-20.33z" fill="#9AA6D3"/><path opacity=".49" d="M393.071 256.767c13.39 0 24.245-6.234 24.245-13.924 0-7.69-10.855-13.925-24.245-13.925-13.389 0-24.244 6.235-24.244 13.925s10.855 13.924 24.244 13.924z" fill="#96A2D1"/><path opacity=".51" d="M409.791 233.374c-9.196-5.291-24.245-5.291-33.162 0-9.196 5.292-9.196 13.925 0 19.216s24.244 5.291 33.162 0c8.917-5.291 8.917-13.924 0-19.216z" fill="#919FD0"/><path opacity=".529" d="M409.234 233.653c-8.918-5.013-23.408-5.013-32.326 0-8.917 5.013-8.917 13.646 0 18.659 8.918 5.012 23.408 5.012 32.326 0 8.917-5.292 8.917-13.646 0-18.659z" fill="#8D9BCE"/><path opacity=".549" d="M408.676 233.931c-8.639-5.013-22.851-5.013-31.489 0-8.639 5.013-8.639 13.089 0 18.102 8.638 5.013 22.85 5.013 31.489 0s8.639-13.089 0-18.102z" fill="#8997CC"/><path opacity=".569" d="M408.397 234.21c-8.36-4.735-22.293-4.735-30.653 0-8.36 4.734-8.36 12.81 0 17.545 8.36 4.734 22.293 4.734 30.653 0 8.36-5.013 8.36-12.811 0-17.545z" fill="#8594CA"/><path opacity=".588" d="M407.841 234.21c-8.082-4.735-21.458-4.735-29.818 0-8.081 4.734-8.081 12.532 0 16.988 8.081 4.734 21.457 4.734 29.818 0 8.081-4.456 8.081-12.254 0-16.988z" fill="#8190C8"/><path opacity=".608" d="M407.562 234.488c-7.803-4.456-20.9-4.456-28.703 0-7.803 4.456-7.803 11.975 0 16.71 7.803 4.455 20.9 4.455 28.703 0 7.803-4.456 7.803-11.975 0-16.71z" fill="#7C8CC6"/><path opacity=".627" d="M407.004 234.767c-7.803-4.456-20.343-4.456-27.867 0-7.803 4.456-7.803 11.696 0 16.152 7.802 4.456 20.343 4.456 27.867 0 7.524-4.456 7.524-11.696 0-16.152z" fill="#7888C5"/><path opacity=".647" d="M406.447 235.045c-7.524-4.177-19.507-4.177-27.031 0-7.524 4.178-7.524 11.418 0 15.596 7.524 4.177 19.507 4.177 27.031 0 7.524-4.178 7.524-11.14 0-15.596z" fill="#7485C3"/><path opacity=".667" d="M393.07 253.425c10.158 0 18.392-4.738 18.392-10.582 0-5.845-8.234-10.583-18.392-10.583-10.157 0-18.392 4.738-18.392 10.583 0 5.844 8.235 10.582 18.392 10.582z" fill="#7081C1"/><path opacity=".686" d="M405.611 235.602c-6.967-3.899-18.392-3.899-25.08 0-6.967 3.899-6.967 10.583 0 14.482 6.966 3.898 18.392 3.898 25.08 0 6.967-3.899 6.967-10.583 0-14.482z" fill="#6B7DBF"/><path opacity=".706" d="M405.054 235.881c-6.688-3.899-17.556-3.899-24.244 0-6.688 3.899-6.688 10.025 0 13.924 6.688 3.899 17.556 3.899 24.244 0 6.688-3.62 6.688-10.025 0-13.924z" fill="#677ABD"/><path opacity=".726" d="M404.775 236.159c-6.409-3.62-16.998-3.62-23.408 0-6.409 3.621-6.409 9.747 0 13.368 6.41 3.62 16.999 3.62 23.408 0 6.41-3.621 6.41-9.747 0-13.368z" fill="#6376BC"/><path opacity=".745" d="M404.218 236.438c-6.131-3.621-16.442-3.621-22.573 0-6.13 3.62-6.13 9.468 0 13.089 6.131 3.62 16.442 3.62 22.573 0 6.13-3.621 6.13-9.469 0-13.089z" fill="#5F72BA"/><path opacity=".765" d="M393.07 251.755c8.465 0 15.327-3.99 15.327-8.912 0-4.922-6.862-8.912-15.327-8.912-8.464 0-15.326 3.99-15.326 8.912 0 4.922 6.862 8.912 15.326 8.912z" fill="#5B6EB8"/><path opacity=".784" d="M403.382 236.995c-5.574-3.342-15.049-3.342-20.622 0s-5.573 8.633 0 11.975c5.573 3.342 15.048 3.342 20.622 0 5.573-3.342 5.573-8.633 0-11.975z" fill="#566BB6"/><path opacity=".804" d="M402.824 237.273c-5.573-3.063-14.491-3.063-19.786 0-5.573 3.063-5.573 8.355 0 11.418 5.574 3.064 14.491 3.064 19.786 0 5.573-3.342 5.573-8.355 0-11.418z" fill="#5267B4"/><path opacity=".824" d="M393.071 250.641c7.387 0 13.376-3.492 13.376-7.798 0-4.307-5.989-7.798-13.376-7.798-7.388 0-13.376 3.491-13.376 7.798 0 4.306 5.988 7.798 13.376 7.798z" fill="#4E63B2"/><path opacity=".843" d="M401.988 237.83c-5.016-2.785-13.097-2.785-18.113 0s-5.016 7.519 0 10.304 13.097 2.785 18.113 0 5.016-7.519 0-10.304z" fill="#4A60B1"/><path opacity=".863" d="M401.71 237.83c-4.738-2.785-12.541-2.785-16.999 0-4.738 2.785-4.738 7.241 0 9.747 4.737 2.785 12.54 2.785 16.999 0 4.458-2.506 4.458-6.962 0-9.747z" fill="#465CAF"/><path opacity=".882" d="M401.152 238.109c-4.459-2.507-11.704-2.507-16.163 0-4.459 2.506-4.459 6.683 0 9.468 4.459 2.507 11.704 2.507 16.163 0 4.459-2.506 4.459-6.684 0-9.468z" fill="#4158AD"/><path opacity=".902" d="M400.595 238.387c-4.18-2.506-11.147-2.506-15.327 0s-4.18 6.405 0 8.912c4.18 2.506 11.147 2.506 15.327 0 4.459-2.507 4.459-6.406 0-8.912z" fill="#3D55AB"/><path opacity=".922" d="M400.316 238.666c-3.901-2.228-10.589-2.228-14.491 0-3.901 2.228-3.901 6.126 0 8.354 3.902 2.228 10.59 2.228 14.491 0 3.902-2.228 3.902-6.126 0-8.354z" fill="#3951A9"/><path opacity=".941" d="M393.071 248.413c5.233 0 9.475-2.494 9.475-5.57s-4.242-5.57-9.475-5.57-9.475 2.494-9.475 5.57 4.242 5.57 9.475 5.57z" fill="#354DA7"/><path opacity=".961" d="M399.48 239.223c-3.344-1.95-9.196-1.95-12.54 0-3.344 1.949-3.344 5.291 0 7.24 3.344 1.95 9.196 1.95 12.54 0 3.344-1.949 3.344-5.291 0-7.24z" fill="#3049A6"/><path opacity=".98" d="M398.923 239.501c-3.344-1.949-8.639-1.949-11.705 0-3.344 1.949-3.344 5.013 0 6.684 3.345 1.949 8.639 1.949 11.705 0 3.344-1.671 3.344-4.735 0-6.684z" fill="#2C46A4"/><path d="M398.366 239.78c-3.065-1.671-7.803-1.671-10.868 0-3.066 1.67-3.066 4.455 0 6.126 3.065 1.671 7.803 1.671 10.868 0 3.065-1.671 3.065-4.456 0-6.126z" fill="#2842A2"/><path d="M420.937 235.324h-2.508c-1.114-1.393-2.786-2.785-4.737-3.899-9.753-5.57-25.637-5.57-35.391 0-1.951 1.114-3.623 2.506-4.737 3.899h-2.508v5.291c-.558 3.899 1.95 8.076 7.245 11.14 9.754 5.569 25.638 5.569 35.391 0 5.295-3.064 7.803-7.241 7.245-11.14v-5.291z" fill="#FFC107"/><path d="M383.038 229.197l-2.508.835v23.394l2.508.835v-25.064zM375.793 233.096v17.266c.836.557 1.394 1.114 2.23 1.671v-20.608c-.836.557-1.672 1.114-2.23 1.671zM388.055 228.083c-.836.278-1.672.278-2.508.557v26.456c.836.279 1.672.279 2.508.557v-27.57zM415.364 232.817v18.102c.836-.557 1.672-1.392 2.508-2.228v-13.924c-.836-.557-1.672-1.393-2.508-1.95zM420.102 244.792c.557-1.392.557-2.785.557-3.898v-5.292h-.557v9.19zM407.841 229.197c-.836-.279-1.672-.557-2.508-.557v26.735c.836-.279 1.672-.557 2.508-.557v-25.621zM373.285 248.134v-12.81h-2.508v5.291c-.278 2.785.558 5.291 2.508 7.519zM412.857 231.146c-.836-.557-1.672-.835-2.508-1.114v23.394c.836-.279 1.672-.836 2.508-1.114v-21.166zM393.07 227.526c-.836 0-1.671 0-2.508.279v28.127c.837 0 1.672.278 2.508.278v-28.684zM398.087 256.21v-28.684h-2.508v28.684h2.508zM402.824 227.805c-.836 0-1.672-.279-2.508-.279v28.406c.836 0 1.672-.279 2.508-.279v-27.848z" fill="#FFAD33"/><path d="M413.414 224.463c-9.754-5.57-25.638-5.57-35.391 0-9.754 5.569-9.754 14.76 0 20.329 9.753 5.57 25.637 5.57 35.391 0 9.753-5.569 9.753-14.76 0-20.329z" fill="#FFCD39"/><path d="M411.741 225.02c-8.638-5.013-23.129-5.013-32.047 0-8.638 5.012-8.638 13.367 0 18.38 8.639 5.013 23.13 5.013 32.047 0 8.918-5.013 8.918-13.368 0-18.38z" fill="#FFAD33"/><path d="M409.79 226.134c-7.803-4.456-20.343-4.456-27.867 0-7.802 4.455-7.802 11.418 0 15.873 7.803 4.456 20.343 4.456 27.867 0 7.803-4.455 7.803-11.696 0-15.873z" fill="#FFCD39"/><path d="M397.808 239.501h-6.967c-1.672 0-2.786-.835-2.786-1.671v-.835h4.18v.278h5.852c1.114 0 1.95-.557 1.95-1.114s-.557-.835-1.393-.835h-5.295c-3.065 0-5.573-1.393-5.573-3.064v-.557c0-1.949 2.787-3.62 6.131-3.62h6.966c1.672 0 2.787.835 2.787 1.671v1.114h-4.18v-.279h-5.852c-1.115 0-1.951.557-1.951 1.114v.557c0 .557.558.836 1.394.836h5.016c3.065 0 5.573 1.392 5.573 3.063.279 1.671-2.508 3.342-5.852 3.342z" fill="#FF9800"/><path d="M397.808 226.969h-4.18v14.203h4.18v-14.203z" fill="#FF9800"/><path d="M250.95 448.647c14.769-8.633 39.013-8.633 53.783 0 14.769 8.633 14.769 22.557 0 30.912-14.77 8.633-39.014 8.633-53.783 0-14.77-8.355-14.77-22.279 0-30.912z" fill="url(#paint1_radial)"/><path d="M304.455 455.887h-3.066c-1.114-1.392-2.786-2.784-5.016-3.898-10.589-6.127-27.867-6.127-38.456 0-1.951 1.114-3.623 2.506-5.016 3.898h-3.066v7.241c0 4.178 2.508 8.076 7.803 11.14 10.59 6.127 27.867 6.127 38.457 0 5.294-3.064 8.081-7.241 7.802-11.14v-7.241h.558z" fill="url(#paint2_linear)"/><path d="M277.423 471.483c15.083 0 27.309-6.982 27.309-15.596 0-8.613-12.226-15.595-27.309-15.595s-27.31 6.982-27.31 15.595c0 8.614 12.227 15.596 27.31 15.596z" fill="#F6F8FB"/><path d="M277.424 469.534c-6.131 0-11.983-1.393-16.442-3.899-4.458-2.507-6.966-6.127-6.966-9.748 0-3.62 2.508-7.24 6.966-9.747 4.459-2.506 10.311-3.899 16.442-3.899s11.983 1.393 16.441 3.899l-.557 1.114c-4.18-2.506-9.753-3.62-15.605-3.62-5.853 0-11.426 1.392-15.606 3.62s-6.409 5.57-6.409 8.633c0 3.342 2.229 6.406 6.409 8.634 4.18 2.506 9.753 3.62 15.606 3.62l-.279 1.393z" fill="url(#paint3_linear)"/><path d="M272.128 449.482l2.787-2.228 4.18 2.507-1.393 1.114-9.475 4.455-1.394-.835 9.197-4.177-1.394-.836-1.114.836-1.394-.836zm6.41 4.735c.557-.279.836-.279 1.114-.557.279-.279.558-.557.558-.836 0-.278 0-.278-.279-.557-.279-.278-1.115 0-2.229.279v-1.393c.836-.278 1.672-.557 2.229-.557.557 0 1.115 0 1.672.279.557.278.557.835.557 1.392 0 .557-.557 1.114-1.393 1.95-.557.278-.836.556-1.393.835-.558.278-1.394.557-2.23.835l-2.508.557 2.23 1.393-1.672 1.392-3.902-2.506 1.394-1.114 4.18-1.114c.836 0 1.393-.278 1.672-.278zm11.425 2.227l-12.54 4.456-1.393-.835 12.54-4.456 1.393.835zm-6.688 5.57l-1.672.836h-1.393c-.279-.279-.558-.557-.279-.836 0-.278.279-.835.836-1.114l1.672-.835h1.393c.279.278.558.557.279.835 0 .279-.279.836-.836 1.114zm-1.951-.557v.279h.279c.279 0 .279-.279.557-.279.279-.278.279-.278.279-.557v-.278h-.279c-.278 0-.278.278-.557.278 0 .279-.279.557-.279.557zm3.623-5.291l-1.672.835h-1.393c-.279-.278-.558-.557-.279-.835 0-.279.279-.836.836-1.114l1.672-.835h1.393c.279.278.558.556.279.835 0 .278-.279.557-.836 1.114zm-1.672-.557v.278h.279c.278 0 .278-.278.557-.278.279-.279.279-.279.279-.557v-.278h-.279c-.279 0-.279.278-.557.278-.279.278-.279.278-.279.557z" fill="#3C5185"/><path d="M137.81 382.923c14.769-8.633 39.014-8.633 53.783 0 14.77 8.633 14.77 22.558 0 30.913-14.769 8.633-39.014 8.633-53.783 0-14.769-8.355-14.769-22.28 0-30.913z" fill="url(#paint4_radial)"/><path d="M191.314 390.164h-3.065c-1.115-1.393-2.787-2.785-5.016-3.899-10.59-6.127-27.867-6.127-38.457 0-1.95 1.114-3.622 2.506-5.016 3.899h-2.786v7.241c0 4.177 2.508 8.076 7.802 11.139 10.59 6.127 27.867 6.127 38.457 0 5.294-3.063 8.081-7.24 7.802-11.139v-7.241h.279z" fill="url(#paint5_linear)"/><path d="M144.777 379.024c10.589-6.126 27.866-6.126 38.456 0 10.589 6.127 10.589 16.153 0 22.28-10.59 6.126-27.867 6.126-38.456 0-10.59-6.127-10.59-16.153 0-22.28z" fill="#F6F8FB"/><path d="M147.843 399.911c-4.459-2.506-6.967-6.127-6.967-9.747s2.508-7.241 6.967-9.747c4.458-2.507 10.31-3.899 16.441-3.899v1.392c-5.852 0-11.425 1.393-15.605 3.621-4.18 2.228-6.41 5.57-6.41 8.633 0 3.342 2.23 6.405 6.41 8.633l-.836 1.114z" fill="url(#paint6_linear)"/><path d="M159.825 385.43c.557-.279.836-.279 1.114-.557.279-.279.558-.557.558-.836 0-.278 0-.278-.279-.557-.279-.278-1.115 0-2.229.279v-1.393c.836-.278 1.672-.557 2.229-.557.557 0 1.115 0 1.672.279.557.278.557.835.557 1.392 0 .557-.557 1.114-1.393 1.95-.557.278-.836.557-1.393.835-.558.279-1.394.557-2.23.836l-2.508.835 2.229 1.392-1.672 1.393-3.901-2.507 1.115-1.113 4.18-1.114c.836 0 1.393-.279 1.951-.557zm9.474 1.114l-1.672 1.392-2.229-1.392-1.393 1.113c.278 0 .557.001.557.279.557.278.836.835.557 1.392 0 .557-.557 1.393-1.393 1.95-.836.557-1.672 1.114-2.787 1.392-.836.279-1.672 0-2.229-.278-.836-.557-1.115-1.114-.558-2.228l1.951-.836V390.164c0 .278.279.557.279.557.279 0 .557.278.836 0 .279 0 .836-.279 1.115-.557.278-.279.557-.557.557-.836 0-.278 0-.557-.279-.557-.278-.278-.836-.278-1.393-.278l.279-1.114 4.18-3.342 3.622 2.507zm6.688 3.898l-12.54 4.456-1.393-.835 12.54-4.456 1.393.835zm-6.688 5.849l-1.672.835h-1.393c-.279-.278-.557-.557-.279-.835 0-.279.279-.836.836-1.114l1.672-.836h1.394c.278.279.557.557.278.836-.278.278-.557.835-.836 1.114zm-1.95-.557v.278h.278c.279 0 .279-.278.558-.278.278-.279.278-.279.278-.557v-.279h-.278c-.279 0-.279.279-.558.279-.278 0-.278.557-.278.557zm3.622-5.57l-1.672.835h-1.393c-.279-.278-.557-.557-.279-.835 0-.279.279-.836.836-1.114l1.672-.836h1.394c.278.279.557.557.278.836 0 .557-.278.835-.836 1.114zm-1.95-.279v.279h.278c.279 0 .279-.279.558-.279.278-.278.278-.278.278-.557v-.278h-.278c-.279 0-.279.278-.558.278 0 .279-.278.279-.278.557z" fill="#3C5185"/><path d="M221.132 453.381c20.931 0 37.899-9.85 37.899-22.001 0-12.15-16.968-22-37.899-22s-37.899 9.85-37.899 22c0 12.151 16.968 22.001 37.899 22.001z" fill="url(#paint7_radial)"/><path d="M247.884 423.026h-3.065c-1.115-1.393-2.787-2.785-5.016-3.899-10.59-6.127-27.867-6.127-38.456 0-1.951 1.114-3.623 2.506-5.016 3.899h-3.066v7.24c0 4.178 2.508 8.077 7.803 11.14 10.589 6.127 27.867 6.127 38.456 0 5.295-3.063 8.082-7.241 7.803-11.14v-7.24h.557z" fill="url(#paint8_linear)"/><path d="M201.625 411.886c10.59-6.127 27.867-6.127 38.457 0 10.589 6.127 10.589 16.152 0 22.279-10.59 6.127-27.867 6.127-38.457 0-10.589-6.127-10.589-16.152 0-22.279z" fill="#FAFBFD"/><path d="M204.412 432.773c-4.459-2.507-6.967-6.127-6.967-9.747 0-3.621 2.508-7.241 6.967-9.747 4.459-2.507 10.311-3.899 16.442-3.899 6.13 0 11.982 1.392 16.441 3.899l-.557 1.113c-4.18-2.506-9.754-3.62-15.606-3.62s-11.425 1.393-15.605 3.62c-4.18 2.228-6.41 5.57-6.41 8.634 0 3.342 2.23 6.405 6.41 8.633l-1.115 1.114z" fill="url(#paint9_linear)"/><path d="M221.411 416.62l-1.672 1.393-2.23-1.393-1.393 1.114c.278 0 .557 0 .557.279.557.278.836.835.836 1.392 0 .557-.557 1.393-1.393 1.95-.836.835-1.672 1.114-2.787 1.392-.836.279-1.672.279-2.229-.278-.836-.557-1.115-1.114-.558-2.228l1.951-.836V420.241c0 .278.279.557.279.557.278 0 .557.278.836 0 .278 0 .836-.279 1.114-.557.279-.279.558-.557.558-.836 0-.278 0-.557-.279-.557-.279-.278-.836-.278-1.393-.278l.278-1.114 4.18-3.62 3.345 2.784zm-1.394 3.064l2.787-2.228 4.18 2.506-1.393 1.114-9.197 4.735-1.393-.836 8.918-4.456-1.394-.835-1.114.835-1.394-.835zm13.098 3.62l-12.54 4.734-1.394-.835 12.54-4.734 1.394.835zm-6.688 5.848l-1.672.836c-.558.278-1.115 0-1.394 0-.278-.279-.557-.557-.278-.836 0-.278.278-.835.836-1.114l1.672-.835c.557-.279 1.114 0 1.393 0 .279.278.557.557.279.835 0 .557-.279.836-.836 1.114zm-1.951-.278v.278h.279c.278 0 .278-.278.557-.278.279-.279.279-.279.279-.557v-.279h-.279c-.279 0-.279.279-.557.279 0 .278-.279.278-.279.557zm3.623-5.57l-1.672.836c-.558.278-1.115 0-1.394 0-.278-.279-.557-.557-.278-.836 0-.278.278-.835.836-1.114l1.672-.835c.557-.279 1.114 0 1.393 0 .279.278.557.557.279.835 0 .279-.279.557-.836 1.114zm-1.951-.557s0 .279 0 0c.279.279.279.279.557.279.279 0 .279-.279.558-.279.278-.278.278-.278.278-.557v-.278h-.278c-.279 0-.279.278-.558.278l-.557.557z" fill="#3C5185"/><g opacity=".3" fill="#3C5185"><path opacity=".024" d="M293.029 327.225l131.253 75.471-67.159 38.71-130.975-75.749 66.881-38.432z"/><path opacity=".049" d="M293.029 327.225l128.187 73.8-66.88 38.71-128.188-74.078 66.881-38.432z"/><path opacity=".073" d="M293.029 327.225l125.401 72.129-66.881 38.71-125.401-72.407 66.881-38.432z"/><path opacity=".098" d="M293.029 327.225l122.614 70.737-66.881 38.431-122.614-70.736 66.881-38.432z"/><path opacity=".122" d="M293.029 327.225l119.827 69.066-66.88 38.431-119.828-69.065 66.881-38.432z"/><path opacity=".146" d="M293.029 327.225L410.07 394.62l-67.16 38.71-116.762-67.673 66.881-38.432z"/><path opacity=".171" d="M293.029 327.225l113.975 65.724-66.88 38.71-113.976-66.002 66.881-38.432z"/><path opacity=".195" d="M293.029 327.225l111.189 64.053-66.881 38.71-111.189-64.331 66.881-38.432z"/><path opacity=".22" d="M293.029 327.225l108.402 62.382-66.881 38.71-108.402-62.66 66.881-38.432z"/><path opacity=".244" d="M293.029 327.225l105.615 60.711-66.88 38.71-105.616-60.989 66.881-38.432z"/><path opacity=".268" d="M293.029 327.225l102.828 59.319-66.88 38.431-102.829-59.318 66.881-38.432z"/><path opacity=".293" d="M293.029 327.225l100.042 57.648-67.159 38.431-99.764-57.647 66.881-38.432z"/><path opacity=".317" d="M293.029 327.225l96.976 55.977-66.88 38.71-96.977-56.255 66.881-38.432z"/><path opacity=".342" d="M293.029 327.225l94.19 54.306-66.881 38.71-94.19-54.584 66.881-38.432z"/><path opacity=".366" d="M293.029 327.225l91.403 52.635-66.881 38.71-91.403-52.913 66.881-38.432z"/><path opacity=".39" d="M293.029 327.225l88.616 50.964-66.88 38.71-88.617-51.242 66.881-38.432z"/><path opacity=".415" d="M293.029 327.225l85.83 49.293-66.881 38.71-85.83-49.571 66.881-38.432z"/><path opacity=".439" d="M293.029 327.225l83.043 47.9-67.159 38.432-82.765-47.9 66.881-38.432z"/><path opacity=".463" d="M293.029 327.225l79.978 46.23-66.881 38.431-79.978-46.229 66.881-38.432z"/><path opacity=".488" d="M293.029 327.225l77.191 44.559-66.881 38.71-77.191-44.837 66.881-38.432z"/><path opacity=".512" d="M293.029 327.225l74.404 42.888-66.88 38.71-74.405-43.166 66.881-38.432z"/><path opacity=".537" d="M293.029 327.225l71.618 41.217-66.881 38.71-71.618-41.495 66.881-38.432z"/><path opacity=".561" d="M293.029 327.225l68.831 39.546-66.881 38.71-68.831-39.824 66.881-38.432z"/><path opacity=".585" d="M293.029 327.225l66.044 37.875-67.159 38.71-65.766-38.153 66.881-38.432z"/><path opacity=".61" d="M293.029 327.225l62.979 36.482-66.881 38.432-62.979-36.482 66.881-38.432z"/><path opacity=".634" d="M293.029 327.225l60.192 34.811-66.88 38.432-60.193-34.811 66.881-38.432z"/><path opacity=".658" d="M293.029 327.225l57.405 33.141-66.88 38.71-57.406-33.419 66.881-38.432z"/><path opacity=".683" d="M293.029 327.225l54.619 31.47-66.881 38.71-54.619-31.748 66.881-38.432z"/><path opacity=".707" d="M293.029 327.225l51.832 29.799-66.881 38.71-51.832-30.077 66.881-38.432z"/><path opacity=".732" d="M293.029 327.225l49.045 28.128-67.159 38.71-48.767-28.406 66.881-38.432z"/><path opacity=".756" d="M293.029 327.225l45.98 26.457-66.881 38.71-45.98-26.735 66.881-38.432z"/><path opacity=".78" d="M293.029 327.225l43.193 25.064-66.88 38.432-43.194-25.064 66.881-38.432z"/><path opacity=".805" d="M293.029 327.225l40.407 23.393-66.881 38.432-40.407-23.393 66.881-38.432z"/><path opacity=".829" d="M293.029 327.225l37.62 21.722-66.881 38.711-37.62-22.001 66.881-38.432z"/><path opacity=".854" d="M293.029 327.225l34.833 20.052-67.159 38.71-34.555-20.33 66.881-38.432z"/><path opacity=".878" d="M293.029 327.225l31.768 18.381-66.881 38.71-31.768-18.659 66.881-38.432z"/><path opacity=".902" d="M293.029 327.225l28.981 16.71-66.88 38.71-28.982-16.988 66.881-38.432z"/><path opacity=".927" d="M293.029 327.225l26.195 15.039-66.881 38.71-26.195-15.317 66.881-38.432z"/><path opacity=".951" d="M293.029 327.225l23.408 13.646-66.881 38.432-23.408-13.646 66.881-38.432z"/><path opacity=".976" d="M293.029 327.225L313.65 339.2l-66.881 38.432-20.621-11.975 66.881-38.432z"/><path opacity=".3" d="M293.029 327.225l17.834 10.304-67.159 38.71-17.556-10.582 66.881-38.432z"/></g><g opacity=".3" fill="#3C5185"><path opacity=".024" d="M172.643 257.881l130.417 76.307-67.159 38.431-130.418-76.585 67.16-38.153z"/><path opacity=".049" d="M172.643 257.881l127.63 74.636-67.159 38.431-127.631-74.914 67.16-38.153z"/><path opacity=".073" d="M172.643 257.881l124.844 72.965-67.16 38.431-124.844-73.243 67.16-38.153z"/><path opacity=".098" d="M172.643 257.881L294.7 329.453l-67.159 38.153-122.058-71.572 67.16-38.153z"/><path opacity=".122" d="M172.643 257.881l119.27 69.901-67.159 38.153-119.271-69.901 67.16-38.153z"/><path opacity=".146" d="M172.643 257.881l116.483 68.23-67.159 38.153-116.484-68.23 67.16-38.153z"/><path opacity=".171" d="M172.643 257.881l113.418 66.559-67.159 38.153-113.419-66.559 67.16-38.153z"/><path opacity=".195" d="M172.643 257.881l110.631 64.888-67.159 38.154-110.632-64.889 67.16-38.153z"/><path opacity=".22" d="M172.643 257.881l107.845 63.217-67.16 38.154-107.845-63.218 67.16-38.153z"/><path opacity=".244" d="M172.643 257.881l105.058 61.547-67.159 38.153-105.059-61.547 67.16-38.153z"/><path opacity=".268" d="M172.643 257.881l102.271 59.876-67.159 38.153-102.272-59.876 67.16-38.153z"/><path opacity=".293" d="M172.643 257.881l99.485 58.205-67.16 38.431-99.485-58.483 67.16-38.153z"/><path opacity=".317" d="M172.643 257.881l96.698 56.534-67.159 38.431-96.699-56.812 67.16-38.153z"/><path opacity=".342" d="M172.643 257.881l93.633 54.863-67.16 38.431-93.633-55.141 67.16-38.153z"/><path opacity=".366" d="M172.643 257.881l90.846 53.47-67.159 38.153-90.847-53.47 67.16-38.153z"/><path opacity=".39" d="M172.643 257.881l88.059 51.799-67.159 38.153-88.06-51.799 67.16-38.153z"/><path opacity=".415" d="M172.643 257.881l85.272 50.128-67.159 38.154-85.273-50.129 67.16-38.153z"/><path opacity=".439" d="M172.643 257.881l82.486 48.458-67.16 38.153-82.486-48.458 67.16-38.153z"/><path opacity=".463" d="M172.643 257.881l79.699 46.787-67.159 38.153-79.7-46.787 67.16-38.153z"/><path opacity=".488" d="M172.643 257.881l76.912 45.116-67.159 38.153-76.913-45.116 67.16-38.153z"/><path opacity=".512" d="M172.643 257.881l73.847 43.445-67.159 38.153-73.848-43.445 67.16-38.153z"/><path opacity=".537" d="M172.643 257.881l71.06 41.774-67.159 38.153-71.061-41.774 67.16-38.153z"/><path opacity=".561" d="M172.643 257.881l68.274 40.103-67.16 38.153-68.274-40.103 67.16-38.153z"/><path opacity=".585" d="M172.643 257.881l65.487 38.432-67.159 38.431-65.488-38.71 67.16-38.153z"/><path opacity=".61" d="M172.643 257.881l62.7 36.761-67.159 38.432-62.701-37.04 67.16-38.153z"/><path opacity=".634" d="M172.643 257.881l59.914 35.09-67.16 38.432-59.914-35.369 67.16-38.153z"/><path opacity=".658" d="M172.643 257.881l57.127 33.698-67.159 38.153-57.128-33.698 67.16-38.153z"/><path opacity=".683" d="M172.643 257.881l54.062 32.027-67.16 38.153-54.062-32.027 67.16-38.153z"/><path opacity=".707" d="M172.643 257.881l51.275 30.356-67.159 38.153-51.276-30.356 67.16-38.153z"/><path opacity=".732" d="M172.643 257.881l48.488 28.685-67.159 38.153-48.489-28.685 67.16-38.153z"/><path opacity=".756" d="M172.643 257.881l45.701 27.014-67.159 38.153-45.702-27.014 67.16-38.153z"/><path opacity=".78" d="M172.643 257.881l42.915 25.343-67.16 38.153-42.915-25.343 67.16-38.153z"/><path opacity=".805" d="M172.643 257.881l40.128 23.672-67.159 38.153-40.129-23.672 67.16-38.153z"/><path opacity=".829" d="M172.643 257.881l37.341 22.001-67.159 38.153-37.342-22.001 67.16-38.153z"/><path opacity=".854" d="M172.643 257.881l34.276 20.33-66.881 38.432-34.555-20.609 67.16-38.153z"/><path opacity=".878" d="M172.643 257.881l31.489 18.659-67.159 38.432-31.49-18.938 67.16-38.153z"/><path opacity=".902" d="M172.643 257.881l28.703 16.988-67.16 38.432-28.703-17.267 67.16-38.153z"/><path opacity=".927" d="M172.643 257.881l25.916 15.317L131.4 311.63l-25.917-15.596 67.16-38.153z"/><path opacity=".951" d="M172.643 257.881l23.129 13.925-67.159 38.153-23.13-13.925 67.16-38.153z"/><path opacity=".976" d="M172.643 257.881l20.343 12.254-67.16 38.153-20.343-12.254 67.16-38.153z"/><path opacity=".3" d="M172.643 257.881l17.556 10.583-67.159 38.153-17.557-10.583 67.16-38.153z"/></g><path d="M236.737 109.725l-69.11-39.824-67.159 39.824 67.159 39.545 69.11-39.545z" fill="url(#paint10_linear)"/><path d="M236.737 109.725v185.474l-69.11 37.875V149.27l69.11-39.545z" fill="url(#paint11_linear)"/><path d="M100.468 109.725V293.25l67.159 39.824V149.27l-67.159-39.545z" fill="url(#paint12_linear)"/><path d="M322.845 202.183l-69.11-39.545-67.159 39.545 67.159 39.824 69.11-39.824z" fill="#63749D"/><path d="M322.846 202.183v142.03l-69.11 37.596V242.007l69.11-39.824z" fill="#3C5185"/><path d="M186.576 202.183v139.802l67.159 39.824V242.007l-67.159-39.824z" fill="#4F6291"/><path d="M410.07 310.516l-69.11-39.824-67.16 39.824 67.16 39.545 69.11-39.545z" fill="#F2F6FC"/><path d="M410.07 310.516v83.825l-69.11 37.596v-81.876l69.11-39.545z" fill="#D8E5F5"/><path d="M273.8 310.516v81.597l67.16 39.824v-81.876l-67.16-39.545z" fill="#E8EFF9"/><path opacity=".44" d="M231.163 191.322c13.934-8.076 36.785-8.076 50.997 0 13.933 8.077 13.933 21.166 0 29.242-13.934 8.076-36.784 8.076-50.997 0-13.933-7.798-13.933-21.165 0-29.242z" fill="url(#paint13_radial)"/><path d="M255.686 89.395v20.887l-6.13-3.342V85.775l6.13 3.62z" fill="url(#paint14_linear)"/><path d="M294.143 165.701l-4.18.836c-1.672-1.95-3.901-3.621-6.688-5.292-14.491-8.354-38.456-8.354-53.226 0-2.786 1.671-5.016 3.342-6.688 5.292l-4.18-.836v4.456c0 5.57 3.623 11.14 10.868 15.317 14.491 8.355 38.457 8.355 53.226 0 7.245-4.177 10.868-9.747 10.868-15.317v-4.456z" fill="#E5E9F4"/><path d="M230.049 150.106c14.491-8.355 38.456-8.355 53.226 0 14.49 8.355 14.49 22.279 0 30.634-14.491 8.354-38.457 8.354-53.226 0-14.77-8.633-14.77-22.279 0-30.634z" fill="#FAFBFD"/><path d="M233.672 152.055c12.54-7.24 33.161-7.24 45.98 0 12.54 7.241 12.54 19.216 0 26.457s-33.162 7.241-45.98 0c-12.819-7.241-12.819-19.216 0-26.457z" fill="#A5CBEF"/><path d="M237.295 154.562c10.589-5.849 27.867-5.849 38.456 0 10.589 5.848 10.589 15.874 0 21.722-10.589 5.848-27.867 5.848-38.456 0-10.59-6.127-10.59-15.874 0-21.722z" fill="#FAFBFD"/><path d="M256.523 177.955c12.312 0 22.293-5.611 22.293-12.532s-9.981-12.532-22.293-12.532c-12.313 0-22.294 5.611-22.294 12.532s9.981 12.532 22.294 12.532z" fill="#A5CBEF"/><path d="M244.261 159.018c6.688-3.342 17.556-3.342 24.244 0 6.688 3.341 6.688 8.911 0 12.532-6.688 3.342-17.556 3.342-24.244 0-6.688-3.342-6.688-8.912 0-12.532z" fill="#FAFBFD"/><path d="M248.998 161.524c4.18-2.228 10.59-2.228 14.77 0s4.18 5.57 0 7.519c-4.18 2.228-10.59 2.228-14.77 0-4.18-1.949-4.18-5.291 0-7.519z" fill="#A5CBEF"/><path d="M256.523 166.258c-.836 0-1.672-.835-1.672-1.671V86.332c0-.836.836-1.671 1.672-1.671s1.672.835 1.672 1.67v78.256c0 .836-.836 1.671-1.672 1.671z" fill="#3C5185"/><path d="M256.522 89.117v21.165l9.197-5.291V83.825l-9.197 5.292z" fill="url(#paint15_linear)"/><path opacity=".44" d="M136.695 94.686c16.999-9.747 44.587-9.747 61.307 0 16.999 9.748 16.999 25.621 0 35.369-16.999 9.747-44.587 9.747-61.307 0-16.72-9.748-16.72-25.621 0-35.369z" fill="url(#paint16_radial)"/><path d="M191.593 84.382h-1.115c-1.115-2.228-3.065-4.177-6.131-5.848-9.753-5.57-25.358-5.57-35.112 0-3.065 1.671-5.016 3.62-6.131 5.848h-1.114v3.62c-.279 3.9 2.229 7.52 7.245 10.583 9.475 5.57 25.359 5.57 35.112 0 5.016-2.785 7.524-6.683 7.246-10.582v-3.62z" fill="url(#paint17_linear)"/><path d="M184.348 94.408c9.753-5.57 9.753-14.481 0-20.051-9.754-5.57-25.359-5.57-35.113 0-9.474 5.57-9.474 14.481 0 20.051 9.754 5.57 25.359 5.57 35.113 0z" fill="#3C5185"/><path d="M157.317 67.394v13.368c0 1.392 1.115 2.785 2.787 3.62 3.623 2.228 9.754 2.228 13.376 0 1.672-1.114 2.787-2.228 2.787-3.62V67.394h-18.95z" fill="url(#paint18_linear)"/><path d="M173.758 73.8c-3.901 2.228-10.032 2.228-13.933 0-1.394-.836-2.23-1.671-2.508-2.507V70.18h-.279v4.178c0 1.392 1.115 2.785 2.787 3.899 3.901 2.228 10.032 2.228 13.933 0 1.951-1.114 2.787-2.507 2.787-3.9v-3.898l-.279.278v.557c-.278.836-1.114 1.671-2.508 2.507z" fill="#FFE188"/><path d="M173.758 74.914c-3.901 2.228-10.032 2.228-13.933 0-1.951-1.114-2.787-2.507-2.787-3.9v4.178c0 1.393 1.115 2.785 2.787 3.899 3.901 2.228 10.032 2.228 13.933 0 1.951-1.114 2.787-2.506 2.787-3.899v-4.177c0 1.67-.836 3.063-2.787 3.899z" fill="url(#paint19_linear)"/><path d="M132.515 7.798l10.032-5.57c2.787-1.671 6.131-1.393 8.918.278l6.409 3.9-9.475 5.29-6.409-4.177s-1.951-1.392-4.18-1.114l-5.295 1.393z" fill="url(#paint20_linear)"/><path d="M135.859 32.583l10.311-5.848s-10.869-6.684-7.525-20.608c0 0-3.622.278-5.016 1.392 0 0-3.901 1.95-3.901 8.076l6.131 16.988z" fill="url(#paint21_linear)"/><path d="M136.695 36.76l-7.524-19.772c-.278-.557-.278-1.114-.278-1.671 0-3.342 1.672-6.405 4.737-8.076 3.065-1.671 6.409-1.671 9.475 0l5.573 3.899-.557.557-5.574-1.95c-2.508-1.392-4.458-2.506-6.966-1.114-2.508 1.393-4.459 3.899-4.459 6.962 0 .557 0 .836.279 1.393l6.688 19.216-1.394.557z" fill="#FFDA6A"/><path d="M191.036 55.14c9.196-11.696 13.097-40.937 0-48.456-13.098-7.52-34.277-7.52-47.374 0-13.098 7.519-8.639 36.482 0 48.457 6.688 9.19 15.048 16.152 23.687 16.152 8.639 0 17.835-8.633 23.687-16.152z" fill="url(#paint22_linear)"/><path d="M188.528 29.241c11.704-6.683 11.704-17.544 0-24.228-11.704-6.684-30.654-6.684-42.079 0s-11.425 17.545 0 24.228c11.425 6.684 30.654 6.684 42.079 0z" fill="#FFDA6A"/><path d="M187.971 28.406c11.146-6.405 11.146-16.71 0-23.115-11.147-6.405-29.539-6.405-40.686 0-11.147 6.405-11.147 16.71 0 23.115 11.147 6.405 29.26 6.405 40.686 0z" fill="url(#paint23_linear)"/><path d="M177.102 64.888s6.131 0 12.819-1.67c2.508-.558 8.081-3.343 9.475-7.799 1.672-4.734 3.065-11.696.278-16.987 0 0-3.065-6.127-10.31-6.963l-.836 4.178s2.508-1.393 5.852.278c2.786 1.393 3.901 4.735 4.458 7.52.836 3.898.558 9.468-3.622 14.48 0 0-10.59 5.57-16.999 5.014l-1.115 1.949z" fill="#FFDA6A"/><path d="M189.364 31.748l7.524-5.57s22.294 17.266-2.229 34.811c0 0 2.787-2.785 3.623-4.177 3.065-6.127 6.966-18.937-8.918-25.064z" fill="url(#paint24_linear)"/><path d="M178.217 63.217l7.803-4.734s6.967 1.67 9.475-.557c0 0-3.902 5.291-17.278 5.291z" fill="url(#paint25_linear)"/><path d="M83.469 337.251c-.836 0-1.393-.836-1.393-1.671l28.145-215.829c0-.836.836-1.393 1.672-1.114.836 0 1.394.835 1.115 1.671L84.862 336.137c0 .835-.557 1.114-1.393 1.114zM124.991 360.644s-.279 0 0 0c-.836 0-1.394-.835-1.394-1.671l27.31-224.463c0-.835.836-1.392 1.672-1.113.836 0 1.393.835 1.114 1.67l-27.309 224.185c-.279.835-.836 1.392-1.393 1.392z" fill="#3C5185"/><path d="M150.071 155.676l-40.128-23.95.279-3.064 40.685 24.229-.836 2.785zM146.17 188.816l-40.407-23.95.557-3.064 40.407 24.229-.557 2.785zM141.99 221.956l-40.129-23.95.279-3.063 40.686 24.228-.836 2.785zM138.088 255.096l-40.407-23.95.558-3.063 40.406 24.229-.557 2.784zM133.909 288.237L93.78 264.008l.279-2.785 40.686 24.229-.836 2.785zM130.007 321.098L89.6 297.148l.557-2.785 40.686 24.229-.836 2.506zM125.827 354.239l-40.129-23.95.279-2.785 40.686 24.228-.836 2.507z" fill="#3C5185"/><path d="M102.14 277.097l13.377-6.962c1.393-.557 1.393-2.506 0-3.342h-.279c-2.229-1.114-5.016-1.392-7.524-.557l-9.754 2.506c-1.114.279-1.95 1.114-1.95 2.507v2.228c0 .835.557 1.671 1.393 2.228l2.23 1.392a3.86 3.86 0 002.507 0z" fill="#3C5185"/><path d="M101.304 272.92c-2.786 0-5.573.278-5.573-2.507l.279-61.267a4.994 4.994 0 015.016-5.013c2.786 0 5.573 3.063 5.573 5.848l-.279 57.926c.279 2.785-1.95 5.013-5.016 5.013z" fill="url(#paint26_linear)"/><path opacity=".3" d="M96.288 213.88v3.62c0 5.013 2.508 9.747 6.688 12.532l3.622 2.507.279-14.482-10.59-4.177z" fill="#3C5185"/><path d="M121.09 252.033l13.376-6.962c1.393-.557 1.393-2.507 0-3.342h-.279c-2.229-1.114-5.016-1.393-7.524-.557l-10.032 2.506c-1.115.279-1.951 1.114-1.951 2.507v2.228c0 .835.558 1.671 1.394 2.228l2.229 1.392c.836.279 1.951.557 2.787 0z" fill="#3C5185"/><path d="M119.696 248.97h-.279c-2.786-.279-4.458-1.671-4.458-2.507l3.065-17.823-8.081-5.291c-4.181.278-8.082-1.114-11.147-4.178-1.394-1.392-2.23-3.342-2.23-5.291v-12.811c0-2.784 1.951-5.012 4.459-5.291 3.065-.278 5.573 1.95 5.573 5.013v7.241c0 1.392.558 2.785 1.673 3.899 1.114.835 2.229 1.392 3.622 1.114l4.738-1.393 10.589 9.19c.836 1.114 1.115 2.507 1.115 3.899l-3.344 19.494c-.279 2.507-2.508 4.735-5.295 4.735z" fill="url(#paint27_linear)"/><path d="M109.943 185.196l-10.59-18.381c-.835-1.392-.278-3.342 1.115-4.456 1.394-.835 3.344-.278 4.459 1.114l8.36 14.482 16.72-3.342c1.672-.279 3.344.835 3.623 2.506.279 1.671-.836 3.342-2.508 3.621l-21.179 4.456z" fill="#F2B1B5"/><path d="M120.254 172.942l-1.394 39.824c-6.13 3.62-19.785 1.671-23.408-4.456v-42.887c0-5.013 5.574-8.355 10.032-5.848l10.032 5.848c3.066 1.392 4.738 4.456 4.738 7.519z" fill="#fff"/><path d="M114.68 176.005c-1.393 0-2.508-.835-3.065-1.949-.558-1.671.278-3.342 1.951-4.177l15.884-5.849c.836-.278 1.393-.835 1.672-1.392l8.917-13.925c.836-1.392 2.787-1.949 4.459-.835 1.393.835 1.95 2.785.836 4.456l-8.918 13.924c-1.114 1.671-2.786 3.064-4.737 3.899l-15.884 5.848h-1.115z" fill="#F2B1B5"/><path opacity=".3" d="M111.616 173.778s-.279.835 1.114 1.67c.279.279.836 1.114 1.394 1.114l5.852 3.064.278-6.962v-.836l-4.458-.835c-2.23-.279-3.623.835-4.18 2.785z" fill="#48486A"/><path d="M114.68 176.562c-1.672 0-3.065-.835-3.623-2.506-.836-1.949.279-4.177 2.23-5.013l8.917-3.342c1.951-.835 4.18.279 5.016 2.228.836 1.95-.279 4.178-2.229 5.013l-8.918 3.342c-.557.278-.836.278-1.393.278z" fill="#fff"/><path d="M107.992 162.081h-1.393c-2.787 0-5.295-2.228-5.295-5.291v-13.925h16.442v9.19c0 5.57-4.459 10.026-9.754 10.026z" fill="#F2B1B5"/><path d="M107.156 167.372h-.557c-1.672 0-3.066-1.392-3.066-3.063v-10.026c0-.557.279-.835.836-.835h5.295c.557 0 .836.278.836.835v10.026c-.279 1.671-1.672 3.063-3.344 3.063zM135.859 176.841c.278 1.949-1.951 3.62-3.902 3.62-1.95 0-3.344-1.392-3.344-3.342 0-1.949.558-3.62 2.508-3.62 1.951 0 4.459 1.949 4.738 3.342zM140.039 148.156c2.787-2.784 6.41-2.227 6.967-.557.836 1.671 0 3.621-1.672 4.456-1.672.836-1.672-1.114-2.508-2.785-.557-1.671-3.901.279-2.787-1.114z" fill="#F2B1B5"/><path d="M129.45 175.448c0 .836-.836 1.671-1.672 1.671s-1.672-.835-1.672-1.671c0-.835.836-1.67 1.672-1.67 1.115 0 1.672.835 1.672 1.67zM139.482 150.663l-2.508-3.342c-.279-.557-.279-1.114.279-1.671h.278c.558-.278 1.115-.278 1.672.279l2.508 3.341c.279.557.279 1.114-.278 1.671h-.279c-.557.279-1.393.279-1.672-.278z" fill="#F2B1B5"/><path d="M120.254 138.131c0 .557-.557.557-1.115.835-3.065.557-6.409 0-9.475-.835l-4.18-.836c-1.393 0-2.786.279-3.901 1.114-1.115.836-1.672 2.507-1.115 3.621-1.393.557-1.672 2.228-1.672 3.62 0 1.949.28 3.62.836 5.57.28 1.114.836 1.949.836 3.063s-.278 2.228.279 3.342c.279.279.836 1.114 1.115 1.114.557 0 1.114-.557 1.672-.835l1.672-.836c1.114-.557 2.508-1.392 2.786-2.506.279-.836 0-1.95.279-3.064.279-.557.836-1.114 1.393-1.114.279 0 .558.557.837 1.114.278.557.557 1.114.557 1.671 0 .279 0 .279.279.557.278.279.836 0 1.114-.278.279-.279.279-.836.279-1.393s-.279-.835-.279-1.392c0-1.393 1.115-2.228 2.508-2.785 1.115-.557 2.508-.557 3.902-.835 1.672-.557 3.065-2.228 3.344-4.178 0-1.392-.558-3.342-1.951-4.734z" fill="url(#paint28_linear)"/><path d="M120.254 138.131c0 .278 0 .278-.279.557 1.115 1.114 1.672 3.063 1.394 4.734-.279 1.95-1.672 3.342-3.345 4.178-1.114.556-2.508.556-3.901.835-1.115.557-2.508 1.392-2.508 2.785 0 .557.279.835.279 1.392 0 .557 0 .836-.279 1.393l-.279.278c.279.279.836 0 1.115-.278.279-.279.279-.836.279-1.393s-.279-.835-.279-1.392c0-1.393 1.115-2.228 2.508-2.785 1.115-.557 2.508-.557 3.902-.835 1.672-.557 3.065-2.228 3.344-4.178 0-1.949-.558-3.899-1.951-5.291z" fill="#FFDA6A"/><path d="M13.245 369.277v4.456c0 1.114.557 2.228 1.672 2.785l.557.557c2.787 1.671 5.852 1.671 8.639 0l8.081-4.456c.836-.557.836-1.949 0-2.506-1.672-.836-3.344-2.228-5.016-1.95-.836 0-1.672.279-2.23.279l-3.622.557-8.081.278z" fill="#4A65A3"/><path d="M32.194 371.784l-8.081 4.177c-2.787 1.392-6.131 1.392-8.639 0l-.557-.557c-1.115-.557-1.672-1.671-1.672-2.785v1.114c0 1.114.557 2.228 1.672 2.785l.557.557c2.787 1.671 5.852 1.671 8.639 0l8.081-4.456c.557-.278.836-1.114.557-1.671 0 .279-.278.557-.557.836z" fill="#3C5185"/><path d="M26.343 371.227l.836-.557-1.115-2.228h-1.115l1.394 2.785zM24.391 371.784l.836-.557-1.114-2.507h-1.115l1.393 3.064z" fill="#fff"/><path d="M26.342 378.467v4.456c0 1.114.558 2.228 1.672 2.785l.558.557c2.786 1.671 5.852 1.671 8.638 0l8.082-4.456c.836-.557.836-1.949 0-2.506-1.672-.836-3.344-2.228-5.016-1.95-.836 0-1.672.279-2.23.279l-3.622.557-8.082.278z" fill="#4A65A3"/><path d="M45.292 380.974l-8.082 4.456c-2.786 1.392-6.13 1.392-8.638 0l-.558-.557c-1.114-.557-1.672-1.671-1.672-2.785v1.114c0 1.114.558 2.228 1.672 2.785l.558.557c2.786 1.67 5.852 1.67 8.638 0l8.082-4.456c.557-.279.836-1.114.557-1.671l-.557.557zM16.031 312.187c-.557 0-1.114-.279-1.672-.836l-4.737-4.455c-3.344-3.342-5.295-8.077-5.016-12.811a17.444 17.444 0 016.13-12.254l5.295-4.177c1.115-.835 2.508-.557 3.623.279.836 1.114.557 2.506-.279 3.62l-5.294 4.177c-2.508 2.228-4.18 5.292-4.459 8.633-.279 3.342 1.115 6.684 3.623 8.912l4.737 4.456c1.115.835 1.115 2.506 0 3.62-.557.557-1.393.836-1.95.836z" fill="#3C5185"/><path d="M17.147 374.012c-2.508 0-3.902-1.95-3.902-4.456l1.394-27.571-1.951-29.798c0-2.507 1.95-4.456 4.459-4.456 2.508 0 6.966 1.949 6.966 4.456l-2.786 57.369c.278 2.506-1.672 4.456-4.18 4.456z" fill="url(#paint29_linear)"/><path d="M14.36 307.453c0-3.621 1.95-20.052 5.015-18.102l15.884 9.19c1.394.835-2.229-.279-2.229 1.392v18.102c1.393.836 2.23 2.228 2.23 3.62v57.369c0 2.507-1.951 4.456-4.46 4.456-2.507 0-4.458-1.949-4.458-4.456l.557-29.52-2.229-18.658-10.032-5.57c-1.393-.836-2.508-2.507-2.508-4.177l2.23-13.646z" fill="url(#paint30_linear)"/><path opacity=".3" d="M17.703 307.731c1.115.835 1.115 2.506 0 3.62-.557.557-1.115.836-1.672.836-.557 0-1.115-.279-1.672-.836l-2.787-2.785c0-.835 0-1.392.279-1.671.279-1.67.279-3.341.279-5.012.278.557.836.835 1.114 1.392l4.459 4.456z" fill="#231F20"/><path d="M12.688 285.173l.836 13.368c-.279 2.785-.279 5.57-.558 8.633-.278 1.671-1.114 12.254-.836 13.646.279 1.114 3.066 3.342 6.688 5.291.279.279.836-8.633 1.115-8.354.279.278.557 9.19 1.115 9.468 4.737 2.228 10.59 3.621 14.212 1.671l-.557-16.431.835-10.304c.558-6.962 1.951-16.431-5.015-20.608-.28-.279-.558-.279-.837-.557l-6.966-3.899a5.065 5.065 0 00-5.574 0c-3.065 1.671-4.737 4.734-4.458 8.076z" fill="#3C5185"/><path d="M23.834 281.553a2.497 2.497 0 01-2.508-2.506v-9.748a2.497 2.497 0 012.508-2.506 2.497 2.497 0 012.508 2.506v9.748a2.497 2.497 0 01-2.508 2.506z" fill="#F2B1B5"/><path d="M21.605 278.768v-16.431h12.26v4.178c0 6.683-5.572 12.253-12.26 12.253z" fill="#F2B1B5"/><path d="M36.653 258.995c-.557-1.392-1.95-2.228-3.344-1.392-.557.278-1.114.557-1.672 0-.836-.557-1.114-.836-2.23-.557-.556 0-1.114.557-1.392.557-.836 0-1.672-.836-2.509-.557-.835.278-.835.278-1.95.278-.558 0-1.115 0-1.672.279-1.115.557-1.115 1.392-1.672 1.949-.558.557-1.393.279-1.95.836-.558.557-.837 1.392-.28 1.949.28.279.28.557.28 1.114 0 .279-.28.279-.558.557-.558.557 0 1.671.279 2.507 0 .278.278.278.278.557 0 .278-.278.278-.278.556-.558.836-.558 2.228.278 3.064.279.278.836.557 1.115 1.114 0 .278 0 .557-.279.835-.279 1.114.279 2.228 1.115 2.785 1.114.557 0 2.507 1.95 2.785 1.394 0 2.509-1.671 2.787-2.785 0 .279.836-.278.836-.278.279-.279.279-.836.279-1.114.279-.836.279-1.393.557-2.228 0-.279 0-3.342.279-3.342.557 0 1.115 0 1.672-.279 1.393-.556.836-1.392 1.393-2.227.279-.557.836-.557 1.115-1.114s.279-1.114.279-1.671c1.114.278 2.786.557 3.901 0 .836-.279 2.23-1.114 2.23-2.228-.558-1.114-.558-1.671-.837-1.95z" fill="#3C5185"/><path opacity=".2" d="M36.931 260.388c0 1.114-1.393 1.671-2.229 2.228-.557.278-1.393.278-2.23.278.28 0 .837 0 1.115-.278.836-.279 2.23-1.114 2.23-2.228 0-.557 0-.836-.279-1.393-.279-.835-1.115-1.392-1.95-1.671 1.114-.278 2.507.557 2.786 1.671.557.279.557.836.557 1.393z" fill="#EF9EA3"/><path d="M29.407 269.299c0 1.114-.835 1.671-1.672 1.671-1.114 0-1.671-.835-1.671-1.671 0-1.114.835-1.671 1.671-1.671.837-.278 1.672.557 1.672 1.671z" fill="#F2B1B5"/><path d="M39.44 380.417l.836-.557-1.114-2.228h-1.115l1.393 2.785zM37.489 380.974l.836-.557-1.115-2.507h-1.114l1.393 3.064z" fill="#fff"/><path d="M32.472 292.414l11.704-4.177c3.902-1.393 6.967-5.013 7.803-9.19l3.623-18.659c.279-1.393-.557-2.507-1.95-2.785-1.394-.279-2.509.557-2.787 1.949l-3.623 18.659c-.557 2.506-2.23 4.456-4.459 5.291L31.08 287.68c-1.393.557-1.95 1.949-1.393 3.063 0 1.393 1.393 2.228 2.786 1.671z" fill="#F2B1B5"/><path d="M32.473 292.693l11.704-4.178c4.18-1.392 6.967-5.013 7.803-9.19l2.787-15.038c.278-1.393-.558-3.064-2.23-3.342-1.393-.279-3.065.557-3.344 2.228l-2.787 15.038c-.557 2.228-2.229 4.456-4.458 5.013l-11.704 4.177c-1.394.557-2.23 2.228-1.672 3.621 1.114 1.392 2.508 2.228 3.9 1.671z" fill="#3C5185"/><path d="M50.865 260.945c.279 0 .558 0 .558-.279l1.114-5.848c0-.279 0-.557-.278-.557-.279 0-.558 0-.558.278l-1.114 5.849c-.279.278 0 .557.278.557z" fill="#F2B1B5"/><path d="M103.534 414.393c.557 0 .836 0 1.393-.279 1.393-.835 1.951-2.506 1.115-3.899l-9.754-17.545c-1.114-1.949-.557-4.455 1.394-5.569l12.54-8.634c1.393-.835 1.672-2.785.836-4.177-.836-1.392-2.787-1.671-4.18-.835l-12.54 8.633c-4.46 3.063-5.853 8.633-3.345 13.367L100.747 413c.836.836 1.951 1.393 2.787 1.393z" fill="#EF9EA3"/><path d="M139.203 352.568c.558.278.836 0 1.115-.557l2.229-5.848c.279-.557 0-.836-.557-1.114-.557-.279-.836 0-1.115.557l-2.229 5.848c0 .557.279.835.557 1.114z" fill="#F2B1B5"/><path d="M102.976 483.736l3.065-1.67 3.065-1.671 6.967-3.899c1.672-1.114 1.393-3.621-.279-4.178-1.393-.557-2.786-.278-4.18.279l-5.294 2.506-6.41 2.507c-.557.278-.836.835-.836 1.392v1.671c0 1.95 1.672 3.62 3.902 3.62v-.557z" fill="#48486A"/><path d="M101.861 475.939l4.18-1.114 3.066-1.671c1.672.835 1.672 3.063 0 4.177l-4.738 2.785h-.279c-1.393.835-3.065.557-3.901-.557-.836-.835-1.393-1.671-1.115-1.949l1.951-.557c0-.557.279-1.114.836-1.114z" fill="#F2B1B5"/><path d="M102.697 480.673c1.951 0 3.066-1.671 3.066-3.62V409.38c0-1.95-1.672-3.621-3.623-3.621-1.951 0-4.459 13.089-4.459 15.317l.836 23.95.558 32.027c0 1.949 1.672 3.62 3.622 3.62z" fill="#F2B1B5"/><path d="M115.516 490.699l3.065-1.671 3.065-1.671 6.967-3.899c1.672-1.114 1.393-3.62-.279-4.177-1.393-.557-2.786-.279-4.18.278l-5.294 2.506-6.41 2.507c-.557.278-.836.835-.836 1.392v1.671c0 1.95 1.672 3.621 3.902 3.621v-.557z" fill="#48486A"/><path d="M114.402 482.901l4.18-1.114 3.065-1.671c1.672.836 1.672 3.063 0 4.177l-4.737 2.785h-.279c-1.393.836-3.065.557-3.901-.557-.836-.835-1.394-1.671-1.115-1.949l1.951-.557c0-.557.278-1.114.836-1.114z" fill="#F2B1B5"/><path d="M115.238 487.635c1.95 0 3.065-1.671 3.065-3.62V416.62c0-1.949-1.672-3.62-3.623-3.62-1.95 0-6.688 2.785-6.688 4.734l3.066 34.255.557 32.026c0 1.949 1.672 3.62 3.623 3.62zM109.386 381.531h.557l3.066-.557c12.819-2.228 23.687-10.583 29.26-22.279l2.508-5.292c.557-1.392 0-3.342-1.393-3.899-1.394-.557-3.344 0-3.902 1.393l-2.508 5.291c-4.737 10.026-13.933 17.267-24.801 18.937l-3.066.557c-1.672.279-2.786 1.671-2.508 3.342 0 1.393 1.394 2.507 2.787 2.507z" fill="#F2B1B5"/><path d="M98.239 405.202l-1.672-37.596c0-4.177 4.458-6.962 8.36-5.013.557.279 1.393 1.114 1.672 1.671 2.508 4.178 5.573 6.963 8.081 9.748l2.508-.836c1.951-.557 3.902.279 4.738 2.228.557 1.949-.279 3.899-2.23 4.734-.278 0-.557.279-1.114.279.278 1.392.557 2.785.557 4.456l-2.229 16.709 2.508 16.431.836 28.406c-1.672 1.114-3.902 1.671-6.131 1.392-.279 0-2.787-.278-3.344-.278-6.409-1.114-12.261-1.393-14.49-6.127l-.837-11.975c-.279-8.355.557-16.431 2.787-24.229z" fill="url(#paint31_linear)"/><path d="M105.763 368.442c1.114 0 2.229-.836 2.229-2.228v-10.026h-4.459v10.026c0 1.114.836 2.228 2.23 2.228z" fill="#F2B1B5"/><path d="M101.304 362.872l4.459.557c3.344.557 6.131-2.228 5.852-5.291v-.557l-2.229-10.304-10.868 2.227 2.786 13.368z" fill="#F2B1B5"/><path d="M92.666 374.569c.278-.836.836-1.393.836-2.228.278-1.671-1.115-3.342-1.672-5.013-.558-2.507 1.114-4.735 1.114-7.241 0-2.785-.836-5.013 0-7.798 0-.557.279-.835.558-1.114 1.393-3.62 5.016-5.291 8.638-6.126 1.672-.279 3.066-.279 4.738 0 .836 0 1.95.278 2.786.835.279.279.836.557.836.836.279.557.558 1.114.558 1.67-.279 1.393-1.951 1.95-2.23 3.342 0 .557.279 1.393.558 2.228 0 .836 0 1.671-.558 2.507-.557 1.392-2.229 2.785-1.95 4.456 0 .835.278 1.392.557 2.227.279 2.507-2.508 4.735-1.672 7.241.557 1.671 2.508 3.064 2.229 4.734 0 .836-.557 1.393-.557 1.95-.279 1.392.836 3.063.279 4.456-2.23 4.456-9.754 3.62-13.376 1.671-.836-.557-1.672-1.114-2.23-1.95-1.393-2.228-.557-4.734.558-6.683z" fill="url(#paint32_linear)"/><path d="M107.714 411.608c-3.623 0-7.245-.557-10.59-1.671.28-1.671.837-3.342 1.115-4.735v-1.114c5.852 1.95 13.376 1.95 19.228 0l.836 5.849c-3.065 1.114-6.688 1.671-10.589 1.671z" fill="#48486A"/><path opacity=".6" d="M317.273 289.908c14.212-11.14 37.899-11.14 52.111 0 14.212 11.139 14.212 28.963 0 40.102-14.212 11.14-37.899 11.14-52.111 0-14.212-11.139-14.212-29.241 0-40.102z" fill="url(#paint33_radial)"/><path d="M377.465 275.705c0-.836-1.114-1.393-2.508-1.393h-5.573c-.836 0-2.508 1.114-2.787.557-.278-.557-.278-1.114.279-1.392l3.901-2.228c1.115-.557-5.573-.279-6.409-.836v-5.012c-1.115-.557-2.787-.557-3.623 0l-3.901 2.227c-.557.279-1.672.557-2.508.279-.558-.279-1.115-.279-1.672-.279-.836-.278-1.394-.556-1.394-1.113v-3.342c0-.836-1.114-1.393-2.508-1.393h-9.196c-1.393 0-2.508.557-2.508 1.393v3.342c0 .557-.557 1.113-1.393 1.113-.557 0-1.115.279-1.672.279-.836.278-1.951.278-2.508-.279l-3.901-2.227c-1.115-.557-2.787-.557-3.623 0l-.557 5.291c-1.115.557-6.967 0-5.853.557l3.902 2.228c.557.278.836.835.557 1.392-.278.279-1.95-.557-2.786-.557h-5.574c-1.393 0-2.508.557-2.508 1.393v7.797c0 .836 1.115 1.393 2.508 1.393h3.344v6.684c0 .278.279.557.836.835l6.41 3.62c.557.279 1.393.557 2.229.279.557 0 1.115-.279 1.393-.279l3.902-2.227c.557-.279 1.672-.557 2.508-.279.557.279 1.114.279 1.672.279.836.278 1.393.556 1.393 1.113v3.342c0 .836 1.115 1.393 2.508 1.393h9.196c1.393 0 2.508-.557 2.508-1.393v-3.342c0-.557.557-1.113 1.393-1.113.558 0 1.115-.279 1.672-.279.836-.278 1.951-.278 2.509.279l3.901 2.227c.279.279.836.279 1.393.279.836 0 1.672 0 2.23-.279l6.409-3.62c.557-.278.557-.557.836-.835v-6.684h3.344c1.393 0 2.508-.557 2.508-1.393l-.279-7.797zm-20.9 6.405c-1.393 4.734-10.032 7.241-17.556 5.57-5.852-1.393-9.196-4.735-8.081-8.355 1.393-4.734 10.032-7.241 17.556-5.57 5.852 1.393 9.475 5.013 8.081 8.355z" fill="#3C5185"/><path d="M371.613 267.072v-4.178h-5.852l-1.393-.835c-1.115-.557-2.787-.557-3.623 0l-1.393.835h-8.082v-3.063c0-.836-1.114-1.393-2.508-1.393h-9.196c-1.393 0-2.508.557-2.508 1.393v3.063h-8.36l-1.393-.835c-1.115-.557-2.787-.557-3.623 0l-1.115.835h-5.852v4.178c0 .278.279.835.836 1.113l3.344 1.95h45.981l3.901-2.228c.557-.279.836-.557.836-.835z" fill="#3C5185"/><path d="M367.712 277.654h7.246c1.393 0 2.508-.557 2.508-1.392v-5.292c0-.835-1.115-1.392-2.508-1.392h-5.574c-.836 0-1.672-.279-1.95-.836-.279-.278-.279-.557-.558-.835-.278-.557-.278-1.114.279-1.392l3.901-2.228c1.115-.557 1.115-1.671 0-2.228l-6.409-3.621c-1.115-.557-2.787-.557-3.623 0l-3.901 2.228c-.558.279-1.672.557-2.508.279-.558-.279-1.115-.279-1.672-.279-.836-.278-1.394-.557-1.394-1.114v-3.342c0-.835-1.114-1.392-2.508-1.392h-9.196c-1.393 0-2.508.557-2.508 1.392v2.785c0 .557-.557 1.114-1.393 1.114-.557 0-1.115.279-1.672.279-.836.278-1.951.278-2.508-.279l-3.901-2.228c-1.115-.557-2.787-.557-3.623 0l-6.41 3.621c-1.114.557-1.114 1.671 0 2.228l3.902 2.228c.557.278.836.835.557 1.392-.279.278-.557.557-.557 1.114-.279.557-1.115.835-1.951.835h-5.573c-1.394 0-2.508.557-2.508 1.393v5.291c0 .836 1.114 1.393 2.508 1.393h5.573c.836 0 1.672.278 1.951.835.278.279.278.557.557.836.279.557.279 1.114-.279 1.392l-3.901 2.228c-1.115.557-1.115 1.671 0 2.228l6.41 3.62c1.114.557 2.786.557 3.622 0l3.902-2.228c.557-.278 1.672-.557 2.508-.278.557.278 1.114.278 1.672.278.836.279 1.393.557 1.393 1.114v3.342c0 .836 1.115 1.393 2.508 1.393h9.196c1.393 0 2.508-.557 2.508-1.393v-3.342c0-.557.557-1.114 1.393-1.114.558 0 1.115-.278 1.672-.278.836-.279 1.951-.279 2.509.278l3.901 2.228c1.115.557 2.787.557 3.623 0l6.409-3.62c1.115-.557 1.115-1.671 0-2.228l-3.901-2.228c-.558-.278-.836-.835-.558-1.392 0-.557.558-1.393.836-1.393zm-36.505-5.57c1.393-4.734 10.032-7.24 17.556-5.569 5.852 1.392 9.196 4.734 8.081 8.354-1.393 4.735-10.032 7.241-17.556 5.57-5.852-1.392-9.196-4.734-8.081-8.355z" fill="url(#paint34_linear)"/><path d="M130.565 75.47l-1.394 3.064-3.901-1.95c-.279 0-.279 0-.279.28l2.508 4.733-.836 3.9c0 .278 0 .278.279.278l3.065-.279 3.344 4.178h.279l-.557-4.456 3.065-1.671v-.279l-3.901-2.228-1.672-5.57c.278 0 0 0 0 0z" fill="url(#paint35_linear)"/><path d="M125.827 77.977l2.787 1.671.557-1.114-3.622-1.95c-.279 0-.279 0-.279.28l.557 1.113zM136.695 82.99l-3.901-2.228-1.672-5.013h-.279l-.557 1.393 1.393 4.177 3.901 2.228v.278l-3.065 1.671.279 2.785 1.114 1.393h.279l-.557-4.456 3.065-2.228z" fill="#FFC107"/><path d="M100.747 48.457l-1.95 4.456-5.574-3.063c-.279 0-.558 0-.279.278l3.623 6.962-1.115 5.849c0 .278.279.557.279.557l4.737-.557 5.016 6.126c.279.279.558 0 .558-.278l-.837-6.684 4.459-2.506c.279 0 .279-.279 0-.279l-5.852-3.342-2.508-7.519c-.279 0-.557-.278-.557 0z" fill="url(#paint36_linear)"/><path d="M93.78 52.078l4.18 2.227.557-1.392-5.573-3.063c-.279 0-.557 0-.279.278l1.115 1.95zM109.665 59.318l-5.853-3.342-2.508-7.519c0-.278-.278-.278-.278 0l-1.115 2.228 2.229 6.127 5.853 3.342c.278 0 .278.278 0 .278l-4.459 2.507.557 3.899 1.672 1.949c.279.278.558 0 .558-.279l-.836-6.683 4.458-2.507c-.278.279-.278.279-.278 0z" fill="#FFC107"/><path d="M111.615 10.583l-2.787 5.848-7.524-4.177c-.279-.279-.557.278-.557.556l5.294 9.47-1.393 7.797c0 .278.279.557.557.557l6.131-.557 6.688 8.076c.279.279.557 0 .557-.278l-1.114-8.634 6.13-3.341c.279 0 .279-.279 0-.557l-7.802-4.456-3.902-10.304c0-.279-.278-.279-.278 0z" fill="url(#paint37_linear)"/><path d="M102.419 15.595l5.573 3.064.836-1.95-7.245-3.899c-.279-.278-.558.279-.558.557l1.394 2.228zM123.598 25.343l-7.803-4.456-3.901-10.304c0-.279-.279-.279-.557 0l-1.394 2.784 3.066 8.355 7.802 4.456c.279 0 .279.278 0 .557l-6.13 3.342.557 5.291 2.229 2.507c.279.278.558 0 .558-.279l-.558-8.355 6.131-3.341v-.557z" fill="#FFC107"/><path d="M209.149 74.357l-1.393 2.785-3.344-1.95s-.279 0-.279.279l2.508 4.456-.836 3.898c0 .279 0 .279.279.279l3.065-.279 3.344 3.9h.279l-.557-4.178 3.065-1.671v-.279l-3.901-2.227-2.23-5.013c.279 0 .279 0 0 0z" fill="url(#paint38_linear)"/><path d="M204.691 76.585l2.786 1.392.558-.835-3.623-1.95s-.279 0-.279.279l.558 1.114zM215.002 81.597L211.1 79.37l-1.672-5.013h-.278l-.558 1.392 1.394 4.178 3.901 2.227v.279l-3.065 1.67.278 2.507 1.115 1.393h.279l-.279-4.456 2.787-1.95c.278 0 .278 0 0 0z" fill="#FFC107"/><path d="M228.377 43.166l-2.787 6.127-7.803-4.178c-.278-.278-.557.279-.557.557l5.295 9.747-1.672 8.355c0 .279.278.557.557.557l6.409-.557 6.967 8.355c.279.278.557 0 .557-.279l-.836-9.19 6.41-3.62c.279 0 .279-.279 0-.557l-8.36-4.734-3.623-10.583c-.279-.279-.557-.279-.557 0z" fill="url(#paint39_linear)"/><path d="M218.623 48.179l5.852 3.342.836-1.95-7.524-4.456c-.278-.278-.557.279-.557.557l1.393 2.507zM240.917 58.483l-8.36-4.734-3.623-10.583c0-.279-.279-.279-.557 0l-1.394 3.063 3.066 8.633 8.36 4.735c.278 0 .278.278 0 .557l-6.41 3.62.558 5.57 2.229 2.785c.279.278.557 0 .557-.279l-.836-9.19 6.41-3.62c.279-.279.279-.557 0-.557z" fill="#FFC107"/></g><defs><linearGradient id="paint0_linear" x1="293.392" y1="496.505" x2="156.556" y2="50.014" gradientUnits="userSpaceOnUse"><stop offset=".11" stop-color="#fff"/><stop offset="1" stop-color="#E1EBF7"/></linearGradient><linearGradient id="paint2_linear" x1="250.273" y1="462.984" x2="304.58" y2="462.984" gradientUnits="userSpaceOnUse"><stop stop-color="#D3DAED"/><stop offset="1" stop-color="#A5CBEF"/></linearGradient><linearGradient id="paint3_linear" x1="254.076" y1="455.748" x2="293.822" y2="455.748" gradientUnits="userSpaceOnUse"><stop offset=".15" stop-color="#FF9800"/><stop offset="1" stop-color="#FFC107"/></linearGradient><linearGradient id="paint5_linear" x1="136.946" y1="397.394" x2="191.253" y2="397.394" gradientUnits="userSpaceOnUse"><stop stop-color="#D3DAED"/><stop offset="1" stop-color="#A5CBEF"/></linearGradient><linearGradient id="paint6_linear" x1="140.749" y1="388.203" x2="164.099" y2="388.203" gradientUnits="userSpaceOnUse"><stop stop-color="#7EA7DF"/><stop offset="1" stop-color="#A5CBEF"/></linearGradient><linearGradient id="paint8_linear" x1="193.609" y1="430.189" x2="247.917" y2="430.189" gradientUnits="userSpaceOnUse"><stop stop-color="#D3DAED"/><stop offset="1" stop-color="#A5CBEF"/></linearGradient><linearGradient id="paint9_linear" x1="197.412" y1="420.998" x2="237.158" y2="420.998" gradientUnits="userSpaceOnUse"><stop stop-color="#5D7DBE"/><stop offset="1" stop-color="#3C5185"/></linearGradient><linearGradient id="paint10_linear" x1="236.693" y1="109.598" x2="100.454" y2="109.598" gradientUnits="userSpaceOnUse"><stop stop-color="#7EA7DF"/><stop offset="1" stop-color="#4A65A3"/></linearGradient><linearGradient id="paint11_linear" x1="236.694" y1="221.278" x2="167.726" y2="221.278" gradientUnits="userSpaceOnUse"><stop stop-color="#7EA7DF"/><stop offset="1" stop-color="#4A65A3"/></linearGradient><linearGradient id="paint12_linear" x1="167.726" y1="221.278" x2="100.454" y2="221.278" gradientUnits="userSpaceOnUse"><stop stop-color="#7EA7DF"/><stop offset="1" stop-color="#4A65A3"/></linearGradient><linearGradient id="paint14_linear" x1="249.647" y1="98.076" x2="255.698" y2="98.076" gradientUnits="userSpaceOnUse"><stop stop-color="#FFC107"/><stop offset=".92" stop-color="#FF9800"/></linearGradient><linearGradient id="paint15_linear" x1="256.458" y1="96.999" x2="265.763" y2="96.999" gradientUnits="userSpaceOnUse"><stop stop-color="#FFC107"/><stop offset=".92" stop-color="#FF9800"/></linearGradient><linearGradient id="paint17_linear" x1="142.078" y1="88.495" x2="191.586" y2="88.495" gradientUnits="userSpaceOnUse"><stop stop-color="#3C5185"/><stop offset=".269" stop-color="#476098"/><stop offset=".731" stop-color="#5775B4"/><stop offset="1" stop-color="#5D7DBE"/></linearGradient><linearGradient id="paint18_linear" x1="157.299" y1="76.724" x2="176.366" y2="76.724" gradientUnits="userSpaceOnUse"><stop offset=".15" stop-color="#FF9800"/><stop offset="1" stop-color="#FFC107"/></linearGradient><linearGradient id="paint19_linear" x1="156.998" y1="76.067" x2="176.666" y2="76.067" gradientUnits="userSpaceOnUse"><stop stop-color="#FFC107"/><stop offset=".85" stop-color="#FF9800"/></linearGradient><linearGradient id="paint20_linear" x1="132.445" y1="6.244" x2="157.801" y2="6.244" gradientUnits="userSpaceOnUse"><stop offset=".15" stop-color="#FF9800"/><stop offset="1" stop-color="#FFC107"/></linearGradient><linearGradient id="paint21_linear" x1="129.568" y1="19.446" x2="146.115" y2="19.446" gradientUnits="userSpaceOnUse"><stop offset=".15" stop-color="#FF9800"/><stop offset="1" stop-color="#FFC107"/></linearGradient><linearGradient id="paint22_linear" x1="135.585" y1="36.283" x2="199.529" y2="36.283" gradientUnits="userSpaceOnUse"><stop stop-color="#FF9800"/><stop offset=".707" stop-color="#FFC107"/></linearGradient><linearGradient id="paint23_linear" x1="172.839" y1="52.449" x2="165.559" y2="3.392" gradientUnits="userSpaceOnUse"><stop offset=".15" stop-color="#FF9800"/><stop offset="1" stop-color="#FFC107"/></linearGradient><linearGradient id="paint24_linear" x1="189.306" y1="43.553" x2="206.064" y2="43.553" gradientUnits="userSpaceOnUse"><stop offset=".15" stop-color="#FF9800"/><stop offset="1" stop-color="#FFC107"/></linearGradient><linearGradient id="paint25_linear" x1="178.18" y1="60.495" x2="195.506" y2="60.495" gradientUnits="userSpaceOnUse"><stop offset=".15" stop-color="#FF9800"/><stop offset="1" stop-color="#FFC107"/></linearGradient><linearGradient id="paint26_linear" x1="95.966" y1="238.46" x2="106.917" y2="238.46" gradientUnits="userSpaceOnUse"><stop stop-color="#A8D9FB"/><stop offset="1" stop-color="#fff"/></linearGradient><linearGradient id="paint27_linear" x1="96.349" y1="222.24" x2="128.205" y2="222.24" gradientUnits="userSpaceOnUse"><stop stop-color="#A8D9FB"/><stop offset="1" stop-color="#fff"/></linearGradient><linearGradient id="paint28_linear" x1="98.77" y1="148.318" x2="122.011" y2="148.318" gradientUnits="userSpaceOnUse"><stop offset=".15" stop-color="#FF9800"/><stop offset="1" stop-color="#FFC107"/></linearGradient><linearGradient id="paint29_linear" x1="24.295" y1="341.048" x2="12.872" y2="341.048" gradientUnits="userSpaceOnUse"><stop stop-color="#7EA7DF"/><stop offset="1" stop-color="#4A65A3"/></linearGradient><linearGradient id="paint30_linear" x1="35.478" y1="336.262" x2="12.373" y2="336.262" gradientUnits="userSpaceOnUse"><stop stop-color="#4A65A3"/><stop offset=".238" stop-color="#4D69A7"/><stop offset=".491" stop-color="#5776B3"/><stop offset=".751" stop-color="#688BC6"/><stop offset="1" stop-color="#7EA7DF"/></linearGradient><linearGradient id="paint31_linear" x1="122.091" y1="404.723" x2="95.54" y2="404.723" gradientUnits="userSpaceOnUse"><stop stop-color="#E3EDF7"/><stop offset=".169" stop-color="#DEE9F6"/><stop offset=".388" stop-color="#CEDEF2"/><stop offset=".635" stop-color="#B3CBEC"/><stop offset=".9" stop-color="#8EB2E3"/><stop offset="1" stop-color="#7EA7DF"/></linearGradient><linearGradient id="paint32_linear" x1="111.109" y1="364.51" x2="91.41" y2="364.51" gradientUnits="userSpaceOnUse"><stop offset=".15" stop-color="#FF9800"/><stop offset="1" stop-color="#FFC107"/></linearGradient><linearGradient id="paint34_linear" x1="310.423" y1="273.498" x2="377.41" y2="273.498" gradientUnits="userSpaceOnUse"><stop stop-color="#4A65A3"/><stop offset=".44" stop-color="#5471B1"/><stop offset="1" stop-color="#5D7DBE"/></linearGradient><linearGradient id="paint35_linear" x1="125.23" y1="82.482" x2="136.753" y2="82.482" gradientUnits="userSpaceOnUse"><stop offset=".15" stop-color="#FF9800"/><stop offset="1" stop-color="#FFC107"/></linearGradient><linearGradient id="paint36_linear" x1="92.793" y1="58.763" x2="109.727" y2="58.763" gradientUnits="userSpaceOnUse"><stop offset=".15" stop-color="#FF9800"/><stop offset="1" stop-color="#FFC107"/></linearGradient><linearGradient id="paint37_linear" x1="100.99" y1="24.392" x2="123.619" y2="24.392" gradientUnits="userSpaceOnUse"><stop offset=".15" stop-color="#FF9800"/><stop offset="1" stop-color="#FFC107"/></linearGradient><linearGradient id="paint38_linear" x1="204.074" y1="81.083" x2="215.161" y2="81.083" gradientUnits="userSpaceOnUse"><stop offset=".15" stop-color="#FF9800"/><stop offset="1" stop-color="#FFC107"/></linearGradient><linearGradient id="paint39_linear" x1="217.209" y1="57.616" x2="241.028" y2="57.616" gradientUnits="userSpaceOnUse"><stop offset=".15" stop-color="#FF9800"/><stop offset="1" stop-color="#FFC107"/></linearGradient><radialGradient id="paint1_radial" cx="0" cy="0" r="1" gradientUnits="userSpaceOnUse" gradientTransform="matrix(38.3574 0 0 19.8256 277.925 464.126)"><stop offset=".091" stop-color="#3C5185"/><stop offset=".156" stop-color="#506291"/><stop offset=".379" stop-color="#8D9AB8"/><stop offset=".583" stop-color="#BEC5D7"/><stop offset=".761" stop-color="#E2E5ED"/><stop offset=".906" stop-color="#F7F8FA"/><stop offset="1" stop-color="#fff"/></radialGradient><radialGradient id="paint4_radial" cx="0" cy="0" r="1" gradientUnits="userSpaceOnUse" gradientTransform="matrix(38.3574 0 0 19.8257 164.599 398.535)"><stop offset=".091" stop-color="#3C5185"/><stop offset=".156" stop-color="#506291"/><stop offset=".379" stop-color="#8D9AB8"/><stop offset=".583" stop-color="#BEC5D7"/><stop offset=".761" stop-color="#E2E5ED"/><stop offset=".906" stop-color="#F7F8FA"/><stop offset="1" stop-color="#fff"/></radialGradient><radialGradient id="paint7_radial" cx="0" cy="0" r="1" gradientUnits="userSpaceOnUse" gradientTransform="matrix(38.3574 0 0 19.8257 221.262 431.331)"><stop offset=".091" stop-color="#3C5185"/><stop offset=".156" stop-color="#506291"/><stop offset=".379" stop-color="#8D9AB8"/><stop offset=".583" stop-color="#BEC5D7"/><stop offset=".761" stop-color="#E2E5ED"/><stop offset=".906" stop-color="#F7F8FA"/><stop offset="1" stop-color="#fff"/></radialGradient><radialGradient id="paint13_radial" cx="0" cy="0" r="1" gradientUnits="userSpaceOnUse" gradientTransform="matrix(36.3109 0 0 18.7679 256.515 206.074)"><stop offset=".091" stop-color="#48486A"/><stop offset=".118" stop-color="#505070"/><stop offset=".351" stop-color="#8D8DA3"/><stop offset=".564" stop-color="#BEBECA"/><stop offset=".75" stop-color="#E2E2E7"/><stop offset=".901" stop-color="#F7F7F9"/><stop offset="1" stop-color="#fff"/></radialGradient><radialGradient id="paint16_radial" cx="0" cy="0" r="1" gradientUnits="userSpaceOnUse" gradientTransform="matrix(43.816 0 0 22.647 167.518 112.333)"><stop offset=".091" stop-color="#48486A"/><stop offset=".118" stop-color="#505070"/><stop offset=".351" stop-color="#8D8DA3"/><stop offset=".564" stop-color="#BEBECA"/><stop offset=".75" stop-color="#E2E2E7"/><stop offset=".901" stop-color="#F7F7F9"/><stop offset="1" stop-color="#fff"/></radialGradient><radialGradient id="paint33_radial" cx="0" cy="0" r="1" gradientUnits="userSpaceOnUse" gradientTransform="matrix(37.2302 0 0 25.6276 343.381 309.825)"><stop stop-color="#3C5185"/><stop offset=".177" stop-color="#6F7EA5"/><stop offset=".379" stop-color="#A2ACC5"/><stop offset=".569" stop-color="#CAD0DE"/><stop offset=".742" stop-color="#E7EAF0"/><stop offset=".891" stop-color="#F9F9FB"/><stop offset="1" stop-color="#fff"/></radialGradient><clipPath id="clip0"><path fill="#fff" transform="translate(.426)" d="M0 0h463.148v495.154H0z"/></clipPath></defs></svg>