<svg width="6" height="4" viewBox="0 0 6 4" fill="none" xmlns="http://www.w3.org/2000/svg">
<path d="M3.04878 4C3.03723 4.00008 3.02584 3.99762 3.0156 3.99283C3.00535 3.98803 2.99656 3.98106 2.98999 3.97251L0.0126128 0.100266C0.00524807 0.0906822 0.000933167 0.079465 0.000134942 0.0678292C-0.000663283 0.0561934 0.00208616 0.0445825 0.00808573 0.0342544C0.0140848 0.0239263 0.0231047 0.0152746 0.0341682 0.00923652C0.0452323 0.00319845 0.0579185 4.22351e-06 0.0708523 -2.18308e-07L5.92909 3.77633e-08C5.94194 -1.30615e-05 5.95455 0.00312372 5.96557 0.00907449C5.97659 0.0150253 5.98561 0.0235659 5.99166 0.033782C5.99771 0.043998 6.00056 0.0555047 5.99991 0.0670699C5.99926 0.0786352 5.99513 0.0898234 5.98797 0.0994367L3.10711 3.97168C3.10067 3.98032 3.09199 3.98741 3.08183 3.99235C3.07167 3.99728 3.06032 3.99991 3.04878 4Z" fill="white"/>
</svg>
