<svg width="16" height="16" viewBox="0 0 16 16" fill="none" xmlns="http://www.w3.org/2000/svg">
<path d="M8 0C6.41775 0 4.87103 0.469192 3.55544 1.34824C2.23985 2.22729 1.21447 3.47672 0.608967 4.93853C0.00346627 6.40034 -0.15496 8.00887 0.153721 9.56072C0.462403 11.1126 1.22433 12.538 2.34315 13.6569C3.46197 14.7757 4.88743 15.5376 6.43928 15.8463C7.99113 16.155 9.59966 15.9965 11.0615 15.391C12.5233 14.7855 13.7727 13.7602 14.6518 12.4446C15.5308 11.129 16 9.58225 16 8C16 5.87827 15.1571 3.84344 13.6569 2.34315C12.1566 0.842854 10.1217 0 8 0ZM14.2314 5.14286H11.5086C11.1103 3.73515 10.419 2.42752 9.48 1.30571C10.5139 1.53654 11.4805 2.00288 12.3046 2.66842C13.1287 3.33397 13.7881 4.18076 14.2314 5.14286ZM7.96857 14.5886C6.9208 13.5447 6.13805 12.2653 5.68572 10.8571H10.3143C9.86112 12.2656 9.07738 13.545 8.02857 14.5886C8.01983 14.5948 8.00934 14.5982 7.99857 14.5982C7.98781 14.5982 7.97732 14.5948 7.96857 14.5886ZM5.39715 9.71428C5.18761 8.58103 5.18761 7.41897 5.39715 6.28571H10.6029C10.8124 7.41897 10.8124 8.58103 10.6029 9.71428H5.39715ZM1.14286 8C1.14195 7.42166 1.21493 6.84556 1.36 6.28571H4.23715C4.05058 7.42096 4.05058 8.57904 4.23715 9.71428H1.36C1.21493 9.15443 1.14195 8.57834 1.14286 8ZM8 1.4C8.0101 1.39602 8.02133 1.39602 8.03143 1.4C9.08075 2.44711 9.8636 3.73063 10.3143 5.14286H5.68572C6.13888 3.73444 6.92263 2.45498 7.97143 1.41143C7.97921 1.40421 7.98939 1.40014 8 1.4ZM11.7629 6.28571H14.64C14.9296 7.41023 14.9296 8.58977 14.64 9.71428H11.7629C11.9494 8.57904 11.9494 7.42096 11.7629 6.28571ZM6.52 1.30571C5.58204 2.42824 4.89086 3.73563 4.49143 5.14286H1.76857C2.21187 4.18076 2.87126 3.33397 3.69539 2.66842C4.51952 2.00288 5.48615 1.53654 6.52 1.30571ZM1.76857 10.8571H4.49143C4.88966 12.2648 5.58097 13.5725 6.52 14.6943C5.48615 14.4635 4.51952 13.9971 3.69539 13.3316C2.87126 12.666 2.21187 11.8192 1.76857 10.8571ZM9.48286 14.6943C10.4198 13.5715 11.11 12.2641 11.5086 10.8571H14.2314C13.7881 11.8192 13.1287 12.666 12.3046 13.3316C11.4805 13.9971 10.5139 14.4635 9.48 14.6943H9.48286Z" fill="white"/>
</svg>
