<svg width="36" height="25" viewBox="0 0 36 25" fill="none" xmlns="http://www.w3.org/2000/svg">
<path d="M35.5 20.9206C35.5 18.3191 33.8198 15.9344 31.3809 15.0672C31.4351 14.8504 31.4893 14.6878 31.4893 14.471C31.4893 13.8206 31.3267 13.3328 30.8931 12.9534C30.4053 12.5198 29.755 12.4115 29.213 12.4115C29.8092 11.6527 30.1885 10.7855 30.2427 9.86412C30.6221 9.53893 31.4351 8.72595 31.4351 7.85878C31.4351 7.1542 31.0557 6.88321 30.6763 6.82901L30.7847 5.69084C30.8931 4.06489 30.0802 3.4687 29.5924 3.25191C29.5924 2.98092 29.5382 2.76412 29.4298 2.65573C28.9962 2.00534 27.8038 1.68015 25.7985 1.68015C25.4191 1.68015 25.2023 1.68015 25.2023 1.68015C23.1427 1.68015 22.4924 2.65573 22.2214 3.19771C20.4328 3.4687 20.487 5.31145 20.5412 6.12443C20.5412 6.28702 20.5412 6.39542 20.5412 6.50382C20.5412 6.61221 20.5412 6.77481 20.5412 6.88321C20.2702 6.9374 19.8366 7.1542 19.8366 7.91298C19.8366 8.78015 20.6496 9.59313 21.029 9.91832C21.0832 10.8397 21.4626 11.7069 22.0046 12.4115C21.4626 12.4115 20.758 12.574 20.2702 12.9534C19.8366 13.3328 19.674 13.8206 19.674 14.471C19.674 14.742 19.7282 15.013 19.8366 15.284L16.0969 14.4168L14.5794 12.3573C15.6092 11.4359 16.4221 10.1351 16.5305 8.72595C16.9099 8.40076 17.8313 7.53359 17.7771 6.61221C17.7771 5.85344 17.3435 5.58244 16.9099 5.52824L17.0183 4.28168C17.1267 2.70992 16.4221 2.05954 15.8802 1.73435C16.3679 1.02977 16.2595 0.596183 16.2053 0.487786L16.0427 0L15.6092 0.379389C15.284 0.596183 14.9588 0.70458 14.6878 0.70458C14.471 0.70458 14.3626 0.650382 14.3626 0.650382C13.3328 0.162595 11.1649 0.0541982 11.0565 0.0541982C8.83435 0.0541982 8.12977 1.13817 7.91298 1.68015C5.96183 1.95114 6.07023 3.90229 6.12443 4.82366C6.12443 4.98626 6.12443 5.09466 6.12443 5.20305C6.12443 5.36565 6.12443 5.52824 6.12443 5.69084C5.85344 5.74504 5.36565 5.96183 5.36565 6.77481C5.36565 7.69618 6.23282 8.56336 6.61221 8.88855C6.72061 10.2977 7.47939 11.5985 8.50916 12.4656L7.0458 14.5794L2.87252 15.555C1.40916 15.8802 0.325191 17.0725 0.0541985 18.5359L0 24.0641H23.5221V22.2214H35.5V20.9206ZM21.7878 9.53893L21.6252 9.43054C21.3542 9.21374 20.5954 8.50916 20.5954 7.96718C20.5954 7.80458 20.6496 7.75038 20.7038 7.75038C20.9206 7.75038 21.0832 7.64198 21.1916 7.53359C21.3 7.42519 21.3542 7.2084 21.3542 7.0458C21.3542 6.88321 21.3 6.72061 21.3 6.55801C21.3 6.44962 21.3 6.28702 21.3 6.12443C21.2458 4.76947 21.4084 4.06489 22.4924 4.01069H22.8176L22.8718 3.6855C22.8718 3.6313 23.1427 2.54733 25.1481 2.54733C25.1481 2.54733 25.3649 2.54733 25.7443 2.54733C27.6412 2.54733 28.5084 2.87252 28.671 3.14351C28.671 3.19771 28.7252 3.25191 28.671 3.4145L28.4542 3.90229L28.9962 3.95649C29.1046 3.95649 30.026 4.11908 29.9176 5.63664L29.755 7.0458C29.755 7.2084 29.8092 7.31679 29.8634 7.42519C29.9718 7.53359 30.1344 7.58779 30.2427 7.58779H30.3511C30.4053 7.58779 30.4053 7.58779 30.4595 7.58779C30.4595 7.58779 30.5137 7.64198 30.5137 7.80458C30.5137 8.34657 29.755 9.05114 29.484 9.26794L29.3214 9.37634V9.59313C29.3214 10.7313 28.7252 11.7069 27.9122 12.4115H27.8038V12.4656C27.045 13.116 26.1779 13.4954 25.5275 13.4954C24.7145 13.4954 23.8473 13.116 23.1427 12.4656V12.4115H23.0886C22.3298 11.7069 21.7336 10.7313 21.7336 9.64733L21.7878 9.53893ZM27.9122 13.6038C27.858 14.1458 27.6954 14.9046 27.2618 15.4466C26.8824 15.9344 26.2863 16.2053 25.5817 16.2053C24.8229 16.1511 24.2267 15.8802 23.8473 15.4466C23.3595 14.9046 23.1969 14.0916 23.1969 13.5496C23.9557 14.0916 24.8229 14.4168 25.6359 14.4168C26.3405 14.4168 27.2076 14.1458 27.9122 13.6038ZM20.758 13.6038C21.1374 13.2786 21.842 13.2244 22.3298 13.2244C22.3298 13.8748 22.4382 15.0672 23.1969 15.9886C23.7389 16.6389 24.4977 17.0183 25.5275 17.0725C26.5031 17.0183 27.2618 16.6389 27.858 15.9886C28.6168 15.0672 28.7252 13.8748 28.7252 13.2244C29.213 13.2244 29.8634 13.2244 30.2969 13.6038C30.5137 13.8206 30.6221 14.0916 30.6221 14.471C30.6221 15.0672 30.2969 15.5008 30.0802 15.826C29.755 16.2595 29.1588 16.8557 28.2916 17.2893C27.4786 17.7229 26.5031 17.9939 25.5275 17.9939C24.6603 17.9939 23.8473 17.7771 23.0886 17.4519C22.6008 16.5847 21.7878 15.8802 20.8122 15.6092C20.5954 15.2298 20.4328 14.8504 20.4328 14.471C20.4328 14.0916 20.5412 13.8206 20.758 13.6038ZM8.18397 2.43893H8.50916L8.56336 2.11374C8.56336 2.05954 8.83435 0.867175 11.0023 0.867175C11.5985 0.921374 13.2786 1.02977 13.9832 1.35496C14.0374 1.35496 14.2542 1.46336 14.6336 1.46336C14.7962 1.46336 14.9588 1.46336 15.1214 1.40916C15.0672 1.46336 14.9588 1.57176 14.9046 1.68015L14.3084 2.27634L15.1756 2.33053C15.2298 2.33053 16.3137 2.43893 16.2053 4.17328L16.0427 5.47405L15.555 5.79924C15.3924 5.63664 15.2298 5.52824 15.0672 5.52824C14.7962 5.47405 14.471 5.47405 14.0916 5.47405C13.4412 5.47405 12.7908 5.52824 12.7908 5.52824C12.2489 5.58244 11.9237 5.79924 11.7069 6.12443H11.3817C11.2191 5.79924 10.8397 5.58244 10.2977 5.52824C10.2977 5.52824 9.64733 5.47405 8.99695 5.47405C8.61756 5.47405 8.29237 5.47405 8.02137 5.52824C7.85878 5.58244 7.64198 5.63664 7.53359 5.79924L6.9374 5.52824C6.9374 5.41985 6.9374 5.31145 6.9374 5.20305C6.9374 5.09466 6.9374 4.93206 6.9374 4.76947C6.77481 3.5229 6.88321 2.54733 8.18397 2.43893ZM15.0672 6.82901L15.013 7.1C14.9046 7.80458 14.8504 7.80458 14.6336 7.91298C14.6336 7.91298 14.2542 7.96718 13.8206 7.96718C13.387 7.96718 13.0618 7.85878 12.8992 7.75038C12.845 7.64198 12.574 7.2626 12.4115 6.72061C12.4115 6.66641 12.3573 6.55801 12.4115 6.50382C12.4656 6.44962 12.574 6.34122 12.845 6.34122C12.845 6.34122 13.4412 6.28702 14.0374 6.28702C14.3626 6.28702 14.6336 6.28702 14.8504 6.34122C14.9046 6.28702 15.1214 6.34122 15.0672 6.82901ZM10.6229 6.72061C10.4603 7.1542 10.1893 7.58779 10.1351 7.69618C9.97252 7.85878 9.64733 7.91298 9.21374 7.91298C8.83435 7.91298 8.45496 7.85878 8.45496 7.85878C8.18397 7.80458 8.18397 7.75038 8.02137 7.0458L7.96718 6.77481C7.91298 6.39542 8.07557 6.28702 8.12977 6.28702C8.34657 6.23282 8.61756 6.23282 8.94275 6.23282C9.53893 6.23282 10.1351 6.28702 10.1351 6.28702C10.4061 6.34122 10.5687 6.39542 10.5687 6.44962C10.6771 6.55802 10.6229 6.66641 10.6229 6.72061ZM7.37099 8.67175V8.45496L7.2084 8.34657C6.9374 8.12977 6.07023 7.37099 6.12443 6.77481C6.12443 6.50382 6.17863 6.50382 6.23282 6.50382C6.39542 6.50382 6.50382 6.44962 6.61221 6.34122L7.1 6.55801C7.1 6.66641 7.1 6.82901 7.1 6.9916L7.1542 7.2626C7.2626 7.91298 7.37099 8.45496 8.18397 8.72595C8.18397 8.72595 8.61756 8.83435 9.15954 8.83435C9.86412 8.83435 10.4061 8.67176 10.7313 8.29237L10.7855 8.23817C10.7855 8.23817 11.1107 7.69618 11.3275 7.1C11.3275 7.1 11.3817 7.0458 11.3817 6.9374H11.5985C11.5985 6.9916 11.6527 7.0458 11.6527 7.0458C11.8695 7.69618 12.1947 8.18397 12.2489 8.18397L12.3031 8.23817C12.6282 8.56336 13.116 8.78015 13.8748 8.78015C14.3626 8.78015 14.7962 8.67175 14.8504 8.67175C15.6092 8.45496 15.7176 7.91298 15.826 7.2084L15.8802 6.9374C15.8802 6.77481 15.9344 6.66641 15.8802 6.50382L16.3679 6.34122C16.4221 6.39542 16.5305 6.39542 16.5847 6.39542H16.6931C16.7473 6.39542 16.7473 6.39542 16.8015 6.39542C16.8557 6.39542 16.9099 6.39542 16.9099 6.66641C16.9099 7.2626 16.0969 8.02137 15.826 8.23817L15.6634 8.34657V8.56336C15.6634 10.9481 13.1702 12.845 11.5443 12.845C9.70153 12.845 7.42519 10.8939 7.37099 8.67175ZM11.5443 13.658C12.3031 13.658 13.1702 13.3328 13.929 12.845L15.3924 14.8504L13.2244 22.9802L12.7366 17.7771L13.5496 16.3137C13.6038 16.2053 13.6038 16.0427 13.5496 15.9344C13.4954 15.826 13.3328 15.7176 13.2244 15.7176H9.86412C9.70153 15.7176 9.59313 15.7718 9.53893 15.9344C9.48473 16.0427 9.48473 16.2053 9.53893 16.3137L10.3519 17.7771L9.86412 23.0344L7.69618 15.013L9.15954 12.9534C9.91832 13.387 10.7313 13.658 11.5443 13.658ZM10.5687 16.5847H12.5198L12.0321 17.3435H10.9481L10.5687 16.5847ZM0.812977 23.1969L0.867176 18.5901C1.08397 17.4519 1.95115 16.5847 3.08931 16.3137L6.9916 15.3924L9.10534 23.1969H0.812977ZM10.6771 23.1969L11.1649 18.1565H11.9779L12.4656 23.1969H10.6771ZM22.655 23.1969H13.9832L16.0969 15.284L20.4328 16.3137C21.571 16.5847 22.384 17.4519 22.655 18.5901V23.1969ZM34.687 21.3542H23.4679V18.4817V18.4275C24.1183 18.6443 24.8229 18.7527 25.5817 18.7527C26.7198 18.7527 27.8038 18.4817 28.7252 17.9397C29.7008 17.3977 30.3511 16.7473 30.7305 16.2595C30.8389 16.0969 30.9473 15.9344 31.0557 15.7718C33.2237 16.5305 34.687 18.5901 34.687 20.8664V21.3542Z" fill="#FDA04B"/>
</svg>
