<svg width="22" height="28" viewBox="0 0 22 28" fill="none" xmlns="http://www.w3.org/2000/svg">
<path d="M0 0V21.8731C0 23.8192 1.56538 25.3846 3.46923 25.3846L22 27.7115V0H0ZM5.16154 24.9615C6.13462 24.4538 6.81154 23.4808 6.98077 22.3385L18.9538 26.7385L5.16154 24.9615ZM21.3654 26.9077L6.38846 21.4077V21.8731C6.38846 23.4385 5.11923 24.75 3.51154 24.75C1.94615 24.75 0.634615 23.4808 0.634615 21.8731V0.634615H21.3654V26.9077Z" fill="#FDA04B"/>
<path d="M13.8343 1.77686H2.07275V8.33455H13.8343V1.77686ZM13.1997 7.74224H2.70737V2.41147H13.1997V7.74224Z" fill="#FDA04B"/>
<path d="M20.2232 1.77686H14.8501V8.33455H20.2232V1.77686ZM19.5886 7.74224H15.4847V2.41147H19.5886V7.74224Z" fill="#FDA04B"/>
<path d="M13.5385 10.1115H2.41162V10.7461H13.5385V10.1115Z" fill="#FDA04B"/>
<path d="M19.8845 10.1115H15.146V10.7461H19.8845V10.1115Z" fill="#FDA04B"/>
<path d="M19.8845 12.4807H15.146V13.1153H19.8845V12.4807Z" fill="#FDA04B"/>
<path d="M19.8845 14.85H15.146V15.4846H19.8845V14.85Z" fill="#FDA04B"/>
<path d="M19.8845 17.2192H15.146V17.8539H19.8845V17.2192Z" fill="#FDA04B"/>
<path d="M19.8845 19.5885H15.146V20.2231H19.8845V19.5885Z" fill="#FDA04B"/>
<path d="M13.5385 12.4807H2.41162V13.1153H13.5385V12.4807Z" fill="#FDA04B"/>
<path d="M13.5385 14.85H2.41162V15.4846H13.5385V14.85Z" fill="#FDA04B"/>
<path d="M13.5385 17.2192H2.41162V17.8539H13.5385V17.2192Z" fill="#FDA04B"/>
<path d="M13.5385 19.5885H2.41162V20.2231H13.5385V19.5885Z" fill="#FDA04B"/>
</svg>
