<svg width="33" height="33" viewBox="0 0 33 33" fill="none" xmlns="http://www.w3.org/2000/svg">
<path d="M17.5488 17.3401L18.2278 15.8254V14.6241H14.5195V15.8254L15.1985 17.3401H17.5488ZM15.303 15.4598H17.4444V15.721L17.0265 16.6089H15.6686L15.2507 15.721V15.4598H15.303Z" fill="#FDA04B"/>
<path d="M20.1085 7.88672H12.6919V9.76697H6.68555V22.8243H26.1148V9.76697H20.1085V7.88672ZM13.4754 8.67016H19.3773V9.76697H13.4754V8.67016ZM25.3314 10.4982V14.1542L23.6078 15.46C23.3989 15.6167 23.0855 15.7211 22.7722 15.7211H18.9594V16.5046H22.7722C23.2422 16.5046 23.7123 16.3479 24.0779 16.0867L25.3314 15.1466V21.9886H7.46899V15.1466L8.72249 16.0867C9.08809 16.3479 9.55816 16.5046 10.0282 16.5046H13.841V15.7211H10.0282C9.71485 15.7211 9.4537 15.6167 9.19255 15.46L7.46899 14.1542V10.4982H12.6919H20.1607H25.3314Z" fill="#FDA04B"/>
<path d="M16.7659 1.828H15.9824V2.61144H16.7659V1.828Z" fill="#FDA04B"/>
<path d="M16.7659 0H15.9824V0.783439H16.7659V0Z" fill="#FDA04B"/>
<path d="M8.92777 2.66743L8.53613 1.98889L7.8576 2.38053L8.24924 3.05907L8.92777 2.66743Z" fill="#FDA04B"/>
<path d="M9.16529 4.68001L9.84375 4.28821L9.45195 3.60975L8.77349 4.00155L9.16529 4.68001Z" fill="#FDA04B"/>
<path d="M3.60914 9.45268L4.2876 9.84448L4.6794 9.16602L4.00094 8.77423L3.60914 9.45268Z" fill="#FDA04B"/>
<path d="M1.99879 8.55315L2.67725 8.94495L3.06904 8.26649L2.39059 7.87469L1.99879 8.55315Z" fill="#FDA04B"/>
<path d="M2.61156 16.0343H1.82812V16.8177H2.61156V16.0343Z" fill="#FDA04B"/>
<path d="M0.783439 16.0343H0V16.8177H0.783439V16.0343Z" fill="#FDA04B"/>
<path d="M3.58428 23.3696L3.97607 24.0481L4.65453 23.6563L4.26273 22.9778L3.58428 23.3696Z" fill="#FDA04B"/>
<path d="M2.01592 24.2562L2.40771 24.9347L3.08617 24.5429L2.69438 23.8644L2.01592 24.2562Z" fill="#FDA04B"/>
<path d="M8.77467 28.7981L9.45312 29.1899L9.84492 28.5115L9.16646 28.1197L8.77467 28.7981Z" fill="#FDA04B"/>
<path d="M7.87525 30.4086L8.55371 30.8004L8.94551 30.122L8.26705 29.7302L7.87525 30.4086Z" fill="#FDA04B"/>
<path d="M16.7659 32.0166H15.9824V32.8H16.7659V32.0166Z" fill="#FDA04B"/>
<path d="M16.7659 30.1885H15.9824V30.9719H16.7659V30.1885Z" fill="#FDA04B"/>
<path d="M23.8667 30.1055L24.2583 30.7841L24.9368 30.3924L24.5452 29.7139L23.8667 30.1055Z" fill="#FDA04B"/>
<path d="M23.6311 28.1692L22.9526 28.5609L23.3444 29.2394L24.0228 28.8477L23.6311 28.1692Z" fill="#FDA04B"/>
<path d="M28.1199 23.6351L28.7983 24.0269L29.1901 23.3484L28.5116 22.9567L28.1199 23.6351Z" fill="#FDA04B"/>
<path d="M29.7312 24.5323L30.4097 24.9241L30.8015 24.2456L30.123 23.8538L29.7312 24.5323Z" fill="#FDA04B"/>
<path d="M32.8 16.0343H32.0166V16.8177H32.8V16.0343Z" fill="#FDA04B"/>
<path d="M30.9719 16.0343H30.1885V16.8177H30.9719V16.0343Z" fill="#FDA04B"/>
<path d="M28.1443 9.14246L28.5361 9.82092L29.2146 9.42912L28.8228 8.75067L28.1443 9.14246Z" fill="#FDA04B"/>
<path d="M30.8127 8.5371L30.4209 7.85864L29.7424 8.25044L30.1342 8.9289L30.8127 8.5371Z" fill="#FDA04B"/>
<path d="M24.0242 3.95214L23.3457 3.56042L22.954 4.23888L23.6324 4.6306L24.0242 3.95214Z" fill="#FDA04B"/>
<path d="M24.9524 2.39624L24.2739 2.00452L23.8822 2.68298L24.5607 3.07469L24.9524 2.39624Z" fill="#FDA04B"/>
</svg>
