<svg width="18" height="18" viewBox="0 0 18 18" fill="none" xmlns="http://www.w3.org/2000/svg">
<path d="M17.3071 13.1272L14.232 10.8125C14.0424 10.6719 13.8087 10.6038 13.5733 10.6208C13.3379 10.6377 13.1163 10.7384 12.9488 10.9047L11.4224 12.4199C11.3658 12.4784 11.2931 12.519 11.2136 12.5364C11.134 12.5538 11.051 12.5473 10.9751 12.5178C9.6634 11.9977 8.4708 11.2169 7.46949 10.2226C6.47433 9.22203 5.6934 8.02923 5.17433 6.71696C5.1448 6.64105 5.13833 6.55811 5.15574 6.47854C5.17314 6.39897 5.21365 6.32631 5.27217 6.26966L6.78737 4.75167C6.95366 4.58416 7.05441 4.36261 7.07133 4.12718C7.08826 3.89176 7.02024 3.65807 6.87963 3.4685L4.56489 0.393372C4.42998 0.213075 4.23716 0.0846654 4.01879 0.029691C3.80042 -0.0252833 3.56979 -0.00347717 3.36559 0.0914504L0.570019 1.40257C0.377476 1.48973 0.218667 1.63739 0.117743 1.82309C0.0168199 2.00879 -0.0206948 2.22237 0.0109049 2.43134C0.290462 4.26803 1.31085 8.86116 5.04294 12.6072C8.77502 16.3812 13.4185 17.424 15.2691 17.7036C15.3203 17.7084 15.3718 17.7084 15.4229 17.7036C15.6085 17.7043 15.7905 17.6521 15.9474 17.5531C16.1044 17.454 16.2299 17.3123 16.3091 17.1444L17.6202 14.3489C17.7188 14.1407 17.7415 13.9046 17.6843 13.6815C17.6271 13.4584 17.4937 13.2623 17.3071 13.1272ZM17.1002 14.0917L15.7891 16.8872C15.7521 16.9703 15.6888 17.0388 15.609 17.0823C15.5291 17.1257 15.4372 17.1417 15.3474 17.1277C13.603 16.8705 9.295 15.9116 5.71667 12.487L5.69989 12.473C5.60485 12.3808 5.5098 12.2885 5.42034 12.1935L5.20787 11.9782L5.1939 11.9642C1.76932 8.39709 0.810439 4.08632 0.553246 2.34189C0.539236 2.25208 0.555192 2.16015 0.598647 2.08032C0.642101 2.00048 0.710637 1.93718 0.793665 1.90019L3.58924 0.589062C3.67748 0.548587 3.77693 0.53955 3.87102 0.563455C3.96512 0.587361 4.04819 0.642767 4.10642 0.720454L6.42115 3.79558C6.48358 3.87766 6.51404 3.97964 6.50683 4.08251C6.49963 4.18538 6.45527 4.28212 6.38201 4.3547L4.86402 5.8699C4.72895 6.00404 4.63607 6.17477 4.59683 6.36104C4.55758 6.54732 4.57369 6.741 4.64317 6.91824C5.18948 8.30246 6.01338 9.5602 7.06413 10.614C8.11862 11.6639 9.37616 12.4877 10.7599 13.0349C10.9366 13.1046 11.1299 13.1207 11.3158 13.0815C11.5017 13.0422 11.6719 12.9492 11.8054 12.8141L13.3234 11.2961C13.396 11.2228 13.4927 11.1785 13.5956 11.1713C13.6985 11.1641 13.8005 11.1945 13.8825 11.257L16.9577 13.5717C17.0379 13.6285 17.096 13.7114 17.122 13.8062C17.148 13.901 17.1403 14.0019 17.1002 14.0917Z" fill="black"/>
<path d="M10.3909 6.52152C10.6875 6.52152 10.9719 6.63933 11.1816 6.84904C11.3913 7.05875 11.5091 7.34317 11.5091 7.63975C11.5091 7.71389 11.5386 7.785 11.591 7.83742C11.6434 7.88985 11.7145 7.9193 11.7887 7.9193C11.8628 7.9193 11.9339 7.88985 11.9863 7.83742C12.0388 7.785 12.0682 7.71389 12.0682 7.63975C12.0682 7.19489 11.8915 6.76825 11.5769 6.45368C11.2624 6.13912 10.8357 5.9624 10.3909 5.9624C10.3167 5.9624 10.2456 5.99186 10.1932 6.04428C10.1408 6.09671 10.1113 6.16782 10.1113 6.24196C10.1113 6.3161 10.1408 6.38721 10.1932 6.43964C10.2456 6.49206 10.3167 6.52152 10.3909 6.52152Z" fill="black"/>
<path d="M10.3909 4.56449C10.7947 4.56449 11.1946 4.64403 11.5677 4.79857C11.9408 4.95311 12.2798 5.17962 12.5653 5.46517C12.8509 5.75072 13.0774 6.08972 13.2319 6.46281C13.3865 6.83591 13.466 7.23578 13.466 7.63962C13.466 7.71376 13.4955 7.78486 13.5479 7.83729C13.6003 7.88972 13.6714 7.91917 13.7456 7.91917C13.8197 7.91917 13.8908 7.88972 13.9432 7.83729C13.9957 7.78486 14.0251 7.71376 14.0251 7.63962C14.0251 6.67575 13.6422 5.75137 12.9607 5.06982C12.2791 4.38826 11.3547 4.00537 10.3909 4.00537C10.3167 4.00537 10.2456 4.03482 10.1932 4.08725C10.1408 4.13968 10.1113 4.21079 10.1113 4.28493C10.1113 4.35907 10.1408 4.43018 10.1932 4.48261C10.2456 4.53503 10.3167 4.56449 10.3909 4.56449Z" fill="black"/>
<path d="M10.3909 2.887C11.6513 2.887 12.8601 3.3877 13.7514 4.27896C14.6427 5.17022 15.1434 6.37903 15.1434 7.63947C15.1434 7.71361 15.1728 7.78472 15.2252 7.83714C15.2777 7.88957 15.3488 7.91902 15.4229 7.91902C15.4971 7.91902 15.5682 7.88957 15.6206 7.83714C15.673 7.78472 15.7025 7.71361 15.7025 7.63947C15.7025 6.23075 15.1429 4.87972 14.1467 3.88361C13.1506 2.88749 11.7996 2.32788 10.3909 2.32788C10.3167 2.32788 10.2456 2.35733 10.1932 2.40976C10.1408 2.46219 10.1113 2.53329 10.1113 2.60744C10.1113 2.68158 10.1408 2.75269 10.1932 2.80511C10.2456 2.85754 10.3167 2.887 10.3909 2.887Z" fill="black"/>
</svg>
