<svg width="23" height="22" viewBox="0 0 23 22" fill="none" xmlns="http://www.w3.org/2000/svg">
<path d="M11.4004 1.9871C14.3456 1.9871 14.7004 1.9871 15.8359 2.05806C16.9004 2.09355 17.5036 2.27097 17.8939 2.44839C18.3907 2.66129 18.781 2.87419 19.1714 3.26452C19.5617 3.65484 19.8101 4.00968 19.9875 4.54194C20.1294 4.93226 20.3068 5.5 20.3778 6.6C20.4133 7.77097 20.4488 8.09032 20.4488 11.0355C20.4488 13.9806 20.4488 14.3355 20.3778 15.471C20.3423 16.5355 20.1649 17.1387 19.9875 17.529C19.7746 18.0258 19.5617 18.4161 19.1714 18.8065C18.781 19.1968 18.4262 19.4452 17.8939 19.6226C17.5036 19.7645 16.9359 19.9419 15.8359 20.0129C14.6649 20.0484 14.3456 20.0839 11.4004 20.0839C8.45523 20.0839 8.10039 20.0839 6.96491 20.0129C5.90039 19.9774 5.29716 19.8 4.90684 19.6226C4.41007 19.4097 4.01975 19.1968 3.62942 18.8065C3.2391 18.4161 2.99071 18.0613 2.81329 17.529C2.67136 17.1387 2.49394 16.571 2.42297 15.471C2.38749 14.3 2.38749 13.9452 2.38749 11C2.38749 8.05484 2.38749 7.7 2.45846 6.56452C2.49394 5.5 2.67136 4.89677 2.84878 4.50645C3.06168 4.00968 3.27458 3.61935 3.66491 3.22903C4.05523 2.83871 4.41007 2.59032 4.94233 2.4129C5.33265 2.27097 5.90039 2.09355 7.00039 2.02258C8.10039 1.9871 8.45523 1.9871 11.4004 1.9871ZM11.4004 0C8.41975 0 8.02942 1.58625e-08 6.85846 0.0709678C5.68749 0.141935 4.87136 0.319355 4.19716 0.567742C3.48749 0.851613 2.84878 1.24194 2.24555 1.84516C1.64233 2.44839 1.252 3.0871 0.968132 3.79677C0.684262 4.50645 0.506842 5.2871 0.471358 6.45806C0.400391 7.62903 0.400391 8.01935 0.400391 11C0.400391 13.9806 0.400391 14.371 0.471358 15.5419C0.542326 16.7129 0.719745 17.529 0.968132 18.2032C1.252 18.9129 1.64233 19.5516 2.24555 20.1548C2.84878 20.7581 3.48749 21.1484 4.19716 21.4323C4.90684 21.7161 5.68749 21.8935 6.85846 21.929C8.02942 22 8.41975 22 11.4004 22C14.381 22 14.7714 22 15.9423 21.929C17.1133 21.8581 17.9294 21.6806 18.6036 21.4323C19.3133 21.1484 19.952 20.7581 20.5552 20.1548C21.1585 19.5516 21.5488 18.9129 21.8326 18.2032C22.1165 17.4935 22.2939 16.7129 22.3294 15.5419C22.4004 14.371 22.4004 13.9806 22.4004 11C22.4004 8.01935 22.4004 7.62903 22.3294 6.45806C22.2585 5.2871 22.081 4.47097 21.8326 3.79677C21.5488 3.0871 21.1585 2.44839 20.5552 1.84516C19.952 1.24194 19.3133 0.851613 18.6036 0.567742C17.8939 0.283871 17.1133 0.106452 15.9423 0.0709678C14.7714 1.58625e-08 14.381 0 11.4004 0Z" fill="#86939E"/>
<path d="M11.4002 5.35815C8.27766 5.35815 5.7583 7.87751 5.7583 11.0001C5.7583 14.1227 8.27766 16.642 11.4002 16.642C14.5228 16.642 17.0422 14.1227 17.0422 11.0001C17.0422 7.87751 14.5228 5.35815 11.4002 5.35815ZM11.4002 14.6549C9.37766 14.6549 7.7454 13.0227 7.7454 11.0001C7.7454 8.97751 9.37766 7.34525 11.4002 7.34525C13.4228 7.34525 15.0551 8.97751 15.0551 11.0001C15.0551 13.0227 13.4228 14.6549 11.4002 14.6549Z" fill="#86939E"/>
<path d="M17.2553 6.45808C17.9804 6.45808 18.5682 5.87028 18.5682 5.14518C18.5682 4.42008 17.9804 3.83228 17.2553 3.83228C16.5302 3.83228 15.9424 4.42008 15.9424 5.14518C15.9424 5.87028 16.5302 6.45808 17.2553 6.45808Z" fill="#86939E"/>
</svg>
