<svg width="23" height="22" viewBox="0 0 23 22" fill="none" xmlns="http://www.w3.org/2000/svg">
<path d="M17.7624 0H4.92904C2.39812 0 0.345703 2.05242 0.345703 4.58333V17.4167C0.345703 19.9476 2.39812 22 4.92904 22H17.7624C20.2942 22 22.3457 19.9476 22.3457 17.4167V4.58333C22.3457 2.05242 20.2942 0 17.7624 0ZM7.67904 17.4167H4.92904V7.33333H7.67904V17.4167ZM6.30404 6.171C5.41854 6.171 4.69987 5.44683 4.69987 4.554C4.69987 3.66117 5.41854 2.937 6.30404 2.937C7.18954 2.937 7.9082 3.66117 7.9082 4.554C7.9082 5.44683 7.19045 6.171 6.30404 6.171ZM18.679 17.4167H15.929V12.2797C15.929 9.19233 12.2624 9.42608 12.2624 12.2797V17.4167H9.51237V7.33333H12.2624V8.95125C13.542 6.58075 18.679 6.40567 18.679 11.2209V17.4167Z" fill="#FF6F00"/>
</svg>
