<svg width="36" height="33" viewBox="0 0 36 33" fill="none" xmlns="http://www.w3.org/2000/svg">
<path d="M16.1303 27.0101L14.3981 25.2779L13.8027 25.8734L16.1303 28.2009L21.5972 22.7339L21.0018 22.1926L16.1303 27.0101Z" fill="#FDA04B"/>
<path d="M33.3973 0H2.00275C0.866055 0 0 0.920184 0 2.00275V21.6514C0 22.7881 0.920184 23.6541 2.00275 23.6541H10.4468C10.3385 24.0872 10.3385 24.5202 10.3385 25.0073C10.3385 29.067 13.6404 32.3688 17.7 32.3688C21.7596 32.3688 25.0615 29.067 25.0615 25.0073C25.0615 24.5202 25.0073 24.0872 24.9532 23.6541H33.3973C34.534 23.6541 35.4 22.7339 35.4 21.6514V2.00275C35.4 0.866055 34.4798 0 33.3973 0ZM22.8422 11.9083L34.5881 2.27339V21.6514C34.5881 21.7055 34.5881 21.7596 34.5881 21.8138L22.8422 11.9083ZM2.00275 0.811927H33.3431C33.7762 0.811927 34.1551 1.02844 34.3716 1.40734L18.7826 14.1817C18.133 14.6688 17.2128 14.6688 16.6174 14.1817L0.974312 1.35321C1.19083 1.02844 1.56973 0.811927 2.00275 0.811927ZM0.811927 21.8138C0.811927 21.7596 0.811927 21.7055 0.811927 21.6514V2.27339L12.5578 11.9083L0.811927 21.8138ZM17.7 31.5569C14.0734 31.5569 11.1505 28.6339 11.1505 25.0073C11.1505 21.3807 14.0734 18.4578 17.7 18.4578C21.3266 18.4578 24.2495 21.3807 24.2495 25.0073C24.2495 28.6339 21.3266 31.5569 17.7 31.5569ZM24.7367 22.8963C23.8165 19.8651 21.0018 17.7 17.7 17.7C14.3982 17.7 11.5835 19.8651 10.6633 22.8963H2.00275C1.67798 22.8963 1.40734 22.7881 1.19083 22.5716L13.2073 12.4495L16.1303 14.8312C16.6174 15.156 17.1587 15.3183 17.7 15.3183C18.2413 15.3183 18.8367 15.156 19.3239 14.7771L22.2468 12.3954L34.2092 22.5716C33.9927 22.7881 33.722 22.8963 33.3973 22.8963H24.7367Z" fill="#FDA04B"/>
<path d="M26.7936 3.57251H8.60645V4.38444H26.7936V3.57251Z" fill="#FDA04B"/>
<path d="M23.0047 6.65784H12.3955V7.46976H23.0047V6.65784Z" fill="#FDA04B"/>
</svg>
