<svg width="18" height="18" viewBox="0 0 18 18" fill="none" xmlns="http://www.w3.org/2000/svg">
<path d="M9.12165 10.124C9.07185 10.0836 9.00966 10.0615 8.94553 10.0615C8.8814 10.0615 8.81921 10.0836 8.76941 10.124L1.22136 16.2742C1.16353 16.3209 1.12663 16.3887 1.11876 16.4626C1.1109 16.5366 1.13272 16.6106 1.17943 16.6684C1.22614 16.7262 1.29391 16.7632 1.36783 16.771C1.44176 16.7789 1.51577 16.7571 1.57361 16.7103L8.94553 10.7027L16.3175 16.7103C16.3674 16.7504 16.4296 16.7721 16.4936 16.7718C16.5516 16.7721 16.6082 16.7543 16.6556 16.7209C16.7031 16.6875 16.7389 16.6402 16.7583 16.5856C16.7776 16.5309 16.7795 16.4716 16.7636 16.4158C16.7478 16.36 16.7149 16.3105 16.6697 16.2742L9.12165 10.124Z" fill="black"/>
<path d="M17.8917 6.70793C17.8894 6.67824 17.8829 6.64903 17.8721 6.62127V6.60449C17.8587 6.57575 17.8407 6.54933 17.819 6.52622C17.8064 6.51337 17.7923 6.50211 17.777 6.49267L14.8165 4.59727V1.39634C14.8165 1.3222 14.7871 1.25109 14.7347 1.19867C14.6822 1.14624 14.6111 1.11679 14.537 1.11679H10.707L9.09959 0.0460809C9.05394 0.0160208 9.00049 0 8.94583 0C8.89118 0 8.83772 0.0160208 8.79208 0.0460809L7.18462 1.11679H3.35469C3.28054 1.11679 3.20944 1.14624 3.15701 1.19867C3.10458 1.25109 3.07513 1.3222 3.07513 1.39634V4.59727L0.128596 6.4731C0.113306 6.48254 0.099224 6.4938 0.0866627 6.50665C0.0649177 6.52976 0.0469883 6.55618 0.0335469 6.58492V6.6017C0.015872 6.63472 0.00449605 6.67074 0 6.70793V17.6107C0 17.6848 0.0294533 17.7559 0.0818804 17.8083C0.134308 17.8608 0.205414 17.8902 0.279557 17.8902H17.6121C17.6862 17.8902 17.7574 17.8608 17.8098 17.8083C17.8622 17.7559 17.8917 17.6848 17.8917 17.6107V6.70793ZM8.94583 0.613582L9.70064 1.11679H8.19103L8.94583 0.613582ZM0.559114 17.3311V7.28382L5.41782 11.1221C5.46737 11.1606 5.52842 11.1813 5.59114 11.1808C5.63314 11.1807 5.67454 11.171 5.71229 11.1526C5.75004 11.1342 5.78316 11.1076 5.8092 11.0746C5.83227 11.0458 5.84941 11.0128 5.85965 10.9774C5.86989 10.942 5.87302 10.9049 5.86887 10.8682C5.86471 10.8316 5.85334 10.7961 5.83543 10.7639C5.81751 10.7317 5.7934 10.7033 5.76447 10.6804L0.763191 6.73309L3.07513 5.25982V7.26704C3.07513 7.34119 3.10458 7.41229 3.15701 7.46472C3.20944 7.51715 3.28054 7.5466 3.35469 7.5466C3.42883 7.5466 3.49994 7.51715 3.55236 7.46472C3.60479 7.41229 3.63424 7.34119 3.63424 7.26704V1.6759H14.2574V7.26704C14.2574 7.34119 14.2869 7.41229 14.3393 7.46472C14.3917 7.51715 14.4628 7.5466 14.537 7.5466C14.6111 7.5466 14.6822 7.51715 14.7347 7.46472C14.7871 7.41229 14.8165 7.34119 14.8165 7.26704V5.25982L17.1313 6.73309L12.1272 10.6804C12.0686 10.7264 12.0307 10.7938 12.0218 10.8677C12.0129 10.9416 12.0337 11.016 12.0797 11.0746C12.1256 11.1332 12.193 11.1711 12.2669 11.18C12.3408 11.1889 12.4153 11.1681 12.4738 11.1221L17.3325 7.28382V17.3311H0.559114Z" fill="black"/>
<path d="M5.87038 3.91239H12.0206C12.0948 3.91239 12.1659 3.88293 12.2183 3.83051C12.2707 3.77808 12.3002 3.70697 12.3002 3.63283C12.3002 3.55869 12.2707 3.48758 12.2183 3.43515C12.1659 3.38272 12.0948 3.35327 12.0206 3.35327H5.87038C5.79623 3.35327 5.72513 3.38272 5.6727 3.43515C5.62027 3.48758 5.59082 3.55869 5.59082 3.63283C5.59082 3.70697 5.62027 3.77808 5.6727 3.83051C5.72513 3.88293 5.79623 3.91239 5.87038 3.91239Z" fill="black"/>
<path d="M12.0206 5.58988C12.0948 5.58988 12.1659 5.56042 12.2183 5.508C12.2707 5.45557 12.3002 5.38446 12.3002 5.31032C12.3002 5.23618 12.2707 5.16507 12.2183 5.11264C12.1659 5.06021 12.0948 5.03076 12.0206 5.03076H5.87038C5.79623 5.03076 5.72513 5.06021 5.6727 5.11264C5.62027 5.16507 5.59082 5.23618 5.59082 5.31032C5.59082 5.38446 5.62027 5.45557 5.6727 5.508C5.72513 5.56042 5.79623 5.58988 5.87038 5.58988H12.0206Z" fill="black"/>
<path d="M12.0212 6.70752H8.94606C8.87192 6.70752 8.80081 6.73697 8.74838 6.7894C8.69596 6.84183 8.6665 6.91293 8.6665 6.98708C8.6665 7.06122 8.69596 7.13233 8.74838 7.18475C8.80081 7.23718 8.87192 7.26663 8.94606 7.26663H12.0212C12.0953 7.26663 12.1664 7.23718 12.2189 7.18475C12.2713 7.13233 12.3007 7.06122 12.3007 6.98708C12.3007 6.91293 12.2713 6.84183 12.2189 6.7894C12.1664 6.73697 12.0953 6.70752 12.0212 6.70752Z" fill="black"/>
</svg>
