<svg width="26" height="22" viewBox="0 0 26 22" fill="none" xmlns="http://www.w3.org/2000/svg">
<path fill-rule="evenodd" clip-rule="evenodd" d="M24.9473 0.395598C23.96 1.01402 22.8691 1.46378 21.7031 1.70443C20.7743 0.655445 19.4468 0 17.9771 0C15.1601 0 12.8739 2.41884 12.8739 5.40193C12.8739 5.82564 12.9178 6.23632 13.0055 6.63192C8.76263 6.40635 5.00148 4.25833 2.48208 0.985909C2.04225 1.7867 1.79111 2.71571 1.79111 3.70504C1.79111 5.57814 2.69203 7.23183 4.06268 8.2006C3.22687 8.17455 2.43823 7.9291 1.74859 7.52733V7.59315C1.74859 10.2115 3.50858 12.3959 5.84592 12.8902C5.41805 13.017 4.96626 13.0808 4.50052 13.0808C4.17164 13.0808 3.85074 13.0479 3.5398 12.9848C4.18958 15.1301 6.07381 16.6926 8.30818 16.7344C6.56148 18.1838 4.359 19.0477 1.96784 19.0477C1.55591 19.0477 1.14864 19.023 0.75 18.9736C3.00895 20.5039 5.69378 21.3986 8.57593 21.3986C17.9672 21.3986 23.101 13.1685 23.101 6.02927C23.101 5.7941 23.097 5.55962 23.0883 5.32926C24.0856 4.56754 24.952 3.6166 25.6337 2.53333C24.7194 2.96253 23.7348 3.25323 22.7023 3.38349C23.7567 2.71571 24.566 1.65712 24.9473 0.395598Z" fill="#86939E"/>
</svg>
