<svg width="30" height="33" viewBox="0 0 30 33" fill="none" xmlns="http://www.w3.org/2000/svg">
<path d="M4.68563 6.46149C6.8559 4.24189 9.71672 2.81149 12.7748 2.41689C12.9721 3.20608 13.712 3.8473 14.5998 3.8473C15.6356 3.8473 16.5235 3.00878 16.5235 1.92365C16.5235 0.838514 15.685 0 14.5998 0C13.6133 0 12.8241 0.739865 12.7255 1.67703C9.47009 2.07162 6.41199 3.60068 4.14307 5.96824L4.68563 6.46149ZM14.5998 0.739865C15.241 0.739865 15.7836 1.28243 15.7836 1.92365C15.7836 2.56486 15.241 3.05811 14.5998 3.05811C13.9586 3.05811 13.416 2.51554 13.416 1.87432C13.416 1.28243 13.9586 0.739865 14.5998 0.739865Z" fill="#FDA04B"/>
<path d="M0.591892 20.2723L1.28243 20.075C0.887838 18.7925 0.739865 17.5101 0.739865 16.1783C0.739865 14.3533 1.08514 12.5283 1.77568 10.8513C1.92365 10.9006 2.12095 10.9006 2.26892 10.9006C2.95946 10.9006 3.60068 10.5554 3.94595 9.96347C4.19257 9.51955 4.29122 9.02631 4.14324 8.53307C3.99527 8.03982 3.69932 7.64523 3.25541 7.34928C2.95946 7.20131 2.61419 7.10266 2.31824 7.10266C1.6277 7.10266 0.986486 7.44793 0.641216 8.03982C0.394594 8.43442 0.34527 8.97699 0.443919 9.47023C0.542567 9.86482 0.789189 10.2594 1.13446 10.506C0.394594 12.2817 0 14.2054 0 16.129C0 17.5101 0.197297 18.9405 0.591892 20.2723ZM1.28243 8.38509C1.47973 8.03982 1.87432 7.7932 2.31824 7.7932C2.51554 7.7932 2.71284 7.84253 2.91014 7.94117C3.15676 8.08915 3.35405 8.33577 3.4527 8.68104C3.50203 8.97699 3.50203 9.27293 3.30473 9.56888C3.00878 10.1114 2.21959 10.3087 1.67703 10.0128C1.43041 9.86482 1.23311 9.6182 1.13446 9.32226C1.08513 8.97699 1.13446 8.63172 1.28243 8.38509Z" fill="#FDA04B"/>
<path d="M3.6008 24.5142C3.84742 24.2676 3.9954 24.021 4.09404 23.6757C4.24202 23.1824 4.14337 22.6892 3.89675 22.2453C3.55148 21.6534 2.91026 21.2588 2.21972 21.2588C1.87445 21.2588 1.5785 21.3574 1.28256 21.5054C0.838639 21.752 0.542693 22.1466 0.39472 22.6399C0.246747 23.1331 0.345396 23.6264 0.592017 24.0703C0.937287 24.6622 1.5785 25.0568 2.26904 25.0568C2.51567 25.0568 2.76229 25.0074 3.00891 24.9088C4.93256 27.4243 7.59607 29.2987 10.6049 30.1372L10.8022 29.4466C7.94134 28.6574 5.37648 26.8818 3.6008 24.5142ZM1.23323 23.725C1.03594 23.4784 1.03594 23.1331 1.08526 22.8372C1.18391 22.5412 1.38121 22.2946 1.62783 22.1466C1.82513 22.048 2.02242 21.9987 2.21972 21.9987C2.66364 21.9987 3.05823 22.2453 3.25553 22.5905C3.4035 22.8865 3.45283 23.1824 3.35418 23.4784C3.25553 23.7743 3.05823 24.021 2.81161 24.1689C2.26904 24.4649 1.52918 24.2676 1.23323 23.725Z" fill="#FDA04B"/>
<path d="M24.4155 25.8953C22.2452 28.0655 19.4337 29.4466 16.4249 29.8412C16.2276 29.052 15.4878 28.4601 14.5999 28.4108C13.5641 28.4108 12.6763 29.2493 12.6763 30.2851C12.6763 31.3209 13.5148 32.2088 14.5506 32.2088C15.5371 32.2088 16.3263 31.4689 16.4249 30.5318C19.631 30.1372 22.5905 28.6574 24.8594 26.3885L24.4155 25.8953ZM14.5999 31.5182V31.8635V31.5182C13.9587 31.5182 13.4161 30.9757 13.4161 30.3345C13.4161 29.6932 13.9587 29.1507 14.5999 29.1507C15.2411 29.1507 15.7837 29.6932 15.7837 30.3345C15.7837 31.025 15.2411 31.5182 14.5999 31.5182Z" fill="#FDA04B"/>
<path d="M25.698 7.84262C25.4514 8.08924 25.3034 8.33586 25.2048 8.68113C25.0568 9.17437 25.1061 9.66762 25.3527 10.1609C25.698 10.7528 26.3392 11.1473 27.0298 11.1473C27.375 11.1473 27.671 11.0487 27.9669 10.9007C28.9041 10.4075 29.2 9.2237 28.7068 8.28654C28.3615 7.69464 27.7203 7.30005 27.0298 7.30005C26.7832 7.30005 26.5365 7.34937 26.3392 7.44802C24.3169 4.73518 21.4561 2.76221 18.1514 1.97302L17.9541 2.71289C21.0615 3.45275 23.7744 5.27775 25.698 7.84262ZM28.0656 8.68113C28.3615 9.2237 28.1642 9.96356 27.6217 10.2595C27.0791 10.5555 26.3392 10.3582 26.0433 9.81559C25.8953 9.51964 25.846 9.2237 25.9446 8.92775C26.0433 8.63181 26.2406 8.38518 26.4872 8.23721C26.6845 8.13856 26.8818 8.08924 27.0791 8.08924C27.4737 8.03991 27.8683 8.28654 28.0656 8.68113Z" fill="#FDA04B"/>
<path d="M28.0164 21.9001C28.8056 20.0751 29.2002 18.1514 29.2002 16.1291C29.2002 14.896 29.0522 13.6629 28.707 12.4298L28.0164 12.6271C28.3124 13.7616 28.4603 14.9454 28.4603 16.1291C28.4603 18.0035 28.0658 19.8285 27.3259 21.5548C27.1779 21.5055 26.9806 21.5055 26.7833 21.5055C26.0928 21.5055 25.5009 21.8508 25.1556 22.4426C24.613 23.3305 24.909 24.5143 25.7968 25.0568C26.0928 25.2541 26.438 25.3035 26.7833 25.3035C27.4739 25.3035 28.0658 24.9582 28.411 24.3663C28.9536 23.5771 28.7563 22.492 28.0164 21.9001ZM27.8191 24.021C27.5232 24.5636 26.734 24.7609 26.1914 24.4156C25.6489 24.0704 25.4516 23.3798 25.7968 22.7879C25.9941 22.4426 26.3887 22.196 26.7833 22.196C26.9806 22.196 27.1779 22.2453 27.3752 22.344C27.9671 22.7386 28.1644 23.4291 27.8191 24.021Z" fill="#FDA04B"/>
<path d="M25.6979 16.3758L25.9446 16.1291L25.6979 15.8825C25.55 15.7345 22.3439 12.5285 17.8554 11.2954C16.8689 11.0487 15.9317 10.9008 14.9946 10.8514C14.8466 10.8514 14.7479 10.8514 14.6 10.8514C14.452 10.8514 14.3533 10.8514 14.2054 10.8514C13.2682 10.9008 12.331 11.0487 11.3446 11.2954C6.85605 12.5285 3.64997 15.7345 3.50199 15.8825L3.25537 16.1291L3.50199 16.3758C3.55132 16.4251 5.27767 18.1514 7.89186 19.5818C10.1608 20.815 12.3804 21.4068 14.5506 21.4068H14.6H14.6493C16.8196 21.4068 19.0392 20.7656 21.3081 19.5818C23.9223 18.1514 25.6486 16.4744 25.6979 16.3758ZM14.6493 20.667C14.6493 20.667 14.6 20.667 14.6493 20.667C14.6 20.667 14.5506 20.667 14.5506 20.667C12.0351 20.6177 10.0128 18.5954 10.0128 16.1291C10.0128 13.7616 11.8378 11.7886 14.156 11.5913C14.4027 11.5913 14.6986 11.5913 14.9452 11.5913C17.2635 11.7886 19.0885 13.7616 19.0885 16.1291C19.1378 18.6447 17.1155 20.667 14.6493 20.667ZM8.23713 18.9406C6.31348 17.9048 4.88307 16.6717 4.29118 16.1291C5.1297 15.3893 7.74388 13.1204 11.1473 12.0845C10.0128 13.071 9.27294 14.5014 9.27294 16.0798C9.27294 17.7075 10.0128 19.1379 11.1473 20.1244C10.2101 19.8778 9.22361 19.4832 8.23713 18.9406ZM18.0527 20.1737C19.1871 19.1873 19.927 17.7568 19.927 16.1291C19.927 14.5014 19.1871 13.071 18.0527 12.1339C21.456 13.1697 24.0702 15.3893 24.9088 16.1785C24.3169 16.721 22.8865 17.9541 20.9628 18.99C19.9763 19.4832 18.9898 19.8778 18.0527 20.1737Z" fill="#FDA04B"/>
<path d="M14.5999 14.5507C13.712 14.5507 13.0215 15.2905 13.0215 16.129C13.0215 17.0169 13.7613 17.7074 14.5999 17.7074C15.4877 17.7074 16.1782 16.9676 16.1782 16.129C16.1782 15.2412 15.4877 14.5507 14.5999 14.5507ZM14.5999 16.9676C14.1066 16.9676 13.7613 16.573 13.7613 16.129C13.7613 15.6358 14.1559 15.2905 14.5999 15.2905C15.0931 15.2905 15.4384 15.6851 15.4384 16.129C15.4384 16.6223 15.0931 16.9676 14.5999 16.9676Z" fill="#FDA04B"/>
<path d="M14.9943 6.46143H14.2544V9.47021H14.9943V6.46143Z" fill="#FDA04B"/>
<path d="M10.11 7.56676L9.46924 7.93677L10.9739 10.5424L11.6147 10.1724L10.11 7.56676Z" fill="#FDA04B"/>
<path d="M9.40029 24.1938L10.041 24.5638L11.5457 21.9582L10.905 21.5882L9.40029 24.1938Z" fill="#FDA04B"/>
<path d="M14.8961 22.6398H14.1562V25.6486H14.8961V22.6398Z" fill="#FDA04B"/>
<path d="M19.0253 24.5845L19.666 24.2146L18.1616 21.609L17.5209 21.9789L19.0253 24.5845Z" fill="#FDA04B"/>
<path d="M19.7486 7.94586L19.1079 7.57593L17.6035 10.1815L18.2442 10.5515L19.7486 7.94586Z" fill="#FDA04B"/>
</svg>
