<svg width="36" height="36" viewBox="0 0 36 36" fill="none" xmlns="http://www.w3.org/2000/svg">
<path d="M34.7317 31.2586C34.5146 30.119 33.6463 29.2507 32.5067 28.9793L29.0878 28.1653L28.0567 26.7543C28.8165 26.0488 29.4134 25.1263 29.4677 24.0409C29.7933 23.7696 30.4445 23.1183 30.4445 22.4129C30.4445 21.8159 30.1189 21.5988 29.7933 21.4903L29.9018 20.6763C29.9561 19.5909 29.522 18.994 29.0878 18.7226C29.4134 18.2342 29.3049 17.8543 29.3049 17.8001L29.1421 17.3116L28.7079 17.6372C28.1652 18.0171 27.8939 17.8543 27.8396 17.8543C27.0256 17.4744 25.3976 17.4202 25.289 17.4202C23.661 17.4202 23.064 18.1799 22.847 18.6683C21.3817 18.8854 21.436 20.4592 21.436 21.1104C21.436 21.219 21.436 21.3275 21.436 21.3818C21.436 21.4903 21.436 21.5446 21.436 21.6531C21.1646 21.7616 20.8933 21.9787 20.8933 22.5214C20.8933 23.2269 21.5445 23.8781 21.8701 24.1494C21.9244 25.2348 22.5213 26.1574 23.2811 26.8086L22.25 28.2738L19.5366 28.9251C19.1567 28.6537 18.7768 28.4366 18.2884 28.3281L14.4354 27.4055L13.2415 25.7775C14.1098 25.0177 14.761 23.9866 14.8152 22.7385C15.1409 22.4671 15.9006 21.7074 15.9006 20.9476C15.9006 20.2964 15.575 20.0251 15.1951 19.9708L15.3037 18.994C15.3579 17.8001 14.8695 17.1488 14.3811 16.8232C14.761 16.2805 14.6524 15.9007 14.5982 15.7921L14.4354 15.3037L14.0012 15.6293C13.4043 16.0635 13.0244 15.8464 13.0244 15.8464C12.1561 15.4665 10.311 15.358 10.2024 15.358C8.35732 15.358 7.7061 16.2263 7.48902 16.7147C5.86098 16.986 5.91524 18.6683 5.96951 19.4281C5.96951 19.5366 5.96951 19.6452 5.96951 19.7537C5.96951 19.8622 5.96951 19.9708 5.96951 20.0793C5.6439 20.1879 5.37256 20.4592 5.31829 21.0019C5.31829 21.8159 6.02378 22.5214 6.40366 22.847C6.5122 24.0409 7.10915 25.072 7.97744 25.8318L6.78354 27.5141L3.31037 28.3281C2.0622 28.5994 1.13963 29.6305 0.868293 30.8787L0 35.6001H35.6L34.7317 31.2586ZM22.6299 23.9324V23.7153L22.4671 23.6068C22.1957 23.3897 21.653 22.847 21.7073 22.5214C21.7073 22.4671 21.7073 22.4129 21.7073 22.4129C21.8701 22.4129 22.0329 22.3586 22.1415 22.1958C22.25 22.0872 22.3043 21.9244 22.25 21.7616C22.25 21.5988 22.1957 21.4903 22.25 21.3818C22.25 21.2732 22.25 21.1647 22.25 21.0562C22.1957 19.9708 22.3043 19.4281 23.1726 19.4281H23.4982L23.5524 19.1025C23.5524 19.0482 23.7695 18.2342 25.289 18.2342C25.7232 18.2342 26.9713 18.3427 27.514 18.6141C27.5683 18.6141 27.8396 18.7226 28.1652 18.7226L27.5683 19.3196L28.4366 19.3738C28.4909 19.3738 29.1963 19.4281 29.0878 20.6763L28.9793 21.8159C28.9793 21.9787 29.0335 22.0872 29.0878 22.1958C29.1963 22.3043 29.3049 22.3586 29.4677 22.3586L29.5762 22.3043C29.5762 22.3043 29.5762 22.3586 29.5762 22.4671C29.5762 22.847 29.0335 23.3897 28.8165 23.5525L28.6537 23.661V23.8781C28.6537 25.6147 26.8085 27.0257 25.6689 27.0257C24.3122 26.9714 22.6841 25.5604 22.6299 23.9324ZM25.6689 27.7854C26.2659 27.7854 26.8628 27.5683 27.4598 27.2427L28.4909 28.6537L27.0256 34.1891L26.7 30.8787L27.4598 29.4677C27.514 29.3592 27.514 29.1964 27.4598 29.0879C27.4055 28.9793 27.2427 28.8708 27.1341 28.8708H24.3665C24.2037 28.8708 24.0951 28.9251 24.0409 29.0879C23.9866 29.1964 23.9866 29.3592 24.0409 29.4677L24.8006 30.8787L24.475 34.1891L22.9012 28.708L23.9323 27.297C24.475 27.6226 25.072 27.7854 25.6689 27.7854ZM24.9634 29.6848H26.3744L25.9945 30.3903H25.3433L24.9634 29.6848ZM7.10915 22.5757V22.3586L6.94634 22.2501C6.62073 22.033 6.07805 21.436 6.07805 21.0019C6.07805 20.8933 6.07805 20.8391 6.13232 20.8391C6.29512 20.8391 6.5122 20.7848 6.62073 20.622C6.72927 20.5135 6.78354 20.3507 6.72927 20.1879C6.72927 20.0251 6.675 19.8622 6.675 19.7537C6.675 19.6452 6.675 19.5366 6.675 19.3738C6.62073 18.1799 6.78354 17.5287 7.7061 17.4744H8.03171L8.08598 17.1488C8.08598 17.0946 8.30305 16.1177 10.0939 16.1177C10.5823 16.1177 11.9933 16.2805 12.5902 16.5519C12.6445 16.5519 12.8616 16.6604 13.1872 16.6604C13.2415 16.6604 13.35 16.6604 13.4043 16.6604L13.35 16.7147L12.753 17.3116L13.5671 17.4202C13.6756 17.4202 14.4354 17.583 14.3811 18.9397L14.2183 20.2421C14.2183 20.4049 14.2726 20.5135 14.3268 20.622C14.4354 20.7305 14.5439 20.7848 14.7067 20.7848H14.8152H14.8695C14.8695 20.7848 14.9238 20.8391 14.9238 21.0019C14.9238 21.436 14.3811 22.033 14.0012 22.3043L13.8384 22.4129V22.6299C13.8384 24.5836 11.7762 26.1574 10.4195 26.1574C9.06281 26.0488 7.16341 24.4751 7.10915 22.5757ZM10.5281 26.8629C11.125 26.8629 11.8305 26.6458 12.4817 26.2116L13.6756 27.8397L11.939 34.2976L11.5591 30.2818L12.4274 28.708C12.4817 28.5994 12.4817 28.4366 12.4274 28.3281C12.3732 28.2196 12.2104 28.111 12.1018 28.111H9.00854C8.84573 28.111 8.7372 28.1653 8.68293 28.3281C8.62866 28.4366 8.62866 28.5994 8.68293 28.708L9.55122 30.2818L9.17134 34.2976L7.43476 27.894L8.62866 26.2116C9.22561 26.6458 9.9311 26.8629 10.5281 26.8629ZM9.65976 28.9793H11.3963L10.9622 29.8476H10.1482L9.65976 28.9793ZM0.922561 34.786L1.62805 30.9872C1.79085 30.0647 2.49634 29.3049 3.4189 29.0879L6.675 28.3281L8.41159 34.7318H0.922561V34.786ZM9.87683 34.786L10.2567 30.6616H10.7994L11.1793 34.786H9.87683ZM12.6988 34.786L14.4354 28.2738L18.0171 29.1421C18.9396 29.3592 19.6451 30.119 19.8079 31.0415L20.5134 34.8403H12.6988V34.786ZM21.3817 34.786L20.622 30.8244C20.5134 30.3903 20.3506 29.9562 20.0793 29.5763L22.0872 29.0879L23.6067 34.7318H21.3817V34.786ZM25.1262 34.786L25.4518 31.2043H25.886L26.2116 34.786H25.1262ZM27.6226 34.786L29.1421 29.0336L32.3439 29.7933C33.1579 29.9562 33.7549 30.6074 33.9177 31.4214L34.5689 34.7318H27.6226V34.786Z" fill="#FDA04B"/>
<path d="M10.3652 12.5902L13.8926 9.38842H14.4353V11.9933H24.0951L27.1341 14.7067V11.9933H28.925V2.225H24.3664V0H8.08594V9.38842H10.2567L10.3652 12.5902ZM28.2195 3.03903V11.1793H26.4286V12.9159L24.5292 11.1793H15.3036V9.38842H24.475V3.03903H28.2195ZM9.0085 0.868293H23.6609V8.57439H13.6213L11.1792 10.7451V8.57439H9.0085V0.868293Z" fill="#FDA04B"/>
<path d="M21.2733 2.98474H11.3965V3.79877H21.2733V2.98474Z" fill="#FDA04B"/>
<path d="M19.5908 5.5896H13.0786V6.40362H19.5908V5.5896Z" fill="#FDA04B"/>
</svg>
