<svg width="198" height="83" viewBox="0 0 198 83" fill="none" xmlns="http://www.w3.org/2000/svg">
<path d="M19.6718 14.8928H8.39546V19.6171H19.4394V26.7887H8.39546V36.7329H0.356445V12.6159C0.356445 9.9052 2.55595 7.72119 5.25111 7.72119H19.6563V14.8928H19.6718Z" fill="#0D201C"/>
<path d="M83.1782 36.7329H74.1943L69.2532 29.0192L64.3121 36.7329H55.2817L64.7613 21.9405L55.638 7.72119H64.6683L69.2532 14.8928L73.8381 7.72119H82.8684L73.7451 21.9715L83.1782 36.7329Z" fill="#0D201C"/>
<path d="M107.466 7.72119V14.8928H99.6902V36.7329H91.6512V14.8928H83.8755V7.72119H107.466Z" fill="#0D201C"/>
<path d="M118.432 29.7627H130.607V36.7329H110.393V7.72119H130.374V14.645H118.432V18.6722H129.259V25.5031H118.432V29.7627Z" fill="#0D201C"/>
<path d="M154.042 36.7329L152.695 32.5507H142.224L140.876 36.7329H132.156L142.534 7.72119H152.323L162.701 36.7329H154.042ZM144.299 26.1536H150.635L147.444 16.3023L144.299 26.1536Z" fill="#0D201C"/>
<path d="M197.071 11.8569V36.7329H189.079V21.1041L181.443 32.7521H180.637L173.047 21.1505V36.7329H165.008V7.72119H173.047L181.04 20.1127L189.079 7.72119H192.936C195.213 7.72119 197.071 9.56443 197.071 11.8569Z" fill="#0D201C"/>
<path d="M72.3208 58.8827C71.1436 58.8827 70.1678 59.2544 69.3933 59.9979C68.6188 60.7414 68.2471 61.6863 68.2471 62.8325C68.2471 63.9942 68.6343 64.9545 69.3933 65.698C70.1523 66.4415 71.1436 66.8133 72.3208 66.8133C73.498 66.8133 74.4738 66.4415 75.2483 65.698C76.0073 64.9545 76.3945 63.9942 76.3945 62.8325C76.3945 61.6863 76.0073 60.7414 75.2483 59.9979C74.4738 59.2544 73.498 58.8827 72.3208 58.8827Z" fill="#FF6F00"/>
<path d="M13.1663 58.9602C12.0046 58.9602 11.0287 59.3474 10.2698 60.1064C9.49528 60.8809 9.12354 61.8567 9.12354 63.0649C9.12354 64.2731 9.51077 65.2489 10.2698 66.0234C11.0287 66.7979 12.0046 67.1696 13.1663 67.1696C14.328 67.1696 15.2883 66.7824 16.0473 66.0234C16.8063 65.2644 17.178 64.2731 17.178 63.0649C17.178 61.8567 16.8063 60.8809 16.0473 60.1064C15.2883 59.3474 14.328 58.9602 13.1663 58.9602Z" fill="#FF6F00"/>
<path d="M158.736 58.9602C157.574 58.9602 156.614 59.3474 155.855 60.1064C155.096 60.8809 154.724 61.8567 154.724 63.0649C154.724 64.2731 155.096 65.2489 155.855 66.0234C156.614 66.7979 157.574 67.1696 158.736 67.1696C159.898 67.1696 160.873 66.7824 161.632 66.0234C162.391 65.2644 162.779 64.2731 162.779 63.0649C162.779 61.8567 162.391 60.8809 161.632 60.1064C160.873 59.3474 159.898 58.9602 158.736 58.9602Z" fill="#FF6F00"/>
<path d="M0 42.9595V76.0139C0 79.4061 2.74163 82.1477 6.13382 82.1477H190.055C193.448 82.1477 196.189 79.4061 196.189 76.0139V42.9595H0ZM20.9417 70.3603H17.1778V68.6409C16.078 70.066 14.4981 70.763 12.4535 70.763C10.4863 70.763 8.81349 70.0195 7.43493 68.5325C6.04088 67.0455 5.35934 65.2333 5.35934 63.0648C5.35934 60.9117 6.05637 59.084 7.43493 57.597C8.82898 56.11 10.5018 55.3665 12.4535 55.3665C14.4981 55.3665 16.0625 56.079 17.1778 57.4886V49.9452H20.9417V70.3603ZM44.9658 70.3603H41.2019V55.8002H44.9658V70.3603ZM44.718 53.3529C44.2688 53.8021 43.7112 54.0344 43.0761 54.0344C42.4565 54.0344 41.9144 53.8021 41.4652 53.3529C41.016 52.9037 40.7837 52.3616 40.7837 51.742C40.7837 51.1224 41.016 50.5803 41.4652 50.1156C41.9144 49.6509 42.4565 49.4186 43.0761 49.4186C43.7112 49.4186 44.2688 49.6509 44.718 50.1156C45.1672 50.5803 45.3995 51.1224 45.3995 51.742C45.415 52.3616 45.1827 52.9037 44.718 53.3529ZM80.0649 69.6633C80.0649 71.9092 79.3214 73.6285 77.8344 74.8212C76.3474 75.9984 74.5506 76.6025 72.4596 76.6025C70.8796 76.6025 69.5011 76.3082 68.3084 75.7041C67.1157 75.1 66.2018 74.2171 65.5513 73.0554L68.7576 71.2277C69.5011 72.5908 70.7712 73.2723 72.568 73.2723C73.7452 73.2723 74.69 72.9625 75.3716 72.3429C76.0531 71.7233 76.3939 70.8405 76.3939 69.6942V68.1143C75.2941 69.5858 73.7297 70.3293 71.7316 70.3293C69.6715 70.3293 67.9521 69.6013 66.5581 68.1608C65.164 66.7203 64.4825 64.9545 64.4825 62.8789C64.4825 60.8188 65.1795 59.0685 66.5736 57.6125C67.9676 56.1565 69.687 55.4285 71.7316 55.4285C73.7297 55.4285 75.2786 56.172 76.3939 57.6435V55.8312H80.0649V69.6633ZM104.074 70.3603H100.31V55.8002H104.074V70.3603ZM103.826 53.3529C103.376 53.8021 102.819 54.0344 102.184 54.0344C101.564 54.0344 101.022 53.8021 100.573 53.3529C100.124 52.9037 99.8914 52.3616 99.8914 51.742C99.8914 51.1224 100.124 50.5803 100.573 50.1156C101.022 49.6509 101.564 49.4186 102.184 49.4186C102.819 49.4186 103.376 49.6509 103.826 50.1156C104.275 50.5803 104.507 51.1224 104.507 51.742C104.507 52.3616 104.275 52.9037 103.826 53.3529ZM132.667 59.4092H129.368V65.4656C129.368 65.9768 129.492 66.333 129.739 66.5654C129.987 66.7977 130.359 66.9216 130.839 66.9526C131.319 66.9836 131.924 66.9836 132.652 66.9371V70.3448C130.065 70.6391 128.253 70.3913 127.184 69.6168C126.13 68.8423 125.604 67.4483 125.604 65.4501V59.3938H123.064V55.7847H125.619V52.8417L129.383 51.711V55.7847H132.682V59.4092H132.667ZM166.542 70.3603H162.794V68.6409C161.663 70.066 160.083 70.763 158.054 70.763C156.118 70.763 154.445 70.0195 153.051 68.5325C151.657 67.0455 150.976 65.2333 150.976 63.0648C150.976 60.9117 151.673 59.084 153.051 57.597C154.445 56.11 156.103 55.3665 158.054 55.3665C160.099 55.3665 161.679 56.079 162.794 57.4886V55.7692H166.558V70.3603H166.542ZM189.823 70.3603H186.059V49.0933H189.823V70.3603Z" fill="#FF6F00"/>
<path d="M51.2542 21.6461C51.4091 21.4137 51.4711 21.1504 51.564 20.8871C51.6569 20.6393 51.7344 20.6857 51.8738 20.8561C52.8806 22.1572 53.5931 23.5823 53.9958 25.1622C54.1662 25.8592 54.2747 26.5717 54.3676 27.2997C54.8323 26.8196 55.6222 23.6907 55.6377 21.5532C55.6532 19.5395 55.3279 17.6033 54.6309 15.7291C52.4469 9.85863 47.2115 6.45095 43.3701 5.63001C43.5715 6.0947 43.8038 6.51291 43.9432 6.9621C44.8261 9.7502 44.1136 11.7948 41.6972 13.5451C40.0244 14.7533 38.1502 15.5587 36.2295 16.2867C35.9197 16.4107 35.6099 16.5191 35.3001 16.6275C35.0213 16.7359 34.7425 16.8134 34.4482 16.8134C34.1229 16.8134 33.7821 16.8599 33.6117 17.1696C33.4414 17.5104 33.7047 17.7582 33.906 17.9906C35.5169 19.9268 37.639 20.98 40.1173 21.4292C41.0157 21.5996 41.9141 21.708 42.828 21.739C43.2152 21.7545 43.2462 21.801 43.1377 22.1727C42.4872 24.4652 40.9073 25.8282 38.5993 26.4478C36.7406 26.9435 34.8819 26.7886 33.0386 26.3859C32.0783 26.169 31.1334 25.8747 30.1421 25.8747C28.872 25.8902 27.7103 26.1845 26.7654 27.0674C26.6415 27.1913 26.5486 27.2533 26.4556 27.0209C25.6812 25.0847 25.2784 23.1176 26.0529 21.073C26.5641 19.7409 27.5089 18.7186 28.6396 17.8667C30.328 16.612 32.2487 15.7756 34.1694 14.9392C35.9971 14.1492 37.8559 13.4057 39.5597 12.3524C42.3168 10.6486 43.1997 7.87598 42.2548 4.94848C41.6353 3.02779 40.4891 1.46336 38.9091 0.177733C38.5993 -0.0855869 38.5529 -0.0700975 38.429 0.317138C37.9178 1.97451 36.7871 3.16719 35.393 4.1895C34.1539 5.10337 32.7443 5.75393 31.4277 6.54389C28.779 8.12381 26.3937 9.98254 24.6124 12.4918C22.8621 14.9701 21.9947 17.7118 21.9017 20.7167C21.8398 22.8388 22.1496 24.8989 22.924 26.8815C24.6434 31.2805 27.7103 34.4558 32.1403 36.361C33.0077 36.7328 33.8906 37.0581 34.8199 37.2594C38.0882 37.941 41.31 37.9719 44.3459 36.3456C46.2047 35.3387 47.5367 33.8518 48.3112 31.9466C49.5659 28.8642 49.5039 25.7973 47.8465 22.8388C47.4903 22.2192 47.0256 21.6771 46.5144 21.1659C46.2976 20.9336 46.0188 20.9181 45.74 20.9181C44.4543 20.8871 43.1842 20.8251 41.8986 20.6857C39.823 20.4689 37.8404 20.0042 36.1365 18.7651C35.9352 18.6256 35.5479 18.4553 35.6254 18.2694C35.7028 18.0525 36.0591 18.2384 36.2914 18.2694C38.3515 18.5172 40.3961 18.3159 42.4562 18.2229C43.9122 18.161 45.3372 18.1919 46.6848 18.8115C46.8862 18.9045 47.0256 18.889 46.9946 18.6256C46.9946 18.5947 46.9946 18.5482 46.9946 18.5172C47.0101 18.3004 46.8707 17.9906 47.0256 17.8976C47.2424 17.7892 47.4593 18.037 47.6607 18.161C49.0547 18.9819 50.2164 20.0352 51.0529 21.3983C51.0993 21.4757 51.1458 21.5377 51.1923 21.5996C51.1923 21.6306 51.2077 21.6461 51.2542 21.6461ZM34.2623 6.51291C34.2468 6.48193 34.2468 6.45095 34.2313 6.41997C34.5876 6.21861 34.9438 6.01725 35.3001 5.8004C36.8181 4.90201 38.2121 3.86422 39.0176 2.26881C39.126 2.05195 39.2189 2.11391 39.3428 2.25332C40.6904 3.78677 41.4649 5.53708 41.2326 7.58168C41.1241 8.61947 40.644 9.51786 39.8385 10.2304C39.7765 10.2923 39.7146 10.4162 39.6062 10.3543C39.5132 10.3078 39.5597 10.1839 39.5597 10.091C40.0244 5.90882 35.3466 6.62134 34.2623 6.51291ZM46.4835 13.6535C45.8794 15.0321 43.8193 15.4038 42.9829 14.7533C44.0671 14.1492 45.2133 13.7929 46.4835 13.6535Z" fill="#0D201C"/>
</svg>
