<svg width="130" height="55" viewBox="0 0 130 55" fill="none" xmlns="http://www.w3.org/2000/svg">
<path d="M12.9666 9.81652H5.53378V12.9305H12.8134V17.6577H5.53378V24.2124H0.234863V8.31567C0.234863 6.52895 1.68466 5.08936 3.46118 5.08936H12.9564V9.81652H12.9666Z" fill="#102027"/>
<path d="M54.8269 24.2124H48.9052L45.6483 19.1279L42.3913 24.2124H36.439L42.6874 14.462L36.6738 5.08936H42.6261L45.6483 9.81652L48.6704 5.08936H54.6227L48.6091 14.4824L54.8269 24.2124Z" fill="#102027"/>
<path d="M70.8362 5.08936V9.81652H65.7109V24.2124H60.412V9.81652H55.2866V5.08936H70.8362Z" fill="#102027"/>
<path d="M78.0641 19.618H86.089V24.2124H72.7651V5.08936H85.9359V9.65317H78.0641V12.3077H85.2008V16.8103H78.0641V19.618Z" fill="#102027"/>
<path d="M101.537 24.2124L100.649 21.4558H93.7468L92.8585 24.2124H87.1104L93.951 5.08936H100.404L107.244 24.2124H101.537ZM95.1149 17.2391H99.2907L97.1875 10.7456L95.1149 17.2391Z" fill="#102027"/>
<path d="M129.9 7.81539V24.2124H124.632V13.9107L119.598 21.5885H119.067L114.065 13.9413V24.2124H108.766V5.08936H114.065L119.333 13.2572L124.632 5.08936H127.174C128.675 5.08936 129.9 6.30433 129.9 7.81539Z" fill="#102027"/>
<path d="M47.6701 38.8125C46.8941 38.8125 46.2509 39.0575 45.7404 39.5476C45.2299 40.0377 44.9849 40.6605 44.9849 41.416C44.9849 42.1818 45.2401 42.8148 45.7404 43.3048C46.2407 43.7949 46.8941 44.04 47.6701 44.04C48.446 44.04 49.0892 43.7949 49.5997 43.3048C50.1 42.8148 50.3553 42.1818 50.3553 41.416C50.3553 40.6605 50.1 40.0377 49.5997 39.5476C49.0892 39.0575 48.446 38.8125 47.6701 38.8125Z" fill="#FF6F00"/>
<path d="M8.67845 38.8635C7.91271 38.8635 7.26949 39.1188 6.7692 39.6191C6.25871 40.1295 6.01367 40.7728 6.01367 41.5691C6.01367 42.3655 6.26892 43.0087 6.7692 43.5192C7.26949 44.0297 7.91271 44.2748 8.67845 44.2748C9.44419 44.2748 10.0772 44.0195 10.5775 43.5192C11.0778 43.0189 11.3228 42.3655 11.3228 41.5691C11.3228 40.7728 11.0778 40.1295 10.5775 39.6191C10.0772 39.1188 9.44419 38.8635 8.67845 38.8635Z" fill="#FF6F00"/>
<path d="M104.631 38.8635C103.865 38.8635 103.232 39.1188 102.732 39.6191C102.231 40.1295 101.986 40.7728 101.986 41.5691C101.986 42.3655 102.231 43.0087 102.732 43.5192C103.232 44.0297 103.865 44.2748 104.631 44.2748C105.396 44.2748 106.04 44.0195 106.54 43.5192C107.04 43.0189 107.295 42.3655 107.295 41.5691C107.295 40.7728 107.04 40.1295 106.54 39.6191C106.04 39.1188 105.396 38.8635 104.631 38.8635Z" fill="#FF6F00"/>
<path d="M0 28.3167V50.1045C0 52.3405 1.80715 54.1476 4.04311 54.1476H125.275C127.511 54.1476 129.318 52.3405 129.318 50.1045V28.3167H0ZM13.8037 46.3779H11.3227V45.2446C10.5978 46.1839 9.55643 46.6434 8.20873 46.6434C6.91208 46.6434 5.80941 46.1533 4.90074 45.1731C3.98185 44.193 3.53261 42.9984 3.53261 41.5691C3.53261 40.1499 3.99206 38.9451 4.90074 37.965C5.81962 36.9848 6.92229 36.4948 8.20873 36.4948C9.55643 36.4948 10.5876 36.9644 11.3227 37.8935V32.9213H13.8037V46.3779ZM29.6392 46.3779H27.1582V36.7806H29.6392V46.3779ZM29.4759 35.1675C29.1798 35.4636 28.8122 35.6167 28.3936 35.6167C27.9852 35.6167 27.6279 35.4636 27.3318 35.1675C27.0357 34.8714 26.8826 34.514 26.8826 34.1056C26.8826 33.6972 27.0357 33.3399 27.3318 33.0336C27.6279 32.7273 27.9852 32.5742 28.3936 32.5742C28.8122 32.5742 29.1798 32.7273 29.4759 33.0336C29.772 33.3399 29.9251 33.6972 29.9251 34.1056C29.9353 34.514 29.7822 34.8714 29.4759 35.1675ZM52.7748 45.9185C52.7748 47.3989 52.2847 48.5322 51.3046 49.3183C50.3244 50.0943 49.1401 50.4925 47.7618 50.4925C46.7203 50.4925 45.8117 50.2985 45.0255 49.9003C44.2393 49.5021 43.637 48.9202 43.2082 48.1544L45.3216 46.9497C45.8117 47.8481 46.6489 48.2974 47.8332 48.2974C48.6092 48.2974 49.232 48.0932 49.6812 47.6848C50.1304 47.2764 50.3551 46.6944 50.3551 45.9389V44.8975C49.6302 45.8674 48.599 46.3575 47.2819 46.3575C45.924 46.3575 44.7907 45.8776 43.8718 44.9281C42.9529 43.9786 42.5037 42.8147 42.5037 41.4465C42.5037 40.0886 42.9631 38.9349 43.882 37.9752C44.8009 37.0155 45.9342 36.5356 47.2819 36.5356C48.599 36.5356 49.6199 37.0257 50.3551 37.9956V36.801H52.7748V45.9185ZM68.6001 46.3779H66.1191V36.7806H68.6001V46.3779ZM68.4367 35.1675C68.1406 35.4636 67.7731 35.6167 67.3545 35.6167C66.9461 35.6167 66.5887 35.4636 66.2927 35.1675C65.9966 34.8714 65.8434 34.514 65.8434 34.1056C65.8434 33.6972 65.9966 33.3399 66.2927 33.0336C66.5887 32.7273 66.9461 32.5742 67.3545 32.5742C67.7731 32.5742 68.1406 32.7273 68.4367 33.0336C68.7328 33.3399 68.886 33.6972 68.886 34.1056C68.886 34.514 68.7328 34.8714 68.4367 35.1675ZM87.4475 39.1595H85.2728V43.1516C85.2728 43.4885 85.3545 43.7233 85.5178 43.8765C85.6812 44.0296 85.9262 44.1113 86.2427 44.1317C86.5592 44.1522 86.9574 44.1522 87.4373 44.1215V46.3677C85.7322 46.5617 84.5377 46.3983 83.8332 45.8878C83.1389 45.3773 82.7918 44.4584 82.7918 43.1414V39.1493H81.1174V36.7704H82.802V34.8305L85.283 34.0852V36.7704H87.4577V39.1595H87.4475ZM109.776 46.3779H107.306V45.2446C106.56 46.1839 105.519 46.6434 104.181 46.6434C102.905 46.6434 101.803 46.1533 100.884 45.1731C99.9648 44.193 99.5156 42.9984 99.5156 41.5691C99.5156 40.1499 99.975 38.9451 100.884 37.965C101.803 36.9848 102.895 36.4948 104.181 36.4948C105.529 36.4948 106.571 36.9644 107.306 37.8935V36.7602H109.787V46.3779H109.776ZM125.122 46.3779H122.641V32.3598H125.122V46.3779Z" fill="#FF6F00"/>
<path d="M33.7844 14.268C33.8865 14.1149 33.9273 13.9413 33.9886 13.7677C34.0499 13.6044 34.1009 13.635 34.1928 13.7473C34.8564 14.6049 35.3261 15.5443 35.5916 16.5857C35.7039 17.0451 35.7753 17.5148 35.8366 17.9946C36.1429 17.6781 36.6636 15.6157 36.6738 14.2068C36.684 12.8795 36.4696 11.6033 36.0102 10.3679C34.5706 6.49832 31.1196 4.25215 28.5876 3.71102C28.7203 4.01732 28.8735 4.29299 28.9654 4.58907C29.5473 6.42685 29.0777 7.77455 27.4849 8.92827C26.3823 9.72464 25.1469 10.2555 23.8808 10.7354C23.6766 10.8171 23.4724 10.8886 23.2682 10.96C23.0845 11.0315 22.9007 11.0825 22.7067 11.0825C22.4923 11.0825 22.2677 11.1132 22.1554 11.3174C22.0431 11.542 22.2166 11.7053 22.3494 11.8585C23.4112 13.1347 24.8099 13.829 26.4435 14.1251C27.0357 14.2374 27.6279 14.3089 28.2302 14.3293C28.4855 14.3395 28.5059 14.3701 28.4344 14.6152C28.0056 16.1262 26.9642 17.0247 25.4429 17.4331C24.2178 17.7598 22.9926 17.6577 21.7776 17.3922C21.1446 17.2493 20.5218 17.0553 19.8684 17.0553C19.0312 17.0655 18.2654 17.2595 17.6426 17.8415C17.5609 17.9232 17.4997 17.964 17.4384 17.8108C16.9279 16.5346 16.6625 15.238 17.173 13.8903C17.5099 13.0122 18.1327 12.3384 18.878 11.7768C19.9909 10.9498 21.2569 10.3985 22.5229 9.84715C23.7277 9.32645 24.9529 8.83638 26.076 8.14211C27.8933 7.01902 28.4753 5.19146 27.8525 3.26179C27.4441 1.99577 26.6885 0.964572 25.6471 0.117153C25.4429 -0.0564146 25.4123 -0.0462048 25.3306 0.209042C24.9937 1.3015 24.2484 2.08766 23.3295 2.76151C22.5127 3.36389 21.5836 3.7927 20.7158 4.31341C18.9699 5.35481 17.3976 6.58 16.2234 8.234C15.0697 9.86757 14.498 11.6747 14.4367 13.6554C14.3959 15.0542 14.6001 16.4121 15.1106 17.719C16.2439 20.6186 18.2654 22.7116 21.1854 23.9674C21.7572 24.2124 22.3391 24.4268 22.9517 24.5596C25.106 25.0088 27.2297 25.0292 29.2308 23.9572C30.456 23.2935 31.334 22.3134 31.8445 21.0576C32.6715 19.0258 32.6307 17.0043 31.5382 15.0542C31.3034 14.6458 30.9971 14.2884 30.6602 13.9515C30.5172 13.7984 30.3335 13.7882 30.1497 13.7882C29.3023 13.7677 28.4651 13.7269 27.6176 13.635C26.2495 13.4921 24.9427 13.1858 23.8196 12.369C23.6869 12.2771 23.4316 12.1648 23.4827 12.0423C23.5337 11.8993 23.7685 12.0219 23.9217 12.0423C25.2796 12.2056 26.6273 12.0729 27.9852 12.0116C28.9449 11.9708 29.8842 11.9912 30.7725 12.3996C30.9052 12.4609 30.9971 12.4507 30.9767 12.2771C30.9767 12.2567 30.9767 12.2261 30.9767 12.2056C30.9869 12.0627 30.895 11.8585 30.9971 11.7972C31.1401 11.7258 31.283 11.8891 31.4157 11.9708C32.3346 12.5119 33.1003 13.2062 33.6517 14.1047C33.6823 14.1557 33.7129 14.1966 33.7436 14.2374C33.7436 14.2578 33.7538 14.268 33.7844 14.268ZM22.5842 4.29299C22.574 4.27257 22.574 4.25215 22.5638 4.23173C22.7986 4.099 23.0334 3.96627 23.2682 3.82333C24.2688 3.23116 25.1877 2.5471 25.7186 1.49548C25.7901 1.35255 25.8513 1.39339 25.933 1.48527C26.8213 2.49605 27.3318 3.64977 27.1786 4.99747C27.1072 5.68153 26.7907 6.2737 26.2597 6.74336C26.2189 6.78419 26.1781 6.86587 26.1066 6.82503C26.0453 6.7944 26.076 6.71273 26.076 6.65147C26.3823 3.8948 23.2989 4.36446 22.5842 4.29299ZM30.6398 8.99974C30.2416 9.90841 28.8837 10.1535 28.3323 9.72464C29.047 9.32645 29.8026 9.09162 30.6398 8.99974Z" fill="#102027"/>
</svg>
